<svg width="188" height="30" viewBox="0 0 188 30" fill="none" xmlns="http://www.w3.org/2000/svg">
<path d="M13.1474 23.3447C10.7018 23.3447 8.60903 22.959 6.86917 22.1875C5.12931 21.3997 3.8162 20.3328 2.92986 18.9868C2.05993 17.6245 1.62496 16.0898 1.62496 14.3828C1.62496 12.6757 2.05993 11.1492 2.92986 9.80332C3.8162 8.44097 5.12931 7.37408 6.86917 6.60263C8.60903 5.81477 10.7018 5.42084 13.1474 5.42084C15.5931 5.42084 17.6859 5.81477 19.4257 6.60263C21.1656 7.37408 22.4705 8.44097 23.3404 9.80332C24.2267 11.1492 24.6699 12.6757 24.6699 14.3828C24.6699 16.0898 24.2267 17.6245 23.3404 18.9868C22.4705 20.3328 21.1656 21.3997 19.4257 22.1875C17.6859 22.959 15.5931 23.3447 13.1474 23.3447ZM13.1474 20.5626C14.8216 20.5626 16.2496 20.2917 17.4314 19.7501C18.6296 19.2084 19.5324 18.4698 20.1397 17.5342C20.7634 16.5986 21.0753 15.5481 21.0753 14.3828C21.0753 13.2174 20.7634 12.1669 20.1397 11.2313C19.5324 10.2957 18.6296 9.55711 17.4314 9.01546C16.2496 8.4738 14.8216 8.20297 13.1474 8.20297C11.4732 8.20297 10.037 8.4738 8.83882 9.01546C7.65703 9.55711 6.75427 10.2957 6.13055 11.2313C5.52324 12.1669 5.21958 13.2174 5.21958 14.3828C5.21958 15.5481 5.52324 16.5986 6.13055 17.5342C6.75427 18.4698 7.65703 19.2084 8.83882 19.7501C10.037 20.2917 11.4732 20.5626 13.1474 20.5626ZM27.5405 23V9.26166H30.9874V11.576H31.1598C31.5701 10.9195 32.2595 10.3204 33.2279 9.7787C34.1963 9.23704 35.3125 8.96621 36.5763 8.96621C38.4147 8.96621 39.8345 9.44221 40.8357 10.3942C41.8369 11.3462 42.3376 12.6757 42.3376 14.3828V23H38.8907V14.949C38.8907 13.8821 38.5788 13.0532 37.9551 12.4624C37.3314 11.8715 36.4368 11.576 35.2714 11.576C34.2538 11.576 33.3592 11.8468 32.5878 12.3885C31.8327 12.9301 31.2993 13.5375 30.9874 14.2104V23H27.5405ZM48.8942 23H45.4473V5.27311H48.8942V23ZM57.5422 27.6779H53.9722L56.9513 21.4981L50.1313 9.26166H53.8737L58.5762 17.9035H58.7486L62.8356 9.26166H66.4549L57.5422 27.6779Z" fill="#0E0E0E"/>
<g clip-path="url(#clip0_23869_1155)">
<path d="M84 3L86.4625 8.23421L91.7135 5.80747L90.2354 11.4L95.8177 12.9162L91.0906 16.2503L94.3923 21L88.6281 20.5155L88.1042 26.2763L84 22.2L79.8958 26.2763L79.3719 20.5155L73.6077 21L76.9094 16.2503L72.1823 12.9162L77.7646 11.4L76.2865 5.80747L81.5375 8.23421L84 3Z" fill="#0E0E0E"/>
</g>
<path d="M109.494 23.2954C108.066 23.2954 106.802 23 105.703 22.4091C104.619 21.8018 103.774 20.9565 103.167 19.8732C102.576 18.7899 102.28 17.5424 102.28 16.1308C102.28 14.7192 102.576 13.4718 103.167 12.3885C103.774 11.3052 104.619 10.4681 105.703 9.87718C106.786 9.26987 108.042 8.96621 109.47 8.96621C110.684 8.96621 111.8 9.20421 112.818 9.68022C113.836 10.1562 114.591 10.6815 115.083 11.2559H115.255V5.27311H118.702V23H115.255V21.0057H115.083C114.591 21.5802 113.836 22.1054 112.818 22.5814C111.817 23.0574 110.709 23.2954 109.494 23.2954ZM110.774 20.6364C111.743 20.6364 112.629 20.423 113.433 19.9963C114.254 19.5531 114.861 19.0607 115.255 18.519V13.7426C114.861 13.201 114.254 12.7168 113.433 12.29C112.629 11.8468 111.735 11.6252 110.75 11.6252C109.223 11.6252 108.017 12.0356 107.131 12.8563C106.261 13.677 105.826 14.7685 105.826 16.1308C105.826 17.4932 106.261 18.5847 107.131 19.4054C108.017 20.2261 109.232 20.6364 110.774 20.6364ZM123.628 8.22759C122.922 8.22759 122.364 8.05525 121.954 7.71056C121.56 7.36587 121.363 6.91449 121.363 6.35642C121.363 5.79835 121.56 5.35518 121.954 5.02691C122.364 4.68222 122.922 4.50987 123.628 4.50987C124.334 4.50987 124.884 4.68222 125.278 5.02691C125.688 5.35518 125.893 5.79835 125.893 6.35642C125.893 6.91449 125.688 7.36587 125.278 7.71056C124.884 8.05525 124.334 8.22759 123.628 8.22759ZM125.351 23H121.904V9.26166H125.351V23ZM135.994 27.9734C134.681 27.9734 133.441 27.8339 132.276 27.5548C131.111 27.2922 130.216 26.9968 129.592 26.6685V23.714C130.183 24.0915 131.02 24.428 132.104 24.7234C133.187 25.0189 134.328 25.1666 135.526 25.1666C137.331 25.1666 138.71 24.7481 139.662 23.911C140.631 23.0903 141.115 21.9823 141.115 20.5872V19.947H140.942C140.483 20.5215 139.744 21.0468 138.727 21.5228C137.725 21.9988 136.601 22.2368 135.354 22.2368C133.909 22.2368 132.645 21.9577 131.562 21.3997C130.479 20.8252 129.642 20.0373 129.051 19.0361C128.476 18.0348 128.189 16.8859 128.189 15.5892C128.189 14.3089 128.476 13.1681 129.051 12.1669C129.642 11.1657 130.479 10.386 131.562 9.82794C132.645 9.25346 133.901 8.96621 135.329 8.96621C136.593 8.96621 137.725 9.20421 138.727 9.68022C139.744 10.1562 140.483 10.6815 140.942 11.2559H141.115V9.26166H144.562V20.5872C144.562 22.0808 144.233 23.3775 143.577 24.4772C142.92 25.5934 141.952 26.4551 140.672 27.0624C139.391 27.6697 137.832 27.9734 135.994 27.9734ZM136.461 19.6762C137.479 19.6762 138.406 19.4546 139.244 19.0115C140.097 18.5519 140.721 18.0512 141.115 17.5096V13.6934C140.721 13.1353 140.097 12.6347 139.244 12.1915C138.406 11.7484 137.463 11.5268 136.412 11.5268C134.902 11.5268 133.745 11.8879 132.941 12.6101C132.136 13.3323 131.734 14.3253 131.734 15.5892C131.734 16.853 132.136 17.8543 132.941 18.5929C133.761 19.3151 134.935 19.6762 136.461 19.6762ZM149.511 8.22759C148.806 8.22759 148.248 8.05525 147.837 7.71056C147.443 7.36587 147.246 6.91449 147.246 6.35642C147.246 5.79835 147.443 5.35518 147.837 5.02691C148.248 4.68222 148.806 4.50987 149.511 4.50987C150.217 4.50987 150.767 4.68222 151.161 5.02691C151.571 5.35518 151.776 5.79835 151.776 6.35642C151.776 6.91449 151.571 7.36587 151.161 7.71056C150.767 8.05525 150.217 8.22759 149.511 8.22759ZM151.235 23H147.788V9.26166H151.235V23ZM160.178 23.2954C158.635 23.2954 157.429 22.8605 156.559 21.9906C155.689 21.1206 155.254 19.865 155.254 18.2236V10.862H152.743V9.26166H154.072C154.499 9.26166 154.803 9.17139 154.983 8.99084C155.164 8.79387 155.254 8.45739 155.254 7.98139V6.03636H158.701V9.26166H162.862V10.862H158.701V18.0266C158.701 18.7981 158.906 19.389 159.317 19.7993C159.727 20.2097 160.277 20.4148 160.966 20.4148C161.59 20.4148 162.222 20.3163 162.862 20.1194V22.9015C162.386 23.0492 161.951 23.1477 161.557 23.197C161.163 23.2626 160.704 23.2954 160.178 23.2954ZM172.084 8.96621C174.628 8.96621 176.491 9.39297 177.673 10.2465C178.871 11.1 179.47 12.249 179.47 13.6934V23H176.023V20.7349C175.482 21.375 174.612 21.9659 173.414 22.5076C172.215 23.0328 170.886 23.2954 169.425 23.2954C167.718 23.2954 166.421 22.9426 165.535 22.2368C164.665 21.531 164.23 20.5954 164.23 19.43C164.23 16.7217 166.528 15.3266 171.124 15.2445L171.37 15.2199C172.683 15.2035 173.668 15.1296 174.325 14.9983C174.998 14.867 175.449 14.6946 175.679 14.4812C175.909 14.2679 176.023 13.9806 176.023 13.6195C176.023 13.0779 175.695 12.6347 175.039 12.29C174.398 11.9453 173.315 11.773 171.789 11.773C170.476 11.773 169.203 11.9371 167.972 12.2654C166.758 12.5937 165.814 12.9548 165.141 13.3487V10.4435C165.765 10.0659 166.709 9.72946 167.972 9.43401C169.236 9.12215 170.607 8.96621 172.084 8.96621ZM170.853 20.8334C172.018 20.8334 173.061 20.6282 173.98 20.2179C174.899 19.8075 175.58 19.3479 176.023 18.8391V15.8108C175.859 16.0241 175.424 16.2211 174.719 16.4017C174.029 16.5822 173.102 16.6807 171.936 16.6971L171.715 16.7217C170.32 16.7381 169.31 16.9433 168.686 17.3372C168.079 17.7312 167.775 18.2482 167.775 18.8883C167.775 19.4957 168.022 19.9717 168.514 20.3163C169.023 20.661 169.803 20.8334 170.853 20.8334ZM185.985 23H182.538V5.27311H185.985V23Z" fill="#0E0E0E"/>
<defs>
<clipPath id="clip0_23869_1155">
<rect width="24" height="24" fill="white" transform="translate(72 3)"/>
</clipPath>
</defs>
</svg>
