<svg width="14" height="14" viewBox="0 0 14 14" fill="none" xmlns="http://www.w3.org/2000/svg">
<g clip-path="url(#clip0_5924_30641)">
<path fill-rule="evenodd" clip-rule="evenodd" d="M11.5376 2.58369C12.1722 2.31648 12.8525 2.85311 12.7405 3.53251L11.4169 11.5573C11.2893 12.331 10.4395 12.775 9.72964 12.3894C9.13564 12.0667 8.25434 11.5701 7.46007 11.0512C7.06346 10.792 5.84902 9.96096 5.9983 9.36941C6.12593 8.8636 8.16754 6.96316 9.3342 5.83295C9.79247 5.38899 9.58375 5.13252 9.04254 5.54128C7.69994 6.55529 5.54441 8.09698 4.8316 8.53086C4.2027 8.91365 3.87433 8.97898 3.48265 8.91365C2.7674 8.79447 2.10429 8.60991 1.56291 8.3855C0.831192 8.08216 0.866834 7.07661 1.56241 6.78378L11.5376 2.58369Z" fill="#0E0E0E"/>
</g>
<defs>
<clipPath id="clip0_5924_30641">
<rect width="14" height="14" fill="white"/>
</clipPath>
</defs>
</svg>
