<svg width="52" height="52" viewBox="0 0 52 52" fill="none" xmlns="http://www.w3.org/2000/svg">
<g clip-path="url(#clip0_3695_22914)">
<path d="M32.5625 40.0781H27.1318L22.0811 21.1895L21.3613 18.498L20.6455 21.1904L15.5967 40.1797H10.167L1.01758 11.6328H6.93457L12.1777 31.6729L13.6172 31.6631L18.5781 11.6328H24.251L29.209 31.6631L30.6494 31.6729L35.8965 11.625L41.7061 11.5508L32.5625 40.0781Z" fill="#0E0E0E" stroke="#0E0E0E" stroke-width="1.48571"/>
<path d="M46.9933 31.1934C49.8836 31.1934 52.0004 33.3145 52.0004 36.2027C52.0004 39.0844 49.8836 41.2034 46.9933 41.2034C44.1051 41.2034 41.9883 39.0844 41.9883 36.2027C41.9904 33.3145 44.2026 31.1934 46.9933 31.1934Z" fill="#0E0E0E"/>
<path d="M46.9932 31.9365C49.4726 31.9365 51.2578 33.7246 51.2578 36.2031C51.2576 38.6739 49.4735 40.4609 46.9932 40.4609C44.5153 40.4609 42.7317 38.674 42.7314 36.2031L42.7363 35.9736C42.8501 33.6225 44.6793 31.9366 46.9932 31.9365Z" stroke="#0E0E0E" stroke-opacity="0.8" stroke-width="1.48571"/>
</g>
<defs>
<clipPath id="clip0_3695_22914">
<rect width="52" height="52" fill="white"/>
</clipPath>
</defs>
</svg>
