<svg width="71" height="45" viewBox="0 0 71 45" fill="none" xmlns="http://www.w3.org/2000/svg">
<path fill-rule="evenodd" clip-rule="evenodd" d="M49.9357 42.303H49.8959C43.9535 42.2951 38.8781 40.3063 35.2187 36.5593C31.7026 32.9517 29.7695 27.8645 29.7774 22.2282C29.7853 15.896 32.1003 10.6496 36.4717 7.06174C40.2066 3.99509 45.2064 2.30859 50.5563 2.30859H50.5921C61.5423 2.32451 66.1245 9.36079 67.8826 13.5531L68.0536 13.9628L65.6432 15.4386C63.4436 16.7869 61.6616 17.8807 59.3507 19.261L70.0702 19.2768V20.1718C70.3049 27.1484 68.3797 32.9159 64.5057 36.8577C61.0014 40.4216 55.9618 42.307 49.9318 42.307L49.9357 42.303ZM50.5563 3.34675C45.4531 3.34675 40.6919 4.9497 37.1479 7.85729C33.0271 11.2422 30.8435 16.2102 30.8314 22.2282C30.8235 27.5939 32.6493 32.4227 35.9785 35.8354C39.431 39.3755 44.2439 41.2529 49.8959 41.2609H49.9397C55.7589 41.2609 60.4047 39.5346 63.7538 36.1298C67.4053 32.4147 69.2269 26.9495 69.0241 20.311L48.822 20.2792L48.8101 27.24L58.2091 27.2519L58.1375 27.8326C57.7079 31.3567 54.856 33.3774 50.3176 33.3774H50.2937C44.1722 33.3694 40.5209 29.3123 40.5288 22.5265C40.5367 17.8052 42.3306 15.1244 43.8341 13.7083C45.4848 12.1531 47.756 11.2262 49.9119 11.2262H49.9238C54.4344 11.2342 57.9705 14.8777 58.6984 18.4296C61.0571 17.0255 62.8549 15.9198 65.0823 14.5555L66.729 13.5452C64.951 9.55968 60.5797 3.36663 50.5881 3.35072H50.5522L50.5563 3.34675ZM49.9158 12.2684C48.0266 12.2684 46.0297 13.0878 44.57 14.464C42.6249 16.2938 41.5948 19.0859 41.5908 22.5345C41.5829 28.6679 44.8365 32.3352 50.2978 32.3432H50.3176C54.0526 32.3432 56.3953 30.9112 56.988 28.294L47.7521 28.2781L47.764 19.2371L57.7597 19.253C57.4494 15.9397 54.1798 12.2723 49.9278 12.2684H49.9158Z" fill="#0E0E0E"/>
<path fill-rule="evenodd" clip-rule="evenodd" d="M50.5607 3.3457C45.4575 3.3457 40.6963 4.94866 37.1523 7.85624C33.0316 11.2411 30.8479 16.2092 30.836 22.2272C30.828 27.5929 32.6537 32.4216 35.9829 35.8344C39.4354 39.3745 44.2483 41.2518 49.9004 41.2598H49.9442C55.7633 41.2598 60.4091 39.5336 63.7583 36.1287C67.4097 32.4138 69.2314 26.9486 69.0285 20.31L48.8265 20.2782L48.8145 27.2389L58.2135 27.2508L58.142 27.8316C57.7123 31.3557 54.8604 33.3763 50.3221 33.3763H50.2981C44.1767 33.3683 40.5253 29.3112 40.5332 22.5255C40.5412 17.8042 42.3351 15.1233 43.8386 13.7073C45.4892 12.152 47.7604 11.2253 49.9163 11.2253H49.9282C54.4388 11.2332 57.9749 14.8767 58.7028 18.4286C61.0615 17.0246 62.8593 15.9187 65.0867 14.5545L66.7335 13.5442C64.9556 9.55862 60.5842 3.36559 50.5925 3.34968H50.5568L50.5607 3.3457Z" fill="#00FFA9"/>
<path fill-rule="evenodd" clip-rule="evenodd" d="M45.6819 42.303H45.642C39.6996 42.2951 34.6242 40.3063 30.9648 36.5593C27.4487 32.9517 25.5156 27.8645 25.5235 22.2282C25.5314 15.896 27.8464 10.6496 32.2178 7.06174C35.9527 3.99509 40.9525 2.30859 46.3024 2.30859H46.3382C57.2884 2.32451 61.8706 9.36079 63.6287 13.5531L63.7997 13.9628L61.3893 15.4386C59.1897 16.7869 57.4077 17.8807 55.0967 19.261L65.8163 19.2768V20.1718C66.051 27.1484 64.1258 32.9159 60.2518 36.8577C56.7475 40.4216 51.7079 42.307 45.6779 42.307L45.6819 42.303ZM46.3024 3.34675C41.1991 3.34675 36.438 4.9497 32.894 7.85729C28.7731 11.2422 26.5895 16.2102 26.5775 22.2282C26.5696 27.5939 28.3954 32.4227 31.7246 35.8354C35.1771 39.3755 39.99 41.2529 45.642 41.2609H45.6858C51.505 41.2609 56.1508 39.5346 59.4999 36.1298C63.1514 32.4147 64.973 26.9495 64.7702 20.311L44.5681 20.2792L44.5562 27.24L53.9552 27.2519L53.8835 27.8326C53.454 31.3567 50.6021 33.3774 46.0637 33.3774H46.0398C39.9183 33.3694 36.2669 29.3123 36.2749 22.5265C36.2829 17.8052 38.0767 15.1244 39.5802 13.7083C41.2309 12.1531 43.5021 11.2262 45.658 11.2262H45.6699C50.1805 11.2342 53.7166 14.8777 54.4445 18.4296C56.8032 17.0255 58.601 15.9198 60.8284 14.5555L62.4752 13.5452C60.6971 9.55968 56.3258 3.36663 46.3342 3.35072H46.2983L46.3024 3.34675ZM45.6619 12.2684C43.7727 12.2684 41.7759 13.0878 40.3161 14.464C38.371 16.2938 37.3409 19.0859 37.3368 22.5345C37.329 28.6679 40.5826 32.3352 46.0439 32.3432H46.0637C49.7987 32.3432 52.1414 30.9112 52.7341 28.294L43.4982 28.2781L43.5101 19.2371L53.5058 19.253C53.1955 15.9397 49.9259 12.2723 45.6739 12.2684H45.6619Z" fill="#0E0E0E"/>
<path fill-rule="evenodd" clip-rule="evenodd" d="M46.3029 3.3457C41.1997 3.3457 36.4385 4.94866 32.8945 7.85624C28.7738 11.2411 26.5901 16.2092 26.5782 22.2272C26.5702 27.5929 28.3959 32.4216 31.7251 35.8344C35.1776 39.3745 39.9905 41.2518 45.6425 41.2598H45.6863C51.5055 41.2598 56.1513 39.5336 59.5004 36.1287C63.1519 32.4138 64.9735 26.9486 64.7707 20.31L44.5686 20.2782L44.5567 27.2389L53.9557 27.2508L53.8841 27.8316C53.4545 31.3557 50.6026 33.3763 46.0642 33.3763H46.0403C39.9189 33.3683 36.2675 29.3112 36.2754 22.5255C36.2834 17.8042 38.0772 15.1233 39.5808 13.7073C41.2314 12.152 43.5026 11.2253 45.6585 11.2253H45.6704C50.181 11.2332 53.7171 14.8767 54.445 18.4286C56.8037 17.0246 58.6015 15.9187 60.8289 14.5545L62.4756 13.5442C60.6977 9.55862 56.3263 3.36559 46.3347 3.34968H46.2988L46.3029 3.3457Z" fill="#00FFA9"/>
<path fill-rule="evenodd" clip-rule="evenodd" d="M41.4279 42.303H41.3881C35.4456 42.2951 30.3702 40.3063 26.7108 36.5593C23.1946 32.9517 21.2616 27.8645 21.2696 22.2282C21.2775 15.896 23.5924 10.6496 27.9638 7.06174C31.6987 3.99509 36.6985 2.30859 42.0484 2.30859H42.0842C53.0344 2.32451 57.6166 9.36079 59.3747 13.5531L59.5457 13.9628L57.1354 15.4386C54.9357 16.7869 53.1538 17.8807 50.8428 19.261L61.5623 19.2768V20.1718C61.797 27.1484 59.8719 32.9159 55.9977 36.8577C52.4935 40.4216 47.4539 42.307 41.4238 42.307L41.4279 42.303ZM42.0484 3.34675C36.9451 3.34675 32.184 4.9497 28.6399 7.85729C24.5192 11.2422 22.3355 16.2102 22.3236 22.2282C22.3156 27.5939 24.1413 32.4227 27.4705 35.8354C30.9232 39.3755 35.736 41.2529 41.3881 41.2609H41.4318C47.2511 41.2609 51.8968 39.5346 55.246 36.1298C58.8974 32.4147 60.7191 26.9495 60.5162 20.311L40.3142 20.2792L40.3022 27.24L49.7012 27.2519L49.6296 27.8326C49.2001 31.3567 46.3482 33.3774 41.8097 33.3774H41.7859C35.6643 33.3694 32.0129 29.3123 32.0209 22.5265C32.0289 17.8052 33.8228 15.1244 35.3263 13.7083C36.977 12.1531 39.2482 11.2262 41.404 11.2262H41.416C45.9265 11.2342 49.4625 14.8777 50.1905 18.4296C52.5492 17.0255 54.347 15.9198 56.5745 14.5555L58.2212 13.5452C56.4432 9.55968 52.0719 3.36663 42.0801 3.35072H42.0444L42.0484 3.34675ZM41.408 12.2684C39.5186 12.2684 37.5219 13.0878 36.0621 14.464C34.1171 16.2938 33.0869 19.0859 33.0829 22.5345C33.075 28.6679 36.3286 32.3352 41.7898 32.3432H41.8097C45.5447 32.3432 47.8875 30.9112 48.4801 28.294L39.2442 28.2781L39.2561 19.2371L49.2517 19.253C48.9415 15.9397 45.6719 12.2723 41.4199 12.2684H41.408Z" fill="#0E0E0E"/>
<path fill-rule="evenodd" clip-rule="evenodd" d="M42.049 3.3457C36.9457 3.3457 32.1847 4.94866 28.6407 7.85624C24.5199 11.2411 22.3361 16.2092 22.3242 22.2272C22.3163 27.5929 24.142 32.4216 27.4713 35.8344C30.9238 39.3745 35.7366 41.2518 41.3888 41.2598H41.4326C47.2517 41.2598 51.8975 39.5336 55.2466 36.1287C58.898 32.4138 60.7198 26.9486 60.5168 20.31L40.3148 20.2782L40.3029 27.2389L49.7019 27.2508L49.6303 27.8316C49.2007 31.3557 46.3488 33.3763 41.8103 33.3763H41.7865C35.6651 33.3683 32.0137 29.3112 32.0215 22.5255C32.0295 17.8042 33.8234 15.1233 35.3269 13.7073C36.9776 12.152 39.2488 11.2253 41.4047 11.2253H41.4166C45.9271 11.2332 49.4632 14.8767 50.1911 18.4286C52.5498 17.0246 54.3476 15.9187 56.5751 14.5545L58.2218 13.5442C56.4439 9.55862 52.0725 3.36559 42.0809 3.34968H42.045L42.049 3.3457Z" fill="#00FFA9"/>
<path fill-rule="evenodd" clip-rule="evenodd" d="M37.174 42.303H37.1342C31.1918 42.2951 26.1164 40.3063 22.457 36.5593C18.9408 32.9517 17.0078 27.8645 17.0156 22.2282C17.0236 15.896 19.3386 10.6496 23.71 7.06174C27.4449 3.99509 32.4447 2.30859 37.7946 2.30859H37.8303C48.7806 2.32451 53.3628 9.36079 55.1209 13.5531L55.2919 13.9628L52.8814 15.4386C50.6819 16.7869 48.8999 17.8807 46.5889 19.261L57.3085 19.2768V20.1718C57.5432 27.1484 55.618 32.9159 51.7438 36.8577C48.2397 40.4216 43.2001 42.307 37.1701 42.307L37.174 42.303ZM37.7946 3.34675C32.6913 3.34675 27.9302 4.9497 24.3861 7.85729C20.2653 11.2422 18.0817 16.2102 18.0697 22.2282C18.0617 27.5939 19.8876 32.4227 23.2167 35.8354C26.6692 39.3755 31.4822 41.2529 37.1342 41.2609H37.178C42.9972 41.2609 47.643 39.5346 50.9921 36.1298C54.6436 32.4147 56.4652 26.9495 56.2624 20.311L36.0603 20.2792L36.0484 27.24L45.4474 27.2519L45.3757 27.8326C44.9462 31.3567 42.0943 33.3774 37.5559 33.3774H37.532C31.4105 33.3694 27.7591 29.3123 27.7671 22.5265C27.775 17.8052 29.5689 15.1244 31.0724 13.7083C32.7231 12.1531 34.9943 11.2262 37.1502 11.2262H37.1621C41.6727 11.2342 45.2087 14.8777 45.9366 18.4296C48.2954 17.0255 50.0932 15.9198 52.3206 14.5555L53.9673 13.5452C52.1893 9.55968 47.818 3.36663 37.8263 3.35072H37.7905L37.7946 3.34675ZM37.1541 12.2684C35.2649 12.2684 33.268 13.0878 31.8083 14.464C29.8632 16.2938 28.8331 19.0859 28.829 22.5345C28.8212 28.6679 32.0748 32.3352 37.536 32.3432H37.5559C41.2909 32.3432 43.6336 30.9112 44.2262 28.294L34.9904 28.2781L35.0023 19.2371L44.998 19.253C44.6877 15.9397 41.4181 12.2723 37.1661 12.2684H37.1541Z" fill="#0E0E0E"/>
<path fill-rule="evenodd" clip-rule="evenodd" d="M37.7952 3.3457C32.692 3.3457 27.9308 4.94866 24.3868 7.85624C20.266 11.2411 18.0824 16.2092 18.0703 22.2272C18.0625 27.5929 19.8882 32.4216 23.2174 35.8344C26.6699 39.3745 31.4828 41.2518 37.1348 41.2598H37.1786C42.9978 41.2598 47.6436 39.5336 50.9927 36.1287C54.6442 32.4138 56.4659 26.9486 56.263 20.31L36.0609 20.2782L36.049 27.2389L45.448 27.2508L45.3764 27.8316C44.9468 31.3557 42.0949 33.3763 37.5565 33.3763H37.5326C31.4112 33.3683 27.7598 29.3112 27.7677 22.5255C27.7757 17.8042 29.5695 15.1233 31.0731 13.7073C32.7237 12.152 34.9949 11.2253 37.1508 11.2253H37.1627C41.6733 11.2332 45.2094 14.8767 45.9372 18.4286C48.296 17.0246 50.0938 15.9187 52.3212 14.5545L53.9679 13.5442C52.19 9.55862 47.8186 3.36559 37.827 3.34968H37.7911L37.7952 3.3457Z" fill="#00FFA9"/>
<path fill-rule="evenodd" clip-rule="evenodd" d="M32.924 42.303H32.8842C26.9418 42.2951 21.8664 40.3063 18.207 36.5593C14.6908 32.9517 12.7578 27.8645 12.7656 22.2282C12.7736 15.896 15.0886 10.6496 19.46 7.06174C23.1949 3.99509 28.1947 2.30859 33.5446 2.30859H33.5803C44.5306 2.32451 49.1128 9.36079 50.8709 13.5531L51.0419 13.9628L48.6314 15.4386C46.4319 16.7869 44.6499 17.8807 42.3389 19.261L53.0585 19.2768V20.1718C53.2932 27.1484 51.368 32.9159 47.4938 36.8577C43.9897 40.4216 38.9501 42.307 32.9201 42.307L32.924 42.303ZM33.5446 3.34675C28.4413 3.34675 23.6802 4.9497 20.1361 7.85729C16.0153 11.2422 13.8317 16.2102 13.8197 22.2282C13.8117 27.5939 15.6376 32.4227 18.9667 35.8354C22.4192 39.3755 27.2322 41.2529 32.8842 41.2609H32.928C38.7472 41.2609 43.393 39.5346 46.7421 36.1298C50.3936 32.4147 52.2152 26.9495 52.0124 20.311L31.8103 20.2792L31.7984 27.24L41.1974 27.2519L41.1257 27.8326C40.6962 31.3567 37.8443 33.3774 33.3059 33.3774H33.282C27.1605 33.3694 23.5091 29.3123 23.5171 22.5265C23.525 17.8052 25.3189 15.1244 26.8224 13.7083C28.4731 12.1531 30.7443 11.2262 32.9002 11.2262H32.9121C37.4227 11.2342 40.9587 14.8777 41.6866 18.4296C44.0454 17.0255 45.8432 15.9198 48.0706 14.5555L49.7173 13.5452C47.9393 9.55968 43.568 3.36663 33.5763 3.35072H33.5405L33.5446 3.34675ZM32.9041 12.2684C31.0148 12.2684 29.018 13.0878 27.5583 14.464C25.6132 16.2938 24.5831 19.0859 24.579 22.5345C24.5712 28.6679 27.8248 32.3352 33.286 32.3432H33.3059C37.0409 32.3432 39.3836 30.9112 39.9763 28.294L30.7404 28.2781L30.7523 19.2371L40.748 19.253C40.4377 15.9397 37.1681 12.2723 32.9161 12.2684H32.9041Z" fill="#0E0E0E"/>
<path fill-rule="evenodd" clip-rule="evenodd" d="M33.5413 3.3457C28.4381 3.3457 23.6769 4.94866 20.1329 7.85624C16.012 11.2411 13.8285 16.2092 13.8164 22.2272C13.8086 27.5929 15.6343 32.4216 18.9635 35.8344C22.416 39.3745 27.2289 41.2518 32.8809 41.2598H32.9247C38.7439 41.2598 43.3897 39.5336 46.7388 36.1287C50.3903 32.4138 52.2119 26.9486 52.0091 20.31L31.807 20.2782L31.7951 27.2389L41.1941 27.2508L41.1225 27.8316C40.6929 31.3557 37.841 33.3763 33.3026 33.3763H33.2787C27.1572 33.3683 23.5059 29.3112 23.5138 22.5255C23.5218 17.8042 25.3156 15.1233 26.8192 13.7073C28.4698 12.152 30.741 11.2253 32.8969 11.2253H32.9088C37.4194 11.2332 40.9555 14.8767 41.6833 18.4286C44.0421 17.0246 45.8399 15.9187 48.0673 14.5545L49.714 13.5442C47.936 9.55862 43.5647 3.36559 33.5731 3.34968H33.5372L33.5413 3.3457Z" fill="#00FFA9"/>
<path fill-rule="evenodd" clip-rule="evenodd" d="M28.6662 42.303H28.6264C22.6838 42.2951 17.6085 40.3063 13.9491 36.5593C10.4329 32.9517 8.49986 27.8645 8.50784 22.2282C8.51581 15.896 10.8307 10.6496 15.2021 7.06174C18.937 3.99509 23.9368 2.30859 29.2866 2.30859H29.3225C40.2727 2.32451 44.8549 9.36079 46.6129 13.5531L46.784 13.9628L44.3736 15.4386C42.174 16.7869 40.3921 17.8807 38.081 19.261L48.8006 19.2768V20.1718C49.0353 27.1484 47.1102 32.9159 43.236 36.8577C39.7317 40.4216 34.6922 42.307 28.6621 42.307L28.6662 42.303ZM29.2866 3.34675C24.1834 3.34675 19.4222 4.9497 15.8782 7.85729C11.7575 11.2422 9.57381 16.2102 9.5619 22.2282C9.55393 27.5939 11.3796 32.4227 14.7088 35.8354C18.1614 39.3755 22.9743 41.2529 28.6264 41.2609H28.6701C34.4894 41.2609 39.1351 39.5346 42.4843 36.1298C46.1357 32.4147 47.9574 26.9495 47.7545 20.311L27.5525 20.2792L27.5405 27.24L36.9395 27.2519L36.8679 27.8326C36.4384 31.3567 33.5865 33.3774 29.048 33.3774H29.0241C22.9026 33.3694 19.2512 29.3123 19.2592 22.5265C19.2672 17.8052 21.0611 15.1244 22.5646 13.7083C24.2153 12.1531 26.4864 11.2262 28.6422 11.2262H28.6543C33.1648 11.2342 36.7008 14.8777 37.4288 18.4296C39.7874 17.0255 41.5853 15.9198 43.8128 14.5555L45.4595 13.5452C43.6815 9.55968 39.3102 3.36663 29.3184 3.35072H29.2827L29.2866 3.34675ZM28.6463 12.2684C26.7569 12.2684 24.7602 13.0878 23.3004 14.464C21.3554 16.2938 20.3252 19.0859 20.3212 22.5345C20.3133 28.6679 23.5669 32.3352 29.0281 32.3432H29.048C32.7829 32.3432 35.1258 30.9112 35.7184 28.294L26.4825 28.2781L26.4944 19.2371L36.49 19.253C36.1797 15.9397 32.9102 12.2723 28.6582 12.2684H28.6463Z" fill="#0E0E0E"/>
<path fill-rule="evenodd" clip-rule="evenodd" d="M29.2912 3.3457C24.1879 3.3457 19.4268 4.94866 15.8829 7.85624C11.7621 11.2411 9.57834 16.2092 9.56643 22.2272C9.55846 27.5929 11.3842 32.4216 14.7135 35.8344C18.166 39.3745 22.9788 41.2518 28.6309 41.2598H28.6746C34.4939 41.2598 39.1397 39.5336 42.4888 36.1287C46.1402 32.4138 47.9619 26.9486 47.759 20.31L27.557 20.2782L27.5451 27.2389L36.9441 27.2508L36.8725 27.8316C36.4429 31.3557 33.591 33.3763 29.0525 33.3763H29.0287C22.9072 33.3683 19.2557 29.3112 19.2637 22.5255C19.2717 17.8042 21.0656 15.1233 22.5691 13.7073C24.2198 12.152 26.491 11.2253 28.6469 11.2253H28.6588C33.1693 11.2332 36.7053 14.8767 37.4333 18.4286C39.792 17.0246 41.5898 15.9187 43.8173 14.5545L45.464 13.5442C43.686 9.55862 39.3147 3.36559 29.3231 3.34968H29.2872L29.2912 3.3457Z" fill="#00FFA9"/>
<path fill-rule="evenodd" clip-rule="evenodd" d="M24.4162 42.303H24.3764C18.4338 42.2951 13.3585 40.3063 9.6991 36.5593C6.18292 32.9517 4.24986 27.8645 4.25784 22.2282C4.26581 15.896 6.58069 10.6496 10.952 7.06174C14.687 3.99509 19.6868 2.30859 25.0366 2.30859H25.0725C36.0227 2.32451 40.6049 9.36079 42.3629 13.5531L42.534 13.9628L40.1236 15.4386C37.924 16.7869 36.1421 17.8807 33.831 19.261L44.5506 19.2768V20.1718C44.7853 27.1484 42.8602 32.9159 38.986 36.8577C35.4817 40.4216 30.4422 42.307 24.4121 42.307L24.4162 42.303ZM25.0366 3.34675C19.9334 3.34675 15.1722 4.9497 11.6282 7.85729C7.50752 11.2422 5.32381 16.2102 5.3119 22.2282C5.30393 27.5939 7.12963 32.4227 10.4588 35.8354C13.9114 39.3755 18.7243 41.2529 24.3764 41.2609H24.4201C30.2394 41.2609 34.8851 39.5346 38.2343 36.1298C41.8857 32.4147 43.7074 26.9495 43.5045 20.311L23.3025 20.2792L23.2905 27.24L32.6895 27.2519L32.6179 27.8326C32.1884 31.3567 29.3365 33.3774 24.798 33.3774H24.7741C18.6526 33.3694 15.0012 29.3123 15.0092 22.5265C15.0172 17.8052 16.8111 15.1244 18.3146 13.7083C19.9653 12.1531 22.2364 11.2262 24.3923 11.2262H24.4043C28.9148 11.2342 32.4508 14.8777 33.1788 18.4296C35.5374 17.0255 37.3353 15.9198 39.5628 14.5555L41.2095 13.5452C39.4315 9.55968 35.0602 3.36663 25.0684 3.35072H25.0327L25.0366 3.34675ZM24.3963 12.2684C22.5069 12.2684 20.5102 13.0878 19.0504 14.464C17.1054 16.2938 16.0752 19.0859 16.0712 22.5345C16.0633 28.6679 19.3169 32.3352 24.7781 32.3432H24.798C28.5329 32.3432 30.8758 30.9112 31.4684 28.294L22.2325 28.2781L22.2444 19.2371L32.24 19.253C31.9297 15.9397 28.6602 12.2723 24.4082 12.2684H24.3963Z" fill="#0E0E0E"/>
<path fill-rule="evenodd" clip-rule="evenodd" d="M25.0334 3.3457C19.9301 3.3457 15.169 4.94866 11.6249 7.85624C7.50424 11.2411 5.32052 16.2092 5.30862 22.2272C5.30065 27.5929 7.12634 32.4216 10.4555 35.8344C13.9082 39.3745 18.721 41.2518 24.3731 41.2598H24.4168C30.2361 41.2598 34.8818 39.5336 38.231 36.1287C41.8824 32.4138 43.7041 26.9486 43.5012 20.31L23.2992 20.2782L23.2872 27.2389L32.6862 27.2508L32.6146 27.8316C32.1851 31.3557 29.3332 33.3763 24.7947 33.3763H24.7709C18.6493 33.3683 14.9979 29.3112 15.0059 22.5255C15.0139 17.8042 16.8078 15.1233 18.3113 13.7073C19.962 12.152 22.2332 11.2253 24.389 11.2253H24.401C28.9115 11.2332 32.4475 14.8767 33.1755 18.4286C35.5342 17.0246 37.332 15.9187 39.5595 14.5545L41.2062 13.5442C39.4282 9.55862 35.0569 3.36559 25.0652 3.34968H25.0294L25.0334 3.3457Z" fill="#00FFA9"/>
<path fill-rule="evenodd" clip-rule="evenodd" d="M20.1583 42.303H20.1186C14.1761 42.2951 9.10075 40.3063 5.44139 36.5593C1.92517 32.9517 -0.00792644 27.8645 2.44291e-05 22.2282C0.00798685 15.896 2.32294 10.6496 6.69434 7.06174C10.4293 3.99509 15.4291 2.30859 20.7789 2.30859H20.8146C31.7649 2.32451 36.3471 9.36079 38.1052 13.5531L38.2763 13.9628L35.8658 15.4386C33.6663 16.7869 31.8843 17.8807 29.5733 19.261L40.2929 19.2768V20.1718C40.5275 27.1484 38.6024 32.9159 34.7282 36.8577C31.224 40.4216 26.1844 42.307 20.1544 42.307L20.1583 42.303ZM20.7789 3.34675C15.6757 3.34675 10.9145 4.9497 7.37051 7.85729C3.2497 11.2422 1.06602 16.2102 1.05409 22.2282C1.04613 27.5939 2.87184 32.4227 6.20111 35.8354C9.65361 39.3755 14.4664 41.2529 20.1186 41.2609H20.1624C25.9815 41.2609 30.6274 39.5346 33.9764 36.1298C37.6278 32.4147 39.4496 26.9495 39.2468 20.311L19.0446 20.2792L19.0327 27.24L28.4318 27.2519L28.3601 27.8326C27.9305 31.3567 25.0786 33.3774 20.5402 33.3774H20.5164C14.3949 33.3694 10.7435 29.3123 10.7514 22.5265C10.7593 17.8052 12.5532 15.1244 14.0567 13.7083C15.7075 12.1531 17.9787 11.2262 20.1345 11.2262H20.1464C24.6571 11.2342 28.1931 14.8777 28.9209 18.4296C31.2796 17.0255 33.0776 15.9198 35.305 14.5555L36.9517 13.5452C35.1737 9.55968 30.8023 3.36663 20.8107 3.35072H20.7749L20.7789 3.34675ZM20.1385 12.2684C18.2491 12.2684 16.2524 13.0878 14.7927 14.464C12.8476 16.2938 11.8174 19.0859 11.8134 22.5345C11.8054 28.6679 15.0592 32.3352 20.5203 32.3432H20.5402C24.2751 32.3432 26.618 30.9112 27.2106 28.294L17.9746 28.2781L17.9866 19.2371L27.9822 19.253C27.672 15.9397 24.4025 12.2723 20.1504 12.2684H20.1385Z" fill="#0E0E0E"/>
<path fill-rule="evenodd" clip-rule="evenodd" d="M20.7834 3.3457C15.6802 3.3457 10.919 4.94866 7.375 7.85624C3.25419 11.2411 1.07056 16.2092 1.05862 22.2272C1.05067 27.5929 2.87637 32.4216 6.2056 35.8344C9.6581 39.3745 14.471 41.2518 20.1231 41.2598H20.1669C25.986 41.2598 30.6319 39.5336 33.9809 36.1287C37.6323 32.4138 39.4541 26.9486 39.2513 20.31L19.0491 20.2782L19.0372 27.2389L28.4362 27.2508L28.3646 27.8316C27.935 31.3557 25.0831 33.3763 20.5448 33.3763H20.5209C14.3994 33.3683 10.748 29.3112 10.756 22.5255C10.7639 17.8042 12.5577 15.1233 14.0612 13.7073C15.712 12.152 17.9832 11.2253 20.139 11.2253H20.1509C24.6616 11.2332 28.1976 14.8767 28.9254 18.4286C31.2842 17.0246 33.0821 15.9187 35.3095 14.5545L36.9562 13.5442C35.1782 9.55862 30.8068 3.36559 20.8152 3.34968H20.7794L20.7834 3.3457Z" fill="#00FFA9"/>
</svg>
