<svg width="51" height="59" viewBox="0 0 51 59" fill="none" xmlns="http://www.w3.org/2000/svg">
<path fill-rule="evenodd" clip-rule="evenodd" d="M19.8822 2.76529C20.3036 2.50046 20.5837 2.03141 20.5837 1.49693C20.5837 0.6702 19.9135 0 19.0868 0C18.26 0 17.5898 0.6702 17.5898 1.49693C17.5898 2.31859 18.2518 2.98563 19.0716 2.99379C18.6862 3.16363 18.358 3.41429 18.0869 3.74579C17.2999 5.37657 17.7054 6.59283 19.3031 7.39456C18.6843 7.91443 18.2789 8.56934 18.0869 9.35929C17.6803 11.0247 18.0545 12.4592 19.2096 13.663L19.3967 17.5924C19.6289 20.4111 20.5957 22.9372 22.297 25.1706C21.2046 25.4592 20.1442 25.8334 19.116 26.2933C14.9043 28.852 11.7857 32.3761 9.76019 36.8654C7.50338 37.5112 6.3183 39.0081 6.20498 41.3562C3.8132 40.6882 2.6905 41.6238 2.83688 44.163C3.26482 45.1798 4.04448 45.7411 5.17584 45.847C6.2744 45.6614 6.92931 45.0377 7.14056 43.9758C7.71724 44.2054 8.27859 44.4861 8.82461 44.8179L10.228 45.0985C13.351 44.654 14.7231 42.8451 14.3446 39.6722C14.9413 38.6915 15.5026 37.6934 16.0286 36.6783C17.6253 34.4582 19.59 32.6183 21.9228 31.1584C23.8647 30.3352 25.2055 30.9278 25.9458 32.936C26.7073 36.9906 26.302 40.9201 24.7295 44.7243C24.1019 45.196 23.5716 45.7574 23.139 46.4084C22.2212 49.6084 23.375 51.6355 26.6007 52.4897C25.8535 54.7362 26.6645 55.9837 29.0332 56.232L28.9961 56.2749L28.9788 56.2952C28.6503 56.5698 28.4414 56.9826 28.4414 57.4442C28.4414 58.2709 29.1116 58.9411 29.9383 58.9411C30.7651 58.9411 31.4353 58.2709 31.4353 57.4442C31.4353 56.8141 31.0459 56.2749 30.4947 56.0541C30.5047 56.0459 30.5098 56.0406 30.5089 56.0367C30.5073 56.0301 30.4887 56.0276 30.448 56.0221C30.428 56.0193 30.4025 56.0158 30.3711 56.0108C30.2904 55.9864 30.2069 55.9688 30.1211 55.9583C30.0281 55.9348 29.9158 55.9026 29.7817 55.8578C30.1639 55.5189 30.4446 55.1134 30.6237 54.6415C30.9362 53.2755 30.5307 52.2152 29.4074 51.4605C29.724 51.1127 30.0047 50.7384 30.2495 50.3378C30.6353 48.8631 30.604 47.3973 30.1559 45.9406C30.7764 43.8278 31.2442 41.676 31.5593 39.4851C32.0974 35.7607 31.5671 32.2055 29.9688 28.8194C33.9154 28.0629 37.2212 26.1917 39.886 23.2059C42.7836 23.0701 44.4054 21.5731 44.751 18.7151C45.0869 18.8583 45.4299 18.983 45.7801 19.0893C47.6581 18.6401 48.4053 17.5129 48.0212 15.7077C48.2867 15.9475 48.6384 16.0935 49.0243 16.0935C49.851 16.0935 50.5212 15.4233 50.5212 14.5965C50.5212 13.7698 49.851 13.0996 49.0243 13.0996C48.1975 13.0996 47.5273 13.7698 47.5273 14.5965C47.5273 14.7601 47.5536 14.9176 47.6021 15.065C47.352 14.8634 47.0878 14.6767 46.8093 14.505C45.1705 13.9688 44.0791 14.499 43.5347 16.0955C43.1721 15.6079 42.7043 15.2648 42.1314 15.0663C38.5412 14.4771 36.7012 16.0052 36.6114 19.6507C35.1427 21.2118 33.4274 22.4281 31.4657 23.2995C29.9072 23.9708 28.4103 23.8462 26.9749 22.9252C25.2244 21.3009 24.2576 19.2738 24.0746 16.844C23.7041 15.2814 24.0784 13.9715 25.1973 12.9145C26.5644 9.45614 25.4729 7.27311 21.9228 6.36542C22.5985 4.28279 21.9182 3.08275 19.8822 2.76529ZM31.2331 13.3353C30.1088 12.9873 28.8526 13.0388 27.8387 13.6365C26.8354 14.2281 26.1073 15.1392 25.6543 16.3701C25.2494 17.9632 25.444 19.3594 26.2385 20.5586C26.7985 21.4039 27.6909 21.9818 28.6652 22.2626C30.6748 22.8419 32.2976 22.3268 33.5335 20.7174C34.2576 19.7744 34.5973 18.5692 34.4951 17.3847C34.3155 15.3026 33.2281 13.9528 31.2331 13.3353ZM1.49693 46.4079C2.32367 46.4079 2.99387 45.7377 2.99387 44.911C2.99387 44.0843 2.32367 43.4141 1.49693 43.4141C0.6702 43.4141 0 44.0843 0 44.911C0 45.7377 0.6702 46.4079 1.49693 46.4079Z" fill="#191919"/>
</svg>
