<svg width="73" height="22" viewBox="0 0 73 22" fill="none" xmlns="http://www.w3.org/2000/svg">
<path d="M27.5107 3.53977C27.1161 3.17908 26.7876 2.85582 26.5253 2.57C24.5562 0.429698 22.2775 2.33861 21.884 4.51974C21.8783 4.5481 21.864 4.57305 21.8412 4.5946C21.8036 4.62863 21.7899 4.62069 21.8002 4.57078C22.2142 2.51442 23.3005 1.12839 25.0592 0.412684C26.9718 -0.366534 29.2557 -0.0466798 30.7321 1.40968C32.1885 2.84562 33.6432 4.28439 35.0962 5.726C35.1088 5.73961 35.1054 5.74755 35.086 5.74982C35.0814 5.74982 35.0768 5.75039 35.0723 5.75152C35.0609 5.75379 35.0517 5.75152 35.0449 5.74472C34.2751 5.08686 33.4009 4.75453 32.4223 4.74772C31.6901 4.74092 30.8963 5.11011 30.135 5.07779C28.7938 5.02164 28.3935 4.34791 27.5107 3.53977Z" fill="#0E0E0E"/>
<path d="M53.2378 19.4856C53.2241 19.4711 53.2076 19.4596 53.1893 19.4518C53.1709 19.444 53.1511 19.4401 53.131 19.4402C53.1109 19.4404 53.0911 19.4446 53.0727 19.4527C53.0542 19.4608 53.0376 19.4726 53.0239 19.4873C52.4422 20.1134 51.7939 20.7514 51.048 21.1478C47.9258 22.8117 45.618 21.7433 43.4505 19.3631C43.4094 19.3177 43.3684 19.3177 43.3273 19.3631C42.1708 20.6238 41.1478 21.5459 39.4404 21.8811C36.9992 22.3609 35.3312 20.9504 33.7487 19.3597C33.7364 19.3475 33.7218 19.3379 33.7058 19.3314C33.6898 19.325 33.6727 19.3217 33.6555 19.3218C33.6383 19.322 33.6213 19.3256 33.6056 19.3324C33.5899 19.3392 33.5757 19.349 33.564 19.3614C32.9241 20.0283 32.2621 20.7497 31.482 21.1954C28.3581 22.9818 26.2145 21.5085 24.0162 19.3018C24.0069 19.2923 23.9957 19.2847 23.9834 19.2796C23.9711 19.2744 23.9579 19.2717 23.9447 19.2717C23.9314 19.2717 23.9183 19.2744 23.9062 19.2796C23.8941 19.2847 23.8832 19.2923 23.8742 19.3018C23.0485 20.1434 22.5124 20.6589 22.2661 20.8484C20.431 22.2684 18.479 22.3677 16.4101 21.1461C15.7241 20.7395 14.9389 19.8854 14.2802 19.2304C10.6477 15.619 7.00722 12.0161 3.35873 8.42169C2.17318 7.25456 1.44439 7.16269 0.190401 8.27707C-0.045684 8.48577 -0.0622215 8.46876 0.140789 8.22603C1.21515 6.93641 2.5581 6.2553 4.16964 6.18271C6.29954 6.08574 7.83751 7.39067 9.19586 8.87255C9.20674 8.88443 9.22024 8.89364 9.2353 8.89944C9.25037 8.90525 9.26658 8.90751 9.28267 8.90602C9.29876 8.90454 9.31428 8.89936 9.32801 8.89089C9.34174 8.88243 9.35331 8.8709 9.3618 8.85724C11.011 6.15719 14.4753 5.30652 17.1424 7.22394C17.521 7.49502 18.1129 8.05363 18.9181 8.89977C18.9706 8.95535 19.0174 8.95081 19.0584 8.88616C20.5776 6.45323 23.3764 5.45624 26.0264 6.73225C26.9946 7.19842 27.8911 8.11715 28.6815 8.92699C28.7237 8.97123 28.7681 8.97293 28.8149 8.93209C29.4735 8.34683 30.1596 7.57272 30.784 7.13207C33.6889 5.08024 36.178 6.62336 38.2566 8.84703C38.2752 8.86707 38.2979 8.88291 38.3232 8.89348C38.3484 8.90406 38.3757 8.90911 38.4031 8.9083C38.4305 8.9075 38.4574 8.90085 38.482 8.88881C38.5066 8.87677 38.5284 8.85962 38.5457 8.83852C39.5722 7.58633 41.1478 6.47364 42.7217 6.24566C44.9833 5.9173 46.4409 7.31751 47.972 8.89467C47.981 8.90388 47.9917 8.91124 48.0035 8.91632C48.0153 8.9214 48.0281 8.9241 48.041 8.92426C48.0538 8.92441 48.0666 8.92203 48.0786 8.91724C48.0905 8.91246 48.1014 8.90536 48.1106 8.89637C49.0241 8.02357 49.7598 7.13717 51.0275 6.61145C53.804 5.46134 55.7423 6.86666 57.5352 8.78918C57.5495 8.80464 57.5668 8.81704 57.5861 8.82563C57.6054 8.83421 57.6262 8.83881 57.6474 8.83912C57.6685 8.83944 57.6895 8.83548 57.709 8.82748C57.7285 8.81948 57.7462 8.8076 57.761 8.79258C58.1602 8.3922 58.581 7.98274 59.0236 7.56421C61.0902 5.61446 64.2482 5.31162 66.361 7.40088C67.8528 8.87538 69.3406 10.3539 70.8244 11.8363C70.8392 11.8522 70.8364 11.8641 70.8158 11.872C70.7987 11.8777 70.7839 11.876 70.7714 11.8669C69.9399 11.2284 69.0948 10.9181 68.236 10.9363C67.5466 10.9499 66.5338 11.3242 65.8204 11.2987C64.6828 11.2578 64.0515 10.499 63.2372 9.61944C63.1927 9.57067 63.1465 9.56953 63.0986 9.61604L60.7822 11.8567C60.7389 11.8987 60.7383 11.9407 60.7805 11.9826C62.6567 13.8836 65.2057 16.4067 68.4276 19.5519C70.4207 21.4949 72.5814 19.5604 72.9355 17.415C72.9423 17.3753 72.9577 17.3714 72.9817 17.4031C72.9988 17.4247 73.0039 17.453 72.9971 17.4882C72.2153 21.3843 68.1026 23.2353 64.693 21.1002C64.3566 20.8892 63.7048 20.2756 62.7376 19.2593C62.7278 19.2492 62.716 19.2412 62.7029 19.2359C62.6898 19.2306 62.6757 19.228 62.6616 19.2283C62.6475 19.2286 62.6336 19.2318 62.6207 19.2378C62.6079 19.2437 62.5965 19.2522 62.5871 19.2627C61.6758 20.2722 60.9636 20.9255 60.4503 21.2227C57.6053 22.8679 55.2599 21.6191 53.2378 19.4856ZM60.4401 11.479L62.7034 9.25705C62.7376 9.22303 62.7393 9.18843 62.7085 9.15327C61.2835 7.49615 59.4974 7.37025 58.1032 9.17539C58.069 9.21962 58.0712 9.26102 58.11 9.29959L60.2553 11.4773C60.2673 11.4896 60.2816 11.4993 60.2974 11.5061C60.3132 11.5128 60.3302 11.5163 60.3473 11.5165C60.3645 11.5166 60.3816 11.5134 60.3975 11.507C60.4134 11.5006 60.4279 11.491 60.4401 11.479ZM33.5024 9.57861C32.2108 7.9368 30.5239 7.44001 28.921 9.02057C28.8731 9.0682 28.8731 9.11527 28.921 9.16178L31.3964 11.6304C31.4455 11.6792 31.4951 11.6792 31.5453 11.6304L33.4955 9.70111C33.5343 9.66254 33.5366 9.62171 33.5024 9.57861ZM42.8483 9.21622C41.6251 7.77007 39.9229 7.65948 38.6295 9.11074C38.6122 9.13008 38.6029 9.15526 38.6035 9.18116C38.6042 9.20707 38.6147 9.23177 38.633 9.25025L40.9339 11.5437C40.9519 11.5616 40.9732 11.5758 40.9967 11.5855C41.0202 11.5952 41.0454 11.6001 41.0708 11.6001C41.0962 11.6001 41.1214 11.5952 41.1449 11.5855C41.1684 11.5758 41.1897 11.5616 41.2077 11.5437L43.1186 9.67388C43.1653 9.62851 43.1716 9.57804 43.1374 9.52246C43.0621 9.39656 42.9082 9.28768 42.8483 9.21622ZM52.7553 9.39826C51.4859 7.89597 49.8333 7.52508 48.3775 9.10903C48.3545 9.13419 48.3422 9.16727 48.3432 9.20146C48.3441 9.23565 48.3583 9.26833 48.3826 9.29278L50.6477 11.5454C50.6978 11.5953 50.748 11.5958 50.7982 11.5471L52.7433 9.66708C52.8312 9.58201 52.8352 9.49241 52.7553 9.39826ZM35.6511 11.71C35.6553 11.7057 35.6587 11.7006 35.661 11.695C35.6633 11.6894 35.6645 11.6835 35.6644 11.6774C35.6644 11.6714 35.6632 11.6654 35.6608 11.6599C35.6585 11.6543 35.655 11.6492 35.6507 11.645L33.6905 9.71589C33.6818 9.70732 33.67 9.70254 33.6578 9.70261C33.6455 9.70267 33.6338 9.70757 33.6252 9.71623L31.5795 11.7721C31.5753 11.7764 31.5719 11.7814 31.5696 11.787C31.5673 11.7926 31.5661 11.7986 31.5662 11.8046C31.5662 11.8107 31.5674 11.8166 31.5698 11.8222C31.5721 11.8278 31.5756 11.8328 31.5799 11.837L33.5401 13.7662C33.5488 13.7747 33.5606 13.7795 33.5728 13.7794C33.5851 13.7794 33.5968 13.7745 33.6054 13.7658L35.6511 11.71ZM43.4603 9.79595C43.4518 9.78741 43.4416 9.78062 43.4304 9.77599C43.4192 9.77135 43.4072 9.76895 43.3951 9.76893C43.3829 9.76891 43.3709 9.77127 43.3597 9.77587C43.3485 9.78047 43.3383 9.78722 43.3297 9.79573L41.3181 11.7893C41.3095 11.7978 41.3027 11.8079 41.298 11.8191C41.2934 11.8302 41.291 11.8421 41.2909 11.8542C41.2909 11.8663 41.2933 11.8782 41.2979 11.8894C41.3025 11.9005 41.3093 11.9107 41.3179 11.9192L43.1292 13.7269C43.1378 13.7355 43.148 13.7423 43.1592 13.7469C43.1704 13.7515 43.1824 13.7539 43.1945 13.7539C43.2067 13.754 43.2187 13.7516 43.2299 13.747C43.2411 13.7424 43.2513 13.7357 43.2599 13.7271L45.2715 11.7336C45.2801 11.7251 45.2869 11.715 45.2916 11.7038C45.2962 11.6927 45.2986 11.6807 45.2987 11.6687C45.2987 11.6566 45.2963 11.6447 45.2917 11.6335C45.2871 11.6223 45.2803 11.6122 45.2717 11.6037L43.4603 9.79595ZM54.8903 11.6484C54.9085 11.6302 54.9188 11.6055 54.9188 11.5798C54.9188 11.5541 54.9085 11.5294 54.8903 11.5112L53.2088 9.83902C53.1905 9.82083 53.1657 9.81061 53.1398 9.81061C53.114 9.81061 53.0892 9.82083 53.0709 9.83902L51.0652 11.8337C51.0469 11.8518 51.0366 11.8765 51.0366 11.9022C51.0366 11.928 51.0469 11.9526 51.0652 11.9708L52.7467 13.643C52.765 13.6612 52.7898 13.6714 52.8156 13.6714C52.8415 13.6714 52.8663 13.6612 52.8846 13.643L54.8903 11.6484ZM19.1747 18.589L21.113 16.6613C21.1279 16.6466 21.1398 16.6291 21.1478 16.6099C21.1559 16.5906 21.16 16.5699 21.16 16.549C21.16 16.5282 21.1559 16.5075 21.1478 16.4882C21.1398 16.469 21.1279 16.4515 21.113 16.4368L15.1664 10.5229C15.0067 10.3641 14.8206 10.2347 14.6187 10.1421C14.4167 10.0495 14.203 9.99547 13.9896 9.98315C13.7763 9.97082 13.5675 10.0004 13.3752 10.0703C13.1829 10.1401 13.0108 10.2488 12.8689 10.3902C12.7267 10.5313 12.6174 10.7024 12.5472 10.8937C12.477 11.0849 12.4472 11.2926 12.4596 11.5048C12.472 11.7169 12.5263 11.9295 12.6194 12.1303C12.7125 12.3311 12.8426 12.5162 13.0023 12.6751L18.9489 18.589C18.9637 18.6038 18.9813 18.6155 19.0007 18.6236C19.0201 18.6316 19.0408 18.6357 19.0618 18.6357C19.0828 18.6357 19.1036 18.6316 19.123 18.6236C19.1424 18.6155 19.16 18.6038 19.1747 18.589ZM23.9888 13.7912L25.9938 11.7819C26.0042 11.7716 26.0124 11.7594 26.018 11.746C26.0236 11.7325 26.0265 11.7181 26.0265 11.7036C26.0265 11.6891 26.0236 11.6747 26.018 11.6612C26.0124 11.6478 26.0042 11.6356 25.9938 11.6253L24.8374 10.4837C24.5287 10.1788 24.1193 9.99976 23.6993 9.98604C23.2794 9.97232 22.8832 10.125 22.598 10.4106L22.586 10.4225C22.4447 10.5639 22.3349 10.7337 22.263 10.9222C22.191 11.1107 22.1582 11.3141 22.1664 11.5209C22.1747 11.7278 22.2238 11.9339 22.3111 12.1275C22.3984 12.3212 22.522 12.4986 22.675 12.6495L23.8314 13.7912C23.8418 13.8014 23.854 13.8096 23.8675 13.8152C23.881 13.8207 23.8955 13.8236 23.9101 13.8236C23.9248 13.8236 23.9392 13.8207 23.9527 13.8152C23.9662 13.8096 23.9785 13.8014 23.9888 13.7912ZM28.7311 14.4121C28.7352 14.408 28.7384 14.4031 28.7407 14.3977C28.7429 14.3924 28.744 14.3866 28.744 14.3808C28.744 14.375 28.7428 14.3692 28.7405 14.3639C28.7383 14.3585 28.735 14.3537 28.7308 14.3496L26.1841 11.8344C26.1799 11.8303 26.175 11.8271 26.1696 11.8249C26.1642 11.8227 26.1584 11.8216 26.1526 11.8216C26.1467 11.8216 26.1409 11.8228 26.1356 11.825C26.1302 11.8273 26.1253 11.8305 26.1212 11.8346L24.0333 13.9256C24.0292 13.9297 24.0259 13.9346 24.0237 13.94C24.0215 13.9453 24.0204 13.9511 24.0204 13.9569C24.0204 13.9627 24.0216 13.9685 24.0238 13.9738C24.0261 13.9792 24.0294 13.984 24.0335 13.9881L26.5803 16.5033C26.5845 16.5074 26.5894 16.5106 26.5948 16.5128C26.6002 16.515 26.606 16.5161 26.6118 16.5161C26.6177 16.5161 26.6234 16.5149 26.6288 16.5127C26.6342 16.5105 26.6391 16.5072 26.6432 16.5031L28.7311 14.4121ZM38.3352 14.4099C38.348 14.3971 38.3552 14.3798 38.3552 14.3618C38.3552 14.3437 38.348 14.3264 38.3352 14.3136L35.911 11.9027C35.8981 11.89 35.8807 11.8828 35.8626 11.8828C35.8444 11.8828 35.827 11.89 35.8142 11.9027L33.7916 13.9142C33.7788 13.927 33.7716 13.9443 33.7716 13.9623C33.7716 13.9804 33.7788 13.9977 33.7916 14.0105L36.2158 16.4214C36.2287 16.4341 36.2461 16.4413 36.2642 16.4413C36.2824 16.4413 36.2998 16.4341 36.3126 16.4214L38.3352 14.4099ZM47.9918 14.3504C47.9959 14.3463 47.9992 14.3414 48.0014 14.336C48.0037 14.3306 48.0048 14.3249 48.0048 14.3191C48.0048 14.3133 48.0036 14.3075 48.0014 14.3022C47.9991 14.2968 47.9958 14.2919 47.9917 14.2878L45.6359 11.9532C45.6318 11.9491 45.6269 11.9459 45.6215 11.9437C45.6161 11.9414 45.6103 11.9403 45.6045 11.9403C45.5986 11.9403 45.5928 11.9415 45.5875 11.9437C45.5821 11.9459 45.5772 11.9492 45.573 11.9533L43.5008 14.0213C43.4967 14.0255 43.4935 14.0303 43.4912 14.0357C43.489 14.0411 43.4879 14.0468 43.4879 14.0526C43.4879 14.0585 43.489 14.0642 43.4913 14.0696C43.4935 14.0749 43.4968 14.0798 43.5009 14.0839L45.8567 16.4185C45.8608 16.4226 45.8657 16.4259 45.8712 16.4281C45.8765 16.4303 45.8823 16.4314 45.8882 16.4314C45.894 16.4314 45.8998 16.4303 45.9052 16.428C45.9106 16.4258 45.9155 16.4225 45.9196 16.4184L47.9918 14.3504ZM57.596 14.3036C57.606 14.2936 57.6139 14.2818 57.6193 14.2687C57.6247 14.2557 57.6274 14.2418 57.6274 14.2277C57.6273 14.2136 57.6245 14.1997 57.619 14.1867C57.6135 14.1737 57.6056 14.1619 57.5955 14.152L55.4105 11.9941C55.3902 11.9741 55.3627 11.9629 55.3342 11.963C55.3056 11.9631 55.2782 11.9745 55.2581 11.9946L53.2522 14.0035C53.2422 14.0135 53.2343 14.0253 53.2289 14.0383C53.2236 14.0514 53.2208 14.0653 53.2209 14.0794C53.2209 14.0935 53.2238 14.1074 53.2292 14.1204C53.2347 14.1334 53.2427 14.1452 53.2527 14.1551L55.4377 16.313C55.458 16.333 55.4855 16.3442 55.5141 16.3441C55.5426 16.344 55.57 16.3326 55.5902 16.3124L57.596 14.3036ZM30.8226 16.5229C30.8296 16.5159 30.8352 16.5077 30.839 16.4986C30.8428 16.4895 30.8447 16.4798 30.8447 16.4699C30.8447 16.4601 30.8428 16.4504 30.839 16.4413C30.8352 16.4322 30.8296 16.4239 30.8226 16.417L28.9186 14.5234C28.9116 14.5165 28.9033 14.5109 28.8942 14.5072C28.885 14.5034 28.8752 14.5015 28.8654 14.5015C28.8555 14.5015 28.8457 14.5034 28.8365 14.5072C28.8274 14.5109 28.8191 14.5165 28.8121 14.5234L26.7387 16.5854C26.7317 16.5924 26.7262 16.6006 26.7224 16.6097C26.7186 16.6188 26.7167 16.6285 26.7167 16.6384C26.7167 16.6482 26.7186 16.6579 26.7224 16.667C26.7262 16.6761 26.7317 16.6843 26.7387 16.6913L28.6428 18.5849C28.6498 18.5918 28.6581 18.5973 28.6672 18.6011C28.6763 18.6049 28.6861 18.6068 28.696 18.6068C28.7059 18.6068 28.7157 18.6049 28.7248 18.6011C28.7339 18.5973 28.7422 18.5918 28.7492 18.5849L30.8226 16.5229ZM38.6067 14.5737C38.5936 14.5605 38.5758 14.5531 38.5572 14.553C38.5386 14.5528 38.5207 14.5601 38.5075 14.573L36.4659 16.5752C36.4527 16.5882 36.4452 16.6059 36.445 16.6244C36.4449 16.6429 36.4522 16.6607 36.4652 16.6739L38.3103 18.5346C38.3233 18.5477 38.3411 18.5552 38.3597 18.5553C38.3783 18.5555 38.3962 18.5482 38.4095 18.5352L40.451 16.5331C40.4643 16.5201 40.4718 16.5024 40.4719 16.4839C40.472 16.4654 40.4648 16.4476 40.4517 16.4344L38.6067 14.5737ZM50.0571 16.455C50.0664 16.4456 50.0737 16.4345 50.0787 16.4223C50.0837 16.4101 50.0862 16.397 50.0861 16.3838C50.086 16.3706 50.0833 16.3576 50.0782 16.3454C50.073 16.3333 50.0655 16.3223 50.0561 16.313L48.3605 14.6501C48.351 14.6409 48.3398 14.6336 48.3276 14.6286C48.3153 14.6237 48.3021 14.6211 48.2889 14.6212C48.2756 14.6213 48.2625 14.624 48.2503 14.6291C48.2381 14.6343 48.227 14.6417 48.2177 14.6511L46.2189 16.6669C46.2096 16.6763 46.2022 16.6874 46.1972 16.6996C46.1922 16.7118 46.1897 16.7249 46.1898 16.7381C46.1899 16.7513 46.1926 16.7643 46.1978 16.7765C46.2029 16.7886 46.2104 16.7996 46.2199 16.8089L47.9155 18.4718C47.9249 18.481 47.9361 18.4883 47.9484 18.4933C47.9607 18.4982 47.9738 18.5008 47.9871 18.5007C48.0003 18.5006 48.0134 18.4979 48.0256 18.4928C48.0378 18.4876 48.0489 18.4802 48.0582 18.4708L50.0571 16.455ZM59.2015 20.0521C60.6248 21.4438 61.5486 20.1304 62.5118 19.2185C62.523 19.2077 62.5319 19.1948 62.5381 19.1805C62.5442 19.1663 62.5474 19.1509 62.5476 19.1354C62.5478 19.1199 62.5448 19.1046 62.539 19.0902C62.5331 19.0758 62.5245 19.0628 62.5135 19.0517L58.0912 14.6537C58.0819 14.6442 58.0708 14.6365 58.0585 14.6312C58.0463 14.626 58.0331 14.6232 58.0197 14.623C58.0063 14.6228 57.9931 14.6253 57.9807 14.6303C57.9683 14.6353 57.957 14.6427 57.9475 14.652L55.9322 16.6426C55.913 16.6617 55.902 16.6874 55.9017 16.7142C55.9013 16.741 55.9117 16.7666 55.9305 16.7855C57.014 17.8914 58.1043 18.9803 59.2015 20.0521ZM21.4073 16.7294C21.34 16.6625 21.2727 16.6625 21.2054 16.7294L19.2329 18.691C19.1896 18.7341 19.189 18.7784 19.2312 18.8237C20.0797 19.7391 21.2978 21.2584 22.4748 20.4315C22.8398 20.1752 23.2783 19.7612 23.7904 19.1895C23.8059 19.1716 23.8141 19.1484 23.8131 19.1247C23.8122 19.101 23.8022 19.0786 23.7852 19.0619L21.4073 16.7294ZM28.9466 18.8714C29.619 19.6217 31.1039 21.3639 32.1834 20.3856C32.5426 20.0601 32.9515 19.6551 33.41 19.1708C33.4556 19.1221 33.4551 19.0733 33.4083 19.0245L31.133 16.709C31.1225 16.6984 31.11 16.69 31.0962 16.6842C31.0823 16.6785 31.0675 16.6755 31.0526 16.6755C31.0376 16.6755 31.0228 16.6785 31.009 16.6842C30.9952 16.69 30.9827 16.6984 30.9722 16.709L28.95 18.7404C28.9078 18.7835 28.9067 18.8271 28.9466 18.8714ZM40.8398 16.7668C40.8231 16.7504 40.8004 16.7414 40.7767 16.7417C40.753 16.742 40.7302 16.7517 40.7133 16.7685L38.6946 18.7744C38.6558 18.8141 38.6546 18.8544 38.6911 18.8952C39.1257 19.3954 39.6013 19.8565 40.1179 20.2784C41.3377 21.2788 42.2803 19.8633 43.0707 19.1538C43.0826 19.1433 43.0922 19.1306 43.0989 19.1163C43.1056 19.102 43.1094 19.0865 43.1098 19.0707C43.1103 19.0549 43.1076 19.0392 43.1017 19.0245C43.0959 19.0099 43.087 18.9965 43.0758 18.9854L40.8398 16.7668ZM49.5784 20.0947C50.9111 21.3366 51.8726 19.933 52.6989 19.1521C52.7547 19.0999 52.7553 19.0461 52.7006 18.9905L50.5724 16.8162C50.5211 16.764 50.4692 16.764 50.4167 16.8162L48.3997 18.822C48.3507 18.8708 48.3501 18.9196 48.398 18.9684C48.6284 19.202 49.0219 19.5774 49.5784 20.0947Z" fill="#0E0E0E"/>
</svg>
