<svg width="42" height="42" viewBox="0 0 42 42" fill="none" xmlns="http://www.w3.org/2000/svg">
<path d="M31.6176 22.3358C23.6762 19.7146 10.6779 19.7902 10.6779 15.3039C10.6779 12.355 15.2952 9.96567 21.0038 9.96567C26.7123 9.96567 31.3296 12.355 31.3296 15.3039V19.76C36.9321 17.8848 40.6654 14.5175 40.6654 10.6764C40.6654 4.77868 31.8601 0 20.9987 0C10.1373 0 1.33708 4.78373 1.33708 10.6815C1.33708 14.452 4.94912 17.7487 10.3849 19.6692C20.9987 23.4196 31.3246 22.3358 31.3246 26.7012C31.3246 29.65 26.7022 32.0394 20.9987 32.0394C15.2952 32.0394 10.6728 29.65 10.6728 26.7012V22.24C5.06531 24.1203 1.33203 27.4875 1.33203 31.3236C1.33203 37.2213 10.1373 42 20.9936 42C31.85 42 40.6654 37.2213 40.6654 31.3236C40.6654 27.553 37.0887 24.1404 31.6176 22.3358Z" fill="#0E0E0E"/>
</svg>
