<svg xmlns="http://www.w3.org/2000/svg" fill="none" viewBox="0 0 41 12"><path fill="#fff" d="M37.7 5.15h-2.41v-2.48a.9.9 0 0 0-.87-.88h-8.09q-.32 0-.56.2-.16.1-.3.29l-2.73 5.09-2.48-4.86a1 1 0 0 0-.31-.49.87.87 0 0 0-1.46.54l-2.59 4.8-2.57-5.06a1 1 0 0 0-.43-.42 1 1 0 0 0-.4-.1h-6.54q-.23 0-.42.11a.9.9 0 0 0-.45.78v2.48h-2.42a.87.87 0 0 0-.88.88c0 .48.39.87.88.87h2.4v2.41c0 .49.4.88.88.88.49 0 .87-.4.87-.88v-2.4h4.17c.49 0 .88-.4.88-.88a.87.87 0 0 0-.88-.88h-4.17v-1.61h5.16l3.08 6.05.08.15c.23.39.72.56 1.14.35a1 1 0 0 0 .47-.62l2.61-4.84 2.52 4.96.08.15c.23.39.72.56 1.14.34a1 1 0 0 0 .48-.61l3.2-5.94h6.73v1.61h-5.84a.9.9 0 0 0-.88.84v3.28c0 .48.4.87.88.87h6.44c.1.03.2 0 .3 0 .48 0 .87-.39.87-.87v-2.37h2.4c.5 0 .88-.39.88-.87a.86.86 0 0 0-.86-.87m-4.17 3.24h-5v-1.48h5z"/><path fill="#0E0E0E" d="M34.4 1.8q.24-.01.42.1c.28.15.46.44.46.78v2.48h2.4a.87.87 0 1 1 .01 1.75h-2.41v2.37c0 .48-.4.87-.88.87h-6.7a.87.87 0 0 1-.88-.87v-3.29c.02-.46.4-.84.87-.84h5.84v-1.61h-6.74l-3.2 5.94a.9.9 0 0 1-.84.7c-.3 0-.6-.15-.75-.43l-.08-.15-2.52-4.96-2.56 4.85q-.14.4-.53.62a.86.86 0 0 1-1.13-.34l-.07-.16-3.09-6.05h-5.15v1.62h4.17c.48 0 .87.38.87.87s-.39.87-.87.87h-4.17v2.41c0 .49-.39.88-.88.88a.87.87 0 0 1-.87-.88v-2.4h-2.45a.87.87 0 0 1-.88-.88c0-.49.39-.87.88-.87h2.4v-2.5a.9.9 0 0 1 .87-.88h6.55q.2 0 .4.1a.8.8 0 0 1 .42.42l2.6 5.08 2.58-4.84c.13-.27.2-.51.49-.65a1 1 0 0 1 .37-.08q.34 0 .59.23c.15.12.23.2.34.42l2.44 4.92 2.75-5.09a1 1 0 0 1 .29-.3 1 1 0 0 1 .56-.2zm-5.87 6.58h5v-1.48h-5zm5.87-8.39h-8.08q-.9.01-1.63.55-.48.34-.77.85l-.01.03-.01.02-1.12 2.08s-1.3-2.55-1.68-2.86a2.7 2.7 0 0 0-2.9-.38c-.7.33-1.1.95-1.41 1.67l-.84 1.57-1.03-2.02a2.7 2.7 0 0 0-1.27-1.23 3 3 0 0 0-1.16-.27h-6.54q-.67 0-1.27.32a2.7 2.7 0 0 0-1.4 2.35v.7h-.61a2.67 2.67 0 0 0 0 5.32h.61v.62a2.67 2.67 0 0 0 5.34 0v-.62h2.36q.78 0 1.4-.4l1.06 2.06q.07.18.17.35a2.67 2.67 0 0 0 3.44 1.01 3 3 0 0 0 1.5-1.51l.77-1.7.95 1.86q.08.19.18.35a2.67 2.67 0 0 0 4.76-.42c.4.97 1.36 1.66 2.48 1.66h6.71a2.63 2.63 0 0 0 2.67-2.62v-.62h.62a2.67 2.67 0 0 0 0-5.34h-.62v-.7c0-.98-.53-1.87-1.4-2.34a2.5 2.5 0 0 0-1.27-.34"/></svg>