<svg xmlns="http://www.w3.org/2000/svg" fill="none" viewBox="0 0 71 45"><path fill="#0E0E0E" fill-rule="evenodd" d="M49.94 42.3h-.04c-5.95 0-11.02-2-14.68-5.74-3.52-3.6-5.45-8.7-5.44-14.33 0-6.33 2.32-11.58 6.7-15.17 3.73-3.06 8.73-4.75 14.08-4.75h.03c10.95.01 15.53 7.05 17.3 11.24l.16.41-2.4 1.48c-2.2 1.35-3.99 2.44-6.3 3.82l10.72.02v.9c.23 6.97-1.69 12.74-5.56 16.68-3.5 3.56-8.55 5.45-14.58 5.45m.62-38.95c-5.1 0-9.87 1.6-13.41 4.5-4.12 3.4-6.3 8.36-6.32 14.38 0 5.36 1.82 10.2 5.15 13.6 3.45 3.55 8.26 5.42 13.92 5.43h.04c5.82 0 10.46-1.73 13.81-5.13 3.66-3.72 5.48-9.18 5.27-15.82l-20.2-.03-.01 6.96 9.4.01-.07.58c-.43 3.53-3.28 5.55-7.82 5.55h-.03c-6.12-.01-9.77-4.07-9.76-10.85 0-4.72 1.8-7.4 3.3-8.82a9 9 0 0 1 6.08-2.48h.01c4.51 0 8.05 3.65 8.78 7.2 2.36-1.4 4.15-2.51 6.38-3.87l1.65-1.01c-1.78-3.99-6.15-10.18-16.14-10.2zm-.64 8.92a8 8 0 0 0-5.35 2.2c-1.95 1.82-2.98 4.62-2.98 8.06 0 6.14 3.25 9.8 8.7 9.81h.03c3.73 0 6.08-1.43 6.67-4.05l-9.24-.01.01-9.04 10 .01a8.15 8.15 0 0 0-7.83-6.98z" clip-rule="evenodd"/><path fill="#00FFA9" fill-rule="evenodd" d="M50.56 3.35c-5.1 0-9.86 1.6-13.4 4.5-4.13 3.4-6.31 8.36-6.32 14.38-.01 5.36 1.81 10.2 5.14 13.6 3.46 3.54 8.27 5.42 13.92 5.43h.04c5.82 0 10.47-1.73 13.82-5.13 3.65-3.72 5.47-9.18 5.27-15.82l-20.2-.03-.02 6.96 9.4.01-.07.58c-.43 3.53-3.28 5.55-7.82 5.55h-.02c-6.12-.01-9.77-4.07-9.77-10.85.01-4.73 1.8-7.4 3.3-8.82a9 9 0 0 1 6.09-2.48c4.52 0 8.05 3.65 8.78 7.2 2.36-1.4 4.16-2.51 6.39-3.88l1.64-1c-1.77-4-6.15-10.18-16.14-10.2z" clip-rule="evenodd"/><path fill="#0E0E0E" fill-rule="evenodd" d="M45.68 42.3h-.04c-5.94 0-11.02-2-14.68-5.74-3.51-3.6-5.44-8.7-5.44-14.33.01-6.33 2.33-11.58 6.7-15.17 3.73-3.06 8.73-4.75 14.08-4.75h.04c10.95.01 15.53 7.05 17.29 11.24l.17.41-2.41 1.48c-2.2 1.35-3.98 2.44-6.3 3.82l10.73.02v.9c.23 6.97-1.7 12.74-5.57 16.68-3.5 3.56-8.54 5.45-14.57 5.45m.62-38.95c-5.1 0-9.86 1.6-13.4 4.5-4.13 3.4-6.31 8.36-6.32 14.38-.01 5.36 1.82 10.2 5.14 13.6 3.46 3.55 8.27 5.42 13.92 5.43h.05c5.82 0 10.46-1.73 13.81-5.13 3.65-3.72 5.47-9.18 5.27-15.82l-20.2-.03-.01 6.96 9.4.01-.08.58c-.43 3.53-3.28 5.55-7.82 5.55h-.02c-6.12-.01-9.77-4.07-9.77-10.85.01-4.72 1.8-7.4 3.31-8.82a9 9 0 0 1 6.08-2.48h.01c4.51 0 8.05 3.65 8.77 7.2 2.36-1.4 4.16-2.51 6.39-3.87l1.65-1.01c-1.78-3.99-6.15-10.18-16.15-10.2zm-.64 8.92c-1.89 0-3.88.82-5.34 2.2-1.95 1.82-2.98 4.62-2.98 8.06-.01 6.14 3.24 9.8 8.7 9.81h.02c3.74 0 6.08-1.43 6.67-4.05l-9.23-.01.01-9.04 10 .01a8.15 8.15 0 0 0-7.84-6.98" clip-rule="evenodd"/><path fill="#00FFA9" fill-rule="evenodd" d="M46.3 3.35c-5.1 0-9.86 1.6-13.4 4.5-4.13 3.4-6.31 8.36-6.32 14.38-.01 5.36 1.82 10.2 5.15 13.6 3.45 3.54 8.26 5.42 13.91 5.43h.05c5.82 0 10.46-1.73 13.81-5.13 3.65-3.72 5.47-9.18 5.27-15.82l-20.2-.03-.01 6.96 9.4.01-.08.58c-.43 3.53-3.28 5.55-7.82 5.55h-.02c-6.12-.01-9.77-4.07-9.76-10.85 0-4.73 1.8-7.4 3.3-8.82a9 9 0 0 1 6.08-2.48h.01c4.51 0 8.05 3.65 8.77 7.2 2.36-1.4 4.16-2.51 6.39-3.88l1.65-1c-1.78-4-6.15-10.18-16.15-10.2z" clip-rule="evenodd"/><path fill="#0E0E0E" fill-rule="evenodd" d="M41.43 42.3h-.04c-5.94 0-11.02-2-14.68-5.74-3.52-3.6-5.45-8.7-5.44-14.33 0-6.33 2.32-11.58 6.7-15.17 3.73-3.06 8.73-4.75 14.08-4.75h.03c10.95.01 15.54 7.05 17.3 11.24l.17.41-2.41 1.48c-2.2 1.35-3.99 2.44-6.3 3.82l10.72.02v.9c.24 6.97-1.69 12.74-5.56 16.68-3.5 3.56-8.55 5.45-14.58 5.45m.62-38.95c-5.1 0-9.87 1.6-13.41 4.5-4.12 3.4-6.3 8.36-6.32 14.38 0 5.36 1.82 10.2 5.15 13.6 3.45 3.55 8.27 5.42 13.92 5.43h.04c5.82 0 10.47-1.73 13.82-5.13 3.65-3.72 5.47-9.18 5.27-15.82l-20.2-.03-.02 6.96 9.4.01-.07.58c-.43 3.53-3.28 5.55-7.82 5.55h-.02c-6.13-.01-9.78-4.07-9.77-10.85 0-4.72 1.8-7.4 3.3-8.82a9 9 0 0 1 6.08-2.48h.02c4.5 0 8.04 3.65 8.77 7.2 2.36-1.4 4.16-2.51 6.38-3.87l1.65-1.01c-1.78-3.99-6.15-10.18-16.14-10.2zm-.64 8.92a8 8 0 0 0-5.35 2.2c-1.94 1.82-2.97 4.62-2.98 8.06 0 6.14 3.25 9.8 8.71 9.81h.02c3.73 0 6.08-1.43 6.67-4.05l-9.24-.01.02-9.04 10 .01a8.15 8.15 0 0 0-7.84-6.98z" clip-rule="evenodd"/><path fill="#00FFA9" fill-rule="evenodd" d="M42.05 3.35c-5.1 0-9.87 1.6-13.4 4.5-4.13 3.4-6.31 8.36-6.33 14.38 0 5.36 1.82 10.2 5.15 13.6 3.45 3.54 8.27 5.42 13.92 5.43h.04c5.82 0 10.47-1.73 13.82-5.13 3.65-3.72 5.47-9.18 5.27-15.82l-20.2-.03-.02 6.96 9.4.01-.07.58c-.43 3.53-3.28 5.55-7.82 5.55h-.02c-6.12-.01-9.78-4.07-9.77-10.85 0-4.73 1.8-7.4 3.3-8.82a9 9 0 0 1 6.08-2.48h.02c4.5 0 8.04 3.65 8.77 7.2 2.36-1.4 4.16-2.51 6.39-3.88l1.64-1c-1.78-4-6.15-10.18-16.14-10.2z" clip-rule="evenodd"/><path fill="#0E0E0E" fill-rule="evenodd" d="M37.17 42.3h-.04c-5.94 0-11.01-2-14.67-5.74-3.52-3.6-5.45-8.7-5.44-14.33 0-6.33 2.32-11.58 6.69-15.17 3.73-3.06 8.73-4.75 14.08-4.75h.04c10.95.01 15.53 7.05 17.3 11.24l.16.41-2.4 1.48c-2.2 1.35-3.99 2.44-6.3 3.82l10.72.02v.9c.23 6.97-1.7 12.74-5.57 16.68-3.5 3.56-8.54 5.45-14.57 5.45m.62-38.95c-5.1 0-9.86 1.6-13.4 4.5-4.12 3.4-6.3 8.36-6.32 14.38 0 5.36 1.82 10.2 5.15 13.6 3.45 3.55 8.26 5.42 13.91 5.43h.05c5.82 0 10.46-1.73 13.81-5.13 3.65-3.72 5.48-9.18 5.27-15.82l-20.2-.03-.01 6.96 9.4.01-.07.58c-.43 3.53-3.29 5.55-7.82 5.55h-.03c-6.12-.01-9.77-4.07-9.76-10.85 0-4.72 1.8-7.4 3.3-8.82a9 9 0 0 1 6.08-2.48h.01c4.51 0 8.05 3.65 8.78 7.2 2.36-1.4 4.15-2.51 6.38-3.87l1.65-1.01c-1.78-3.99-6.15-10.18-16.14-10.2zm-.64 8.92c-1.89 0-3.88.82-5.34 2.2-1.95 1.82-2.98 4.62-2.98 8.06 0 6.14 3.24 9.8 8.7 9.81h.03c3.73 0 6.07-1.43 6.67-4.05l-9.24-.01.01-9.04 10 .01a8.15 8.15 0 0 0-7.83-6.98z" clip-rule="evenodd"/><path fill="#00FFA9" fill-rule="evenodd" d="M37.8 3.35c-5.1 0-9.87 1.6-13.41 4.5-4.12 3.4-6.3 8.36-6.32 14.38 0 5.36 1.82 10.2 5.15 13.6 3.45 3.54 8.26 5.42 13.91 5.43h.05c5.82 0 10.46-1.73 13.81-5.13 3.65-3.72 5.48-9.18 5.27-15.82l-20.2-.03-.01 6.96 9.4.01-.07.58c-.43 3.53-3.29 5.55-7.82 5.55h-.03c-6.12-.01-9.77-4.07-9.76-10.85 0-4.73 1.8-7.4 3.3-8.82a9 9 0 0 1 6.08-2.48h.01c4.51 0 8.05 3.65 8.78 7.2 2.36-1.4 4.15-2.51 6.38-3.88l1.65-1c-1.78-4-6.15-10.18-16.14-10.2z" clip-rule="evenodd"/><path fill="#0E0E0E" fill-rule="evenodd" d="M32.92 42.3h-.04c-5.94 0-11.01-2-14.67-5.74-3.52-3.6-5.45-8.7-5.44-14.33 0-6.33 2.32-11.58 6.69-15.17 3.73-3.06 8.73-4.75 14.08-4.75h.04c10.95.01 15.53 7.05 17.3 11.24l.16.41-2.4 1.48c-2.2 1.35-3.99 2.44-6.3 3.82l10.72.02v.9c.23 6.97-1.7 12.74-5.57 16.68-3.5 3.56-8.54 5.45-14.57 5.45m.62-38.95c-5.1 0-9.86 1.6-13.4 4.5-4.12 3.4-6.3 8.36-6.32 14.38 0 5.36 1.82 10.2 5.15 13.6 3.45 3.55 8.26 5.42 13.91 5.43h.05c5.82 0 10.46-1.73 13.81-5.13 3.65-3.72 5.48-9.18 5.27-15.82l-20.2-.03-.01 6.96 9.4.01-.07.58c-.43 3.53-3.29 5.55-7.82 5.55h-.03c-6.12-.01-9.77-4.07-9.76-10.85 0-4.72 1.8-7.4 3.3-8.82a9 9 0 0 1 6.08-2.48h.01c4.51 0 8.05 3.65 8.78 7.2 2.36-1.4 4.15-2.51 6.38-3.87l1.65-1.01c-1.78-3.99-6.15-10.18-16.14-10.2zm-.64 8.92c-1.89 0-3.88.82-5.34 2.2-1.95 1.82-2.98 4.62-2.98 8.06 0 6.14 3.24 9.8 8.7 9.81h.03c3.73 0 6.07-1.43 6.67-4.05l-9.24-.01.01-9.04 10 .01a8.15 8.15 0 0 0-7.83-6.98z" clip-rule="evenodd"/><path fill="#00FFA9" fill-rule="evenodd" d="M33.54 3.35c-5.1 0-9.86 1.6-13.4 4.5-4.13 3.4-6.31 8.36-6.32 14.38-.01 5.36 1.81 10.2 5.14 13.6 3.46 3.54 8.27 5.42 13.92 5.43h.04c5.82 0 10.47-1.73 13.82-5.13 3.65-3.72 5.47-9.18 5.27-15.82l-20.2-.03-.01 6.96 9.4.01-.08.58c-.43 3.53-3.28 5.55-7.82 5.55h-.02c-6.12-.01-9.77-4.07-9.77-10.85.01-4.73 1.8-7.4 3.3-8.82a9 9 0 0 1 6.09-2.48c4.52 0 8.06 3.65 8.78 7.2 2.36-1.4 4.16-2.51 6.39-3.88l1.64-1c-1.77-4-6.15-10.18-16.14-10.2z" clip-rule="evenodd"/><path fill="#0E0E0E" fill-rule="evenodd" d="M28.67 42.3h-.04c-5.95 0-11.02-2-14.68-5.74-3.52-3.6-5.45-8.7-5.44-14.33 0-6.33 2.32-11.58 6.7-15.17 3.73-3.06 8.73-4.75 14.08-4.75h.03c10.95.01 15.53 7.05 17.3 11.24l.16.41-2.4 1.48c-2.2 1.35-3.99 2.44-6.3 3.82l10.72.02v.9c.24 6.97-1.69 12.74-5.56 16.68-3.5 3.56-8.55 5.45-14.58 5.45m.62-38.95c-5.1 0-9.87 1.6-13.41 4.5-4.12 3.4-6.3 8.36-6.32 14.38 0 5.36 1.82 10.2 5.15 13.6 3.45 3.55 8.26 5.42 13.92 5.43h.04c5.82 0 10.47-1.73 13.81-5.13 3.66-3.72 5.48-9.18 5.27-15.82l-20.2-.03v6.96l9.39.01-.07.58c-.43 3.53-3.28 5.55-7.82 5.55h-.03c-6.12-.01-9.77-4.07-9.76-10.85 0-4.72 1.8-7.4 3.3-8.82a9 9 0 0 1 6.08-2.48h.01c4.51 0 8.05 3.65 8.78 7.2 2.36-1.4 4.16-2.51 6.38-3.87l1.65-1.01c-1.78-3.99-6.15-10.18-16.14-10.2zm-.64 8.92a8 8 0 0 0-5.35 2.2c-1.94 1.82-2.97 4.62-2.98 8.06 0 6.14 3.25 9.8 8.7 9.81h.03c3.73 0 6.08-1.43 6.67-4.05l-9.24-.01.01-9.04 10 .01a8.15 8.15 0 0 0-7.83-6.98z" clip-rule="evenodd"/><path fill="#00FFA9" fill-rule="evenodd" d="M29.3 3.35c-5.11 0-9.87 1.6-13.42 4.5-4.12 3.4-6.3 8.36-6.31 14.38-.01 5.36 1.81 10.2 5.14 13.6 3.46 3.54 8.27 5.42 13.92 5.43h.04c5.82 0 10.47-1.73 13.82-5.13 3.65-3.72 5.47-9.18 5.27-15.82l-20.2-.03-.01 6.96 9.4.01-.08.58c-.43 3.53-3.28 5.55-7.82 5.55h-.02c-6.12-.01-9.77-4.07-9.77-10.85.01-4.73 1.8-7.4 3.3-8.82a9 9 0 0 1 6.09-2.48c4.52 0 8.06 3.65 8.78 7.2 2.36-1.4 4.16-2.51 6.39-3.88l1.64-1c-1.77-4-6.15-10.18-16.14-10.2z" clip-rule="evenodd"/><path fill="#0E0E0E" fill-rule="evenodd" d="M24.42 42.3h-.04c-5.95 0-11.02-2-14.68-5.74-3.52-3.6-5.45-8.7-5.44-14.33 0-6.33 2.32-11.58 6.7-15.17 3.73-3.06 8.73-4.75 14.08-4.75h.03c10.95.01 15.53 7.05 17.3 11.24l.16.41-2.4 1.48c-2.2 1.35-3.99 2.44-6.3 3.82l10.72.02v.9c.24 6.97-1.69 12.74-5.56 16.68-3.5 3.56-8.55 5.45-14.58 5.45m.62-38.95c-5.1 0-9.87 1.6-13.41 4.5-4.12 3.4-6.3 8.36-6.32 14.38 0 5.36 1.82 10.2 5.15 13.6 3.45 3.55 8.26 5.42 13.92 5.43h.04c5.82 0 10.47-1.73 13.81-5.13 3.66-3.72 5.48-9.18 5.27-15.82l-20.2-.03v6.96l9.39.01-.07.58c-.43 3.53-3.28 5.55-7.82 5.55h-.03c-6.12-.01-9.77-4.07-9.76-10.85 0-4.72 1.8-7.4 3.3-8.82a9 9 0 0 1 6.08-2.48h.01c4.51 0 8.05 3.65 8.78 7.2 2.36-1.4 4.16-2.51 6.38-3.87l1.65-1.01c-1.78-3.99-6.15-10.18-16.14-10.2zm-.64 8.92a8 8 0 0 0-5.35 2.2c-1.94 1.82-2.97 4.62-2.98 8.06 0 6.14 3.25 9.8 8.7 9.81h.03c3.73 0 6.08-1.43 6.67-4.05l-9.24-.01.01-9.04 10 .01a8.15 8.15 0 0 0-7.83-6.98z" clip-rule="evenodd"/><path fill="#00FFA9" fill-rule="evenodd" d="M25.03 3.35c-5.1 0-9.86 1.6-13.4 4.5-4.13 3.4-6.3 8.36-6.32 14.38 0 5.36 1.82 10.2 5.15 13.6 3.45 3.54 8.26 5.42 13.91 5.43h.05c5.82 0 10.46-1.73 13.81-5.13 3.65-3.72 5.47-9.18 5.27-15.82l-20.2-.03-.01 6.96 9.4.01-.08.58c-.42 3.53-3.28 5.55-7.82 5.55h-.02c-6.12-.01-9.77-4.07-9.76-10.85 0-4.73 1.8-7.4 3.3-8.82a9 9 0 0 1 6.08-2.48h.01c4.51 0 8.05 3.65 8.78 7.2 2.35-1.4 4.15-2.51 6.38-3.88l1.65-1c-1.78-4-6.15-10.18-16.14-10.2z" clip-rule="evenodd"/><path fill="#0E0E0E" fill-rule="evenodd" d="M20.16 42.3h-.04c-5.94 0-11.02-2-14.68-5.74-3.51-3.6-5.45-8.7-5.44-14.33 0-6.33 2.32-11.58 6.7-15.17 3.73-3.06 8.73-4.75 14.08-4.75h.03c10.95.01 15.54 7.05 17.3 11.24l.17.41-2.41 1.48c-2.2 1.35-3.99 2.44-6.3 3.82l10.72.02v.9c.24 6.97-1.69 12.74-5.56 16.68-3.5 3.56-8.55 5.45-14.58 5.45m.62-38.95c-5.1 0-9.87 1.6-13.4 4.5-4.13 3.4-6.31 8.36-6.33 14.38 0 5.36 1.82 10.2 5.15 13.6 3.45 3.55 8.27 5.42 13.92 5.43h.04c5.82 0 10.47-1.73 13.82-5.13 3.65-3.72 5.47-9.18 5.27-15.82l-20.2-.03-.02 6.96 9.4.01-.07.58c-.43 3.53-3.28 5.55-7.82 5.55h-.02c-6.13-.01-9.78-4.07-9.77-10.85 0-4.72 1.8-7.4 3.3-8.82a9 9 0 0 1 6.08-2.48h.02c4.5 0 8.04 3.65 8.77 7.2 2.36-1.4 4.16-2.51 6.38-3.87l1.65-1.01c-1.78-3.99-6.15-10.18-16.14-10.2zm-.64 8.92a8 8 0 0 0-5.35 2.2c-1.94 1.82-2.97 4.62-2.98 8.06 0 6.14 3.25 9.8 8.71 9.81h.02c3.74 0 6.08-1.43 6.67-4.05l-9.24-.01.02-9.04 10 .01a8.15 8.15 0 0 0-7.84-6.98z" clip-rule="evenodd"/><path fill="#00FFA9" fill-rule="evenodd" d="M20.78 3.35c-5.1 0-9.86 1.6-13.4 4.5-4.13 3.4-6.3 8.36-6.32 14.38 0 5.36 1.82 10.2 5.15 13.6 3.45 3.54 8.26 5.42 13.91 5.43h.05c5.82 0 10.46-1.73 13.81-5.13 3.65-3.72 5.47-9.18 5.27-15.82l-20.2-.03-.01 6.96 9.4.01-.08.58c-.43 3.53-3.28 5.55-7.82 5.55h-.02c-6.12-.01-9.77-4.07-9.76-10.85 0-4.73 1.8-7.4 3.3-8.82a9 9 0 0 1 6.08-2.48h.01c4.51 0 8.05 3.65 8.78 7.2 2.35-1.4 4.15-2.51 6.38-3.88l1.65-1c-1.78-4-6.15-10.18-16.14-10.2z" clip-rule="evenodd"/></svg>