<svg xmlns="http://www.w3.org/2000/svg" fill="none" viewBox="0 0 73 22"><path fill="#0E0E0E" d="M27.51 3.54q-.6-.54-.98-.97c-1.97-2.14-4.25-.23-4.65 1.95q0 .04-.04.07-.06.06-.04-.02a5.3 5.3 0 0 1 3.26-4.16 5.3 5.3 0 0 1 5.67 1l4.36 4.34h-.05a4 4 0 0 0-2.62-1c-.73 0-1.52.36-2.28.33-1.35-.06-1.75-.73-2.63-1.54"/><path fill="#0E0E0E" d="M53.24 19.49a.14.14 0 0 0-.17-.04l-.05.04a8 8 0 0 1-1.97 1.66c-3.12 1.66-5.43.6-7.6-1.79q-.06-.06-.12 0c-1.16 1.26-2.18 2.19-3.89 2.52-2.44.48-4.1-.93-5.7-2.52a.1.1 0 0 0-.13-.03l-.05.03c-.64.67-1.3 1.39-2.08 1.84-3.12 1.78-5.27.3-7.46-1.9a.1.1 0 0 0-.15 0q-1.23 1.26-1.6 1.55-2.77 2.13-5.86.3c-.69-.41-1.47-1.26-2.13-1.92q-5.44-5.41-10.92-10.8c-1.19-1.18-1.92-1.27-3.17-.15q-.35.3-.05-.05a5.4 5.4 0 0 1 4.03-2.05c2.13-.1 3.67 1.21 5.03 2.7a.1.1 0 0 0 .16-.02 5.34 5.34 0 0 1 7.78-1.64q.57.41 1.78 1.68.08.09.14-.01c1.52-2.44 4.32-3.43 6.97-2.16.96.47 1.86 1.39 2.65 2.2q.07.06.13 0c.66-.58 1.35-1.36 1.97-1.8 2.9-2.05 5.4-.5 7.48 1.72a.2.2 0 0 0 .29-.01 7.2 7.2 0 0 1 4.17-2.6c2.26-.32 3.72 1.08 5.25 2.65a.1.1 0 0 0 .14 0c.91-.87 1.65-1.75 2.92-2.28 2.77-1.15 4.71.26 6.5 2.18a.16.16 0 0 0 .23 0l1.26-1.23c2.07-1.95 5.23-2.25 7.34-.16q2.25 2.21 4.46 4.44.03.01 0 .03h-.05a4 4 0 0 0-2.53-.93c-.7.01-1.7.38-2.42.36-1.14-.04-1.77-.8-2.58-1.68q-.08-.08-.14 0l-2.32 2.24q-.06.06 0 .12a608 608 0 0 0 7.65 7.57c2 1.94 4.15.01 4.5-2.14q.02-.05.05 0 .02.02.02.08a5.4 5.4 0 0 1-8.3 3.61 14 14 0 0 1-2-1.86h-.08l-.03.02a11 11 0 0 1-2.14 1.96c-2.84 1.65-5.19.4-7.21-1.73m7.2-8.01 2.26-2.22q.06-.06 0-.1c-1.42-1.66-3.2-1.79-4.6.02q-.05.06.01.12l2.15 2.18a.13.13 0 0 0 .18 0m-26.94-1.9c-1.29-1.64-2.98-2.14-4.58-.56q-.07.08 0 .14l2.48 2.47q.08.08.15 0l1.95-1.93q.05-.06 0-.12m9.35-.36c-1.22-1.45-2.93-1.56-4.22-.1a.1.1 0 0 0 0 .13l2.3 2.3a.2.2 0 0 0 .28 0l1.9-1.88q.08-.07.03-.15c-.08-.12-.23-.23-.3-.3m9.9.18c-1.26-1.5-2.92-1.87-4.37-.3a.1.1 0 0 0-.04.1q0 .06.04.1l2.27 2.25q.08.08.15 0l1.94-1.88q.15-.13.02-.27m-17.1 2.31.01-.03v-.04l-1.97-1.92h-.06l-2.05 2.05-.01.03.01.04 1.96 1.93h.07zm7.81-1.91a.1.1 0 0 0-.1-.02l-.03.02-2.01 1.99a.1.1 0 0 0 0 .13l1.8 1.8a.1.1 0 0 0 .11.03l.03-.02 2.01-2a.1.1 0 0 0 0-.13zm11.43 1.85a.1.1 0 0 0 0-.14l-1.68-1.67a.1.1 0 0 0-.14 0l-2 2a.1.1 0 0 0 0 .13l1.68 1.67a.1.1 0 0 0 .13 0zm-35.72 6.94 1.94-1.93a.16.16 0 0 0 0-.22l-5.94-5.92a2 2 0 0 0-1.18-.54q-.32 0-.61.09a1.4 1.4 0 0 0-.92 1.43q.02.33.16.63t.38.55l5.95 5.9a.16.16 0 0 0 .22 0m4.82-4.8 2-2a.1.1 0 0 0 0-.16l-1.15-1.15c-.31-.3-.72-.48-1.14-.5-.42 0-.82.14-1.1.43l-.01.01a1.4 1.4 0 0 0-.42 1.1 1.6 1.6 0 0 0 .5 1.13l1.16 1.14.08.03zm4.74.62.01-.03v-.03l-2.56-2.52h-.06l-2.09 2.1a.04.04 0 0 0 0 .06l2.55 2.51h.06zm9.6 0a.1.1 0 0 0 0-.1l-2.42-2.4a.1.1 0 0 0-.1 0l-2.02 2a.1.1 0 0 0 0 .1l2.43 2.41a.1.1 0 0 0 .1 0zm9.66-.06.01-.05v-.01l-2.36-2.34h-.07l-2.07 2.07v.06l2.36 2.34.03.01.03-.01zm9.6-.05a.1.1 0 0 0 0-.15l-2.18-2.16a.1.1 0 0 0-.15 0l-2 2.01a.1.1 0 0 0-.03.12l.02.04 2.19 2.15a.1.1 0 0 0 .15 0zm-26.77 2.22.02-.05-.02-.05-1.9-1.9a.1.1 0 0 0-.1 0l-2.08 2.07-.02.08.02.02 1.9 1.9.06.02.05-.03zm7.79-1.95a.1.1 0 0 0-.1 0l-2.04 2a.1.1 0 0 0 0 .1l1.84 1.86a.1.1 0 0 0 .1 0l2.04-2a.1.1 0 0 0 0-.1zm11.45 1.88a.1.1 0 0 0 0-.14l-1.7-1.66-.07-.03-.07.03-2 2.02-.03.07.03.07 1.7 1.66a.1.1 0 0 0 .14 0zm9.14 3.6c1.42 1.4 2.35.08 3.31-.83a.1.1 0 0 0 .03-.13l-.03-.04-4.42-4.4-.07-.03-.07.03-2.02 2-.03.06q0 .05.03.08 1.62 1.65 3.27 3.26m-37.8-3.32q-.1-.1-.2 0l-1.97 1.96q-.06.07 0 .13c.85.92 2.07 2.44 3.24 1.61a8 8 0 0 0 1.34-1.3l-.02-.07zm7.55 2.14c.67.75 2.15 2.5 3.23 1.52a23 23 0 0 0 1.23-1.22q.07-.08 0-.15l-2.28-2.31a.1.1 0 0 0-.16 0l-2.02 2.03q-.06.06 0 .13m11.89-2.1-.06-.03-.07.03-2.02 2q-.05.06 0 .13.65.75 1.43 1.38c1.22 1 2.16-.42 2.95-1.13a.1.1 0 0 0 0-.16zm8.74 3.32c1.33 1.25 2.3-.16 3.12-.94q.08-.07 0-.16l-2.13-2.17q-.08-.09-.15 0l-2.02 2q-.07.08 0 .15z"/></svg>