<svg xmlns="http://www.w3.org/2000/svg" fill="none" viewBox="0 0 161 37"><path fill="#ABABAB" d="M3.3 7.93a18.3 18.3 0 0 0 .99 22.28v-16.2c0-1.13 0-2.16-.21-3.08-.1-.88-.4-1.85-.79-3m10.9 3.41c-.94 0-2 .1-3.26.51-.42.21-.95.41-1.48.72v11.7a5.5 5.5 0 0 0 4.22 1.85c2.11 0 3.8-.61 4.86-1.84 1.15-1.34 1.8-3.08 1.8-5.45 0-2.36-.64-4.2-1.7-5.54a5.4 5.4 0 0 0-4.43-1.95m128.05 24.51h-73.4v-.02c-8.34-1.09-14.79-8.43-14.79-17.33s6.45-16.23 14.8-17.32v-.02h73.4c9.27 0 16.8 7.78 16.8 17.34 0 9.57-7.53 17.35-16.8 17.35m-132.8-24.4 3.48-3.4.63-.3c.74-.31 1.7-.41 2.85-.41q2.4 0 4.2 1.03v-2.37c0-1.44-.1-2.57-.31-3.5a9 9 0 0 0-.74-2.5h-1.16a18.4 18.4 0 0 0-15 7.75h6.05zm132.28-11.45h-115.44q-.22.84-.4 1.79c-.1 1.13-.2 2.77-.2 4.83v4.83l3.9-3.7c1.27-.31 2.32-.41 3.27-.41 2.32 0 4.01.5 5.28 1.74 1.16 1.23 1.8 2.98 1.8 5.34v9.44a10 10 0 0 0 2.68 1.96c.95.41 2 .72 2.96.72 1.06 0 1.9-.31 2.53-.82q.95-.62.95-1.85c0-.51-.21-1.13-.74-1.75a22 22 0 0 0-3.06-2.16c-1.8-1.23-3.16-2.36-3.9-3.38a5 5 0 0 1-1.17-3.19c0-1.75.85-3.18 2.54-4.41 1.69-1.13 3.7-1.65 6.22-1.65.95 0 1.8 0 2.43.1.64.21 1.48.42 2.32.72v4.11a15 15 0 0 0-2.21-1.54 7 7 0 0 0-2.54-.4q-1.42 0-2.53.6a2 2 0 0 0-.95 1.65c0 .72.21 1.23.64 1.75.42.61 1.26 1.24 2.53 2.05 2.1 1.35 3.6 2.47 4.44 3.5a5.7 5.7 0 0 1 1.16 3.28q0 2.78-2.22 4.62a9.7 9.7 0 0 1-5.8 1.75c-1.27 0-2.33 0-3.28-.2a21 21 0 0 1-2.16-.4l.1.19h-7.17a6 6 0 0 0 .85-2.36c.2-.93.31-2.26.31-3.9v-7.91c0-1.24-.42-2.16-1.06-2.78-.73-.61-1.8-.82-3.16-.82-.95 0-2.22.2-3.8.82l-1.16.51v10.17c0 1.64.1 2.98.2 3.8.22.92.54 1.75.85 2.47h-7.28v-.02q-1.43.43-3.14.43a11 11 0 0 1-6.87-2.16v2.26c0 1.13 0 2.16.22 3.08q.12.99.51 2.19a18 18 0 0 0 8.23 1.95h123.33a18.44 18.44 0 0 0 18.41-18.42 18.44 18.44 0 0 0-18.42-18.42"/><path fill="#ABABAB" d="M106.94 16.92q.72.16 1.75.55l.25-.88.25-.89h-6l-.32.94-.31.93q.82-.44 2.1-.63l.45-.05v4.47q0 .9-.08 1.42t-.3.92h2.35a3 3 0 0 1-.3-.93q-.07-.51-.07-1.4v-4.5zm15 4.44v-3.31q0-.94.08-1.45.08-.52.27-.9h-2.28q.19.4.27.9.08.52.08 1.45v.95h-2.8v-.95a8 8 0 0 1 .33-2.34h-2.28q.2.66.27 1.18t.07 1.16v3.3q0 .95-.07 1.47-.07.5-.27.88h2.28a3 3 0 0 1-.26-.9q-.08-.51-.08-1.44v-1.26h2.8v1.26q0 .94-.07 1.46a3 3 0 0 1-.26.88h2.28a3 3 0 0 1-.27-.9q-.08-.51-.08-1.44m5.96 1.23h-2.72q.18-.6.32-1.45.3-1.89.36-4.33h2.04zm2.58 0h-.99v-4.55a8 8 0 0 1 .34-2.34h-5.8q.2.68.25 1.2.06.51.01 1.14-.12 1.66-.38 3.06-.18.9-.38 1.48h-.93q.06.17.1.57a7 7 0 0 1-.1 2.3h1.98a5 5 0 0 1-.15-1.07v-.69h4.21q.03.33 0 .7-.03.66-.14 1.06h1.98a7 7 0 0 1 0-2.87m14.86-6.88-.31.94-.32.92q.83-.44 2.1-.62l.45-.05v4.47q0 .9-.08 1.42t-.3.92h2.36a3 3 0 0 1-.3-.93q-.08-.51-.08-1.41v-4.49l.24.05q.72.16 1.75.55l.25-.88.26-.89zm-69.14 6.9h-1.05a1.32 1.32 0 0 1 0-2.63h1.05zm1.6-1.25v-3.13q0-1.35-.65-2.02-.66-.68-1.94-.68a5 5 0 0 0-1.81.38l-.44 1.54q.5-.35.9-.5.42-.15.85-.15.68 0 1.1.39.4.38.4 1.04v.72l-2.36.97q-.75.32-1.2.86-.44.55-.44 1.16 0 .93.63 1.43t1.8.5l.33-.01 1.24-.93v.77h1.88a3 3 0 0 1-.22-.83q-.07-.5-.07-1.51m5.77.53a1.8 1.8 0 0 1-1.53.72q-.8 0-1.34-.71v-4.4q.26-.15.48-.24.57-.23 1-.23.9 0 1.4.76.52.77.52 2.07t-.53 2.03m-.67-6.35q-.53 0-.9.17l-.2.1-1.1 1.29v-1.39h-1.93q.19.66.27 1.18.07.51.07 1.16v5.85a8 8 0 0 1-.34 2.34h2.28q-.2-.67-.27-1.19a8 8 0 0 1-.08-1.15v-.82q.93.8 2.16.8 1.4 0 2.14-1.06t.74-3.02c0-1.3-.26-2.29-.79-3.08a2.4 2.4 0 0 0-2.06-1.18m12.43 1.11q.1-.52.4-.94h-2.1q0 .22-.2.58-.2.38-.52.75l-1.9 2.33-2.15-2.6a2 2 0 0 1-.35-.54q-.14-.28-.14-.52h-2.14l.55.65v5a8 8 0 0 1-.34 2.35h2.28a10 10 0 0 1-.27-1.18 9 9 0 0 1-.08-1.16v-3.09l2.63 3.18 2.62-3.18v3.09a8 8 0 0 1-.34 2.34h2.28a8 8 0 0 1-.34-2.34v-3.31q0-.9.1-1.41m4.97 5.99q-1.12 0-1.77-.82a3.4 3.4 0 0 1-.66-2.2q0-1.4.62-2.17.62-.8 1.68-.8.53 0 .96.22.44.21.88.69l.08-1.85-.97-.14q-.34-.03-.82-.03-1.76 0-2.93 1.25a4.5 4.5 0 0 0-1.17 3.16q0 1.7 1.06 2.81 1.05 1.12 2.64 1.12a6 6 0 0 0 1.67-.23l.63-1.53q-.7.29-1.11.4-.4.1-.8.11m12.52-.02h-1.05a1.31 1.31 0 1 1 0-2.63h1.05zm1.6-1.25v-3.13q0-1.34-.65-2.02-.66-.67-1.95-.67a5 5 0 0 0-1.8.38l-.45 1.53q.5-.35.9-.5.42-.15.86-.14.67 0 1.09.38.4.39.4 1.04v.73l-2.35.97q-.75.31-1.2.86-.45.54-.45 1.16 0 .93.64 1.43.63.5 1.8.5l.32-.02 1.24-.92v.76h1.89q-.16-.3-.22-.82-.07-.51-.07-1.52m20.47 1.25h-1.05a1.32 1.32 0 1 1 0-2.63h1.05zm1.6-1.25v-3.13q0-1.34-.65-2.02t-1.95-.67a5 5 0 0 0-1.8.38l-.45 1.53q.5-.35.9-.5t.86-.14q.67 0 1.09.38.4.39.4 1.04v.73l-2.35.97a3 3 0 0 0-1.2.86q-.45.54-.45 1.16 0 .93.63 1.43.65.5 1.8.5l.33-.02 1.24-.92v.76h1.88a3 3 0 0 1-.22-.82q-.06-.51-.06-1.52m5.79.53a1.8 1.8 0 0 1-1.53.72q-.8 0-1.35-.7v-4.4q.25-.15.5-.25.55-.22.99-.22.89 0 1.4.76.52.76.52 2.06 0 1.31-.53 2.04m-.67-6.36q-.53 0-.91.17l-.2.1-1.1 1.3v-1.4h-1.92q.18.66.26 1.18.07.51.07 1.16v5.85q0 .66-.07 1.17t-.26 1.17h2.28a9 9 0 0 1-.35-2.33v-.83q.93.8 2.17.8 1.38 0 2.13-1.06.75-1.05.75-3.01 0-1.93-.8-3.08-.78-1.2-2.05-1.19m-72.4 4.88q-.9.77-2.38.87l-.02-.91v-4.85l.03-.92q1.47.1 2.36.88a3.1 3.1 0 0 1 1.02 2.47 3.1 3.1 0 0 1-1.01 2.46m-4.15-.04-.02.91a4 4 0 0 1-2.36-.87 3 3 0 0 1-1.02-2.47 3.1 3.1 0 0 1 1.01-2.47 4 4 0 0 1 2.37-.88l.02.93zm5.55-5.81a6.2 6.2 0 0 0-3.66-1.22q.08-.57.26-1.16h-2.55q.16.61.26 1.16a6.2 6.2 0 0 0-3.64 1.2 4.1 4.1 0 0 0-1.54 3.4q0 2.17 1.53 3.4 1.35 1.07 3.65 1.2-.1.56-.26 1.16h2.55q-.17-.6-.26-1.16a6.2 6.2 0 0 0 3.65-1.2 4.1 4.1 0 0 0 1.52-3.4q0-2.16-1.52-3.38"/></svg>