<svg xmlns="http://www.w3.org/2000/svg" fill="none" viewBox="0 0 155 36"><path fill="#B5B5B5" d="M44.74 0h-4.87v28.83h4.87zm-33.04 15.8c-1.96-2.22-3.37-3.45-5.3-5.29-.62-.64-.9-1.08-.9-2.12v-3.2a.86.86 0 0 1 1.08-.83h.01c.36.1.63.44.63.84v5.2h5.43v-5.14c0-3.82-3.04-5.18-6.36-5.18-3.31 0-6.3 1.42-6.29 5.2v4.03c0 1.34.3 2.05.77 2.89 1.45 2.29 4.39 4.35 5.68 5.87.7.8.77 1.45.77 2.1v4.09q0 .14-.05.27a1 1 0 0 1-.3.43 1 1 0 0 1-.27.14.86.86 0 0 1-1.1-.65l-.02-.17v-.01l-.01-.58v-5.62h-5.42v6.09c0 3.82 3.03 5.23 6.35 5.23s6.36-1.41 6.36-5.42v-4.67c0-1.89-.35-2.7-1.05-3.49m13.85-1.97v-3.09c0-3.45-2.68-5.17-5.73-5.17s-5.7 1.72-5.7 5.17v13.17c0 3.46 2.61 5.19 5.7 5.19 3.08 0 5.73-1.73 5.73-5.19v-4.2h-4.87v4.78c0 .43-.32.77-.73.82h-.12a.7.7 0 0 1-.5-.19.8.8 0 0 1-.3-.64v-.08l-.02-.29v-13.96a.83.83 0 0 1 1.66 0v.13l.02.27v3.27h4.88zm9.53-8.26c-1.31 0-2.96.89-3.15 2.3h-.19v-7.88h-4.87v28.83h4.87v-18.23c0-.35.22-.65.53-.77l.04-.01h.07l.2-.04c.45 0 .82.38.82.84v.18l.01.2v17.84h4.88v-18.21c0-2.65-.12-5.03-3.23-5.03m17.79.26v18.22a.83.83 0 0 1-1.2.75.8.8 0 0 1-.47-.75v-18.22h-4.88v19.13c0 2.42.88 4.11 3.42 4.11 1.46 0 3.11-1.29 3.11-2.86h.08l-.05 2.58h4.88v-22.96zm21.21-.28c-1.97 0-2.51.85-3.36 2.38-.58-1.85-1.42-2.38-3.15-2.38-1.97 0-2.51.8-3.29 2.34h-.07v-2.05h-4.88v22.96h4.88v-18.2c0-.48.39-.86.87-.86s.87.38.87.86v18.2h4.88v-18.2c0-.48.39-.86.87-.86s.87.38.87.86v18.2h4.88v-18.98c0-1.73-.31-4.27-3.39-4.27m12.9 0c-1.46 0-2.66.97-3.07 2.3h-.07v-7.88h-4.88v28.82h4.88v-2.42h.07c.41 1.62 1.6 2.7 3.07 2.7 3.03 0 3.41-2.57 3.41-5.15v-13.33c0-2.58-.38-5.04-3.41-5.04m-1.46 7.02v11.48c0 .46-.38.84-.84.84h-.03a1 1 0 0 1-.4-.12.8.8 0 0 1-.41-.72v-13.48a.84.84 0 1 1 1.67 0zm17.79-1.84c0-3.45-2.69-5.18-5.73-5.18s-5.7 1.72-5.7 5.18v13.16c0 3.46 2.6 5.2 5.7 5.2 3.09 0 5.73-1.73 5.73-5.2v-4.2h-4.88v4.79c0 .46-.37.83-.84.83a.83.83 0 0 1-.83-.83v-6.39h6.56zm-4.88 3.93h-1.68v-4.5c0-.46.37-.84.83-.84s.84.38.84.84zm14.79-9.11c-1.69 0-2.74.85-3.44 2.26h-.08v-1.97h-4.88v22.96h4.88v-18.23a.84.84 0 0 1 .66-.81h.04v-.01l.13-.02c.47 0 .84.38.84.84v7.64h4.88v-8.63c0-2.5-.62-4.03-3.04-4.03m28.52 5.18c0-3.45-2.69-5.18-5.73-5.18s-5.7 1.74-5.7 5.18v13.16c0 3.46 2.6 5.2 5.7 5.2 3.09 0 5.73-1.73 5.73-5.2v-4.2h-4.88v4.78a.84.84 0 0 1-1.69 0v-6.38h6.56zm-4.88 1.43v2.5h-1.68v-4.5a.84.84 0 1 1 1.68 0zm14.61-6.61c-1.69 0-2.74.85-3.45 2.26h-.08v-1.97h-4.88v22.96h4.88v-18.23a.84.84 0 0 1 1.67 0v7.64h4.88v-8.63c0-2.5-.61-4.03-3.03-4.03m-27.36.29v2.14h-.18c-.56-1.3-1.84-2.43-3.3-2.43-2.23 0-3.08 1.9-3.08 4.12v13.84c0 2.2.85 3.88 3.08 3.88 1.46 0 2.74-.93 3.3-2.2h.18v5.51a.83.83 0 0 1-1.67 0v-2.09h-4.87v1.27c0 3.78 2.34 5.2 5.74 5.2s5.7-1.42 5.7-5.2v-24.04zm0 16.72c0 .46-.38.84-.84.84a.84.84 0 0 1-.84-.84v-12a.83.83 0 0 1 1.68 0z"/></svg>