<svg xmlns="http://www.w3.org/2000/svg" fill="none" viewBox="0 0 163 52"><path fill="#AEAFB0" d="M10.62 44.35c-6.88 0-10.62-5.12-10.62-11.53 0-6.48 4.4-11.8 11.63-11.8 1.92 0 3.58.27 5.03 1.04v4.18a9 9 0 0 0-4.87-1.4c-4.9 0-6.72 3.74-6.72 7.66 0 4.37 2.28 7.83 6.27 7.83 1.77 0 3.18-.5 4.88-1.44l1.22 3.39a12 12 0 0 1-6.82 2.07m77.41 0c-5.09 0-7.7-3.85-7.7-8.45 0-5.15 3.46-8.56 8.08-8.56 2.04 0 3.11.42 3.96.94v3.7a5 5 0 0 0-3.3-1.14c-2.6 0-4.29 1.98-4.29 4.83 0 2.56 1.3 5.06 4.23 5.06.81 0 1.9-.37 3.06-.98l1.09 3.05a10.3 10.3 0 0 1-5.13 1.55m14.17-12.99v12.67h-4.53v-12.67h-4.4v-3.7h13.9l-.98 3.7zm21.89-1.78c0 5.7-.22 8.68-1.23 10.04a3.3 3.3 0 0 1-2.1 1.27l1.25 3.46a5.8 5.8 0 0 0 3.74-1.62c1.45-1.46 1.92-3.3 2.14-5.25.19-1.65.31-3.6.31-5.31v-.81h3.54v12.67h4.53v-16.36h-12.18zm-51.32-2.24c-1.76 0-3.11.88-4.28 1.82l-.5-1.5h-3.8v24.34l4.52-1.43v-6.9a6.3 6.3 0 0 0 3.05.68c4.69 0 7.51-4.11 7.51-8.97 0-5.18-2.86-8.04-6.5-8.04m-2.1 13.64a3.3 3.3 0 0 1-1.96-.64v-7.75c.54-.84 1.95-1.84 3.15-1.84 1.82 0 2.89 1.2 2.89 4.57 0 2.78-1 5.66-4.09 5.66m43-13.64c-2.14 0-4.2.35-6.38 1.8l1.37 2.82a8 8 0 0 1 4.05-1.1c1.57 0 2.97.71 2.97 2.43v.28l-2.75.1c-4 .15-6.7 1.94-6.7 5.38 0 3.24 2.26 5.3 5.27 5.3 2.04 0 3.44-.79 4.48-1.75l.7 1.43h3.54v-10.63c0-4.3-2.34-6.06-6.55-6.06m2 12.64a4.2 4.2 0 0 1-2.53.76c-1.54 0-2.4-.8-2.4-2.03q-.02-1.88 2.87-2l2.07-.07zm29.4-7h-2.33v-6.02l-4.53 1.25v15.82h5.78c4.21 0 8.14-1.17 8.14-5.67 0-3.82-3.17-5.38-7.07-5.38m-.76 7.82h-1.57v-4.56h1.5c1.6 0 3.37.25 3.37 2.2 0 1.9-1.51 2.36-3.3 2.36m-100.46-5.68v-.13c1.48-.32 2.7-1.33 2.7-3.47 0-2.55-2.07-3.48-4.12-3.76-.62-.09-2-.1-2.76-.1h-6.47v16.37h5.44c.6 0 1.5 0 2.2-.02 2.85-.14 6.38-1.2 6.38-5 0-2.34-1.23-3.5-3.37-3.89m-6.03-4.34h1.85c1.86 0 2.55.59 2.55 1.6 0 1.26-1.13 1.64-3.02 1.64h-1.38zm1.76 10.15h-1.86v-4.02h1.64c2.17 0 3.33.52 3.33 1.98 0 1.55-1.54 2.04-3.11 2.04m-7.87-5.23c0-5.05-3.01-8.36-7.35-8.36-4.75 0-7.42 3.96-7.42 8.56 0 4.3 2.33 8.45 7.98 8.45 1.92 0 4.06-.45 6.26-1.88l-1-2.94a9 9 0 0 1-4.5 1.16c-2.1 0-4.12-1.36-4.22-3.56h10.25zm-10.34-1.78c0-1.49 1.04-3.17 2.86-3.17 1.92 0 2.77 1.62 2.86 3.17zm41.52 1.78c0-5.05-3.02-8.36-7.35-8.36-4.75 0-7.42 3.96-7.42 8.56 0 4.3 2.33 8.45 7.98 8.45 1.92 0 4.06-.45 6.26-1.88l-1.01-2.94a9 9 0 0 1-4.5 1.16c-2.1 0-4.1-1.36-4.2-3.56h10.24zm-10.34-1.78c0-1.49 1.04-3.17 2.86-3.17 1.92 0 2.77 1.62 2.86 3.17zm107.66-17.81a3 3 0 0 1-.8.42c-.89.3-2 .02-2.98-.4q-1.06-.45-2.23-1.18a28 28 0 0 0 1.9-8.8 16 16 0 0 0-.11-2.63c-.14-1.1-.47-2.21-1.16-2.87q-.34-.3-.79-.51 2.13-.22 3.79-.09c1.16.1 2.35.4 3.05 1.1s1 1.93 1.12 3.13q.17 1.71-.01 3.9-.19 2.17-.85 4.84-.43 1.67-.93 3.1m-17.11-.9q-.05-.5.04-.92c.2-.95.98-1.8 1.83-2.48q.9-.71 2.11-1.4a27 27 0 0 0 6.44 6.1q1.18.75 2.27 1.22c.99.42 2.09.69 2.99.4q.43-.15.82-.45a22 22 0 0 1-1.82 3.42c-.67 1-1.51 1.9-2.45 2.17-.93.27-2.11-.06-3.18-.55a20 20 0 0 1-3.28-1.97 34 34 0 0 1-5.77-5.55m9.3-14.83q.42.2.74.5c.7.65 1.02 1.77 1.16 2.87q.16 1.17.12 2.58-1.6.22-3.48.75a23 23 0 0 0-4.86 1.95q-1.23.68-2.15 1.42c-.85.67-1.63 1.52-1.83 2.47q-.1.45-.04.96a22 22 0 0 1-1.97-3.34c-.5-1.1-.84-2.3-.6-3.27s1.12-1.86 2.06-2.56q1.35-1.03 3.3-1.95 1.9-.91 4.48-1.66c1.07-.3 2.12-.55 3.06-.72"/></svg>