<svg xmlns="http://www.w3.org/2000/svg" fill="none" viewBox="0 0 188 30"><path fill="#0E0E0E" d="M13.15 23.34q-3.67 0-6.28-1.15a9 9 0 0 1-3.94-3.2 8.4 8.4 0 0 1-1.3-4.6q0-2.57 1.3-4.59a9 9 0 0 1 3.94-3.2 15 15 0 0 1 6.28-1.18q3.67 0 6.28 1.18a8.6 8.6 0 0 1 3.91 3.2 8 8 0 0 1 1.33 4.58q0 2.56-1.33 4.6a9 9 0 0 1-3.91 3.2 15 15 0 0 1-6.28 1.16m0-2.78q2.5 0 4.28-.81a6 6 0 0 0 2.71-2.22q.94-1.4.94-3.15 0-1.74-.94-3.15a6 6 0 0 0-2.7-2.21 10 10 0 0 0-4.3-.82q-2.5 0-4.3.82a5.7 5.7 0 0 0-3.62 5.37 5.7 5.7 0 0 0 3.62 5.36q1.8.81 4.3.81m14.4 2.44v-13.74h3.44v2.32h.17a5.6 5.6 0 0 1 2.07-1.8 7 7 0 0 1 3.35-.81q2.75 0 4.26 1.42 1.5 1.44 1.5 4v8.61h-3.45v-8.05q0-1.6-.93-2.49-.94-.88-2.69-.88-1.53 0-2.68.8a5 5 0 0 0-1.6 1.83v8.79zm21.34 0h-3.44v-17.73h3.44zm8.65 4.68h-3.57l2.98-6.18-6.82-12.24h3.74l4.7 8.64h.18l4.09-8.64h3.61z"/><g clip-path="url(#clip0_23869_1155)"><path fill="#0E0E0E" d="m84 3 2.46 5.23 5.25-2.42-1.47 5.59 5.58 1.52-4.73 3.33 3.3 4.75-5.76-.48-.53 5.76-4.1-4.08-4.1 4.08-.53-5.76-5.76.48 3.3-4.75-4.73-3.33 5.58-1.52-1.47-5.6 5.25 2.43z"/></g><path fill="#0E0E0E" d="M109.5 23.3q-2.15 0-3.8-.9a6.5 6.5 0 0 1-2.53-2.53 8 8 0 0 1-.89-3.74q0-2.12.89-3.74a6.3 6.3 0 0 1 2.53-2.51 7.6 7.6 0 0 1 3.77-.91 8 8 0 0 1 3.35.71q1.53.72 2.26 1.58h.17v-5.99h3.45v17.73h-3.45v-2h-.17q-.73.86-2.26 1.58-1.5.72-3.33.72m1.27-2.66q1.46 0 2.66-.64a5 5 0 0 0 1.82-1.48v-4.78q-.59-.8-1.82-1.45-1.2-.66-2.68-.66-2.29 0-3.62 1.23a4.3 4.3 0 0 0-1.3 3.27q0 2.04 1.3 3.28 1.33 1.23 3.64 1.23m12.86-12.41q-1.06 0-1.68-.52-.59-.52-.59-1.35t.6-1.33q.6-.52 1.67-.52 1.05 0 1.65.52.6.5.61 1.33 0 .82-.61 1.35-.6.52-1.65.52m1.72 14.77h-3.45v-13.74h3.45zm10.64 4.97a16 16 0 0 1-6.4-1.3v-2.96q.9.57 2.51 1.01 1.63.45 3.43.45 2.7 0 4.13-1.26a4.1 4.1 0 0 0 1.46-3.32v-.64h-.18a6 6 0 0 1-2.21 1.57q-1.5.72-3.38.72-2.16 0-3.79-.84a6 6 0 0 1-2.5-2.36 7 7 0 0 1-.87-3.45q0-1.92.86-3.42.9-1.5 2.51-2.34a8 8 0 0 1 3.77-.86q1.9 0 3.4.71a6 6 0 0 1 2.21 1.58h.18v-2h3.44v11.33q0 2.25-.98 3.89a6.5 6.5 0 0 1-2.9 2.58q-1.93.91-4.69.91m.47-8.3q1.53 0 2.78-.66a5.5 5.5 0 0 0 1.88-1.5v-3.82a5 5 0 0 0-1.88-1.5 6 6 0 0 0-2.83-.66q-2.25 0-3.47 1.08a3.8 3.8 0 0 0-1.2 2.98q0 1.89 1.2 3 1.23 1.1 3.52 1.09m13.05-11.44q-1.05 0-1.67-.52-.6-.52-.6-1.35t.6-1.33q.61-.52 1.67-.52t1.65.52q.62.5.62 1.33 0 .82-.62 1.35-.6.52-1.65.52m1.73 14.77h-3.45v-13.74h3.45zm8.94.3a5 5 0 0 1-3.62-1.3q-1.3-1.32-1.3-3.78v-7.36h-2.52v-1.6h1.33q.64 0 .91-.27.27-.3.27-1v-1.95h3.45v3.22h4.16v1.6h-4.16v7.17q0 1.15.62 1.77.6.61 1.65.61.93 0 1.9-.3v2.8q-.72.21-1.31.29-.6.1-1.38.1m11.9-14.33q3.82 0 5.6 1.28 1.8 1.28 1.79 3.44v9.31h-3.45v-2.27a7 7 0 0 1-2.6 1.78q-1.8.78-4 .79-2.56 0-3.88-1.06a3.4 3.4 0 0 1-1.31-2.81q0-4.05 6.9-4.19l.24-.02q1.97-.03 2.95-.22 1.02-.2 1.36-.52t.34-.86q0-.81-.98-1.33-.96-.52-3.25-.52a15 15 0 0 0-6.65 1.58v-2.9q.94-.57 2.83-1.02t4.11-.46m-1.23 11.86q1.75 0 3.13-.61 1.38-.62 2.04-1.38v-3.03q-.25.32-1.3.6-1.04.26-2.78.29l-.22.02q-2.1.02-3.03.62-.91.59-.91 1.55 0 .9.73 1.43.77.51 2.34.51m15.14 2.17h-3.45v-17.73h3.45z"/><defs><clipPath id="clip0_23869_1155"><path fill="#fff" d="M72 3h24v24h-24z"/></clipPath></defs></svg>