<svg xmlns="http://www.w3.org/2000/svg" fill="none" viewBox="0 0 126 56"><path fill="#ABABAB" d="M33.25 27.57c0 3.16-2.56 5.7-5.69 5.68a5.7 5.7 0 0 1-5.68-5.7c0-3.15 2.55-5.7 5.68-5.67a5.7 5.7 0 0 1 5.69 5.7m-5.39-27.58c-4.33 0-8.44.98-12.11 2.72 4.9-.51 9.97 1.64 13.72 5.46a26 26 0 0 1 4.91 7.26 16.7 16.7 0 0 0 15.5-4.95 28.4 28.4 0 0 0-22.02-10.49"/><path fill="#ABABAB" d="M11.5 5.33a28 28 0 0 0-8.87 11.22c2.33.57 9.33 2.84 12.55 11.45.97-.32 3.05-1.52 4.5-6.17 1.76-5.7 5-11.2 9.2-13.64-4.64-4.45-11.64-6.4-17.37-2.86m40.89 36.96a29 29 0 0 0 3.6-11.66c-1.95 4.41-6.16 7.72-11.17 9.05-2.46.7-5.28.9-8.38.68a16.9 16.9 0 0 0-3.41 15.64 27.7 27.7 0 0 0 19.35-13.71"/><path fill="#ABABAB" d="M56 24.82a28.4 28.4 0 0 0-5.39-13.44 18.1 18.1 0 0 1-16.4 5.14c-.23 1-.2 3.42 3.15 7.04 4.13 4.44 7.35 10.04 7.37 14.94 6.24-1.76 11.48-6.9 11.26-13.68m-52.09 17.7a28.4 28.4 0 0 0 8.52 9.1c-2.93-3.95-3.65-9.4-2.23-14.52a25 25 0 0 1 3.81-7.8 17 17 0 0 0-12.17-10.92 27.9 27.9 0 0 0 2.07 24.14"/><path fill="#ABABAB" d="M17.18 53.81a28.4 28.4 0 0 0 14.14 2.01 17.4 17.4 0 0 1 3.68-16.34c-.75-.67-2.83-1.84-7.58-.78-5.8 1.3-12.19 1.28-16.38-1.08-1.57 6.15.24 13.07 6.14 16.2m46.25-30.19h2.65c2.01 0 3.1.83 3.1 2.28 0 1.35-.83 2.09-1.89 2.32.83.3 1.26 2.24 2.27 4.14h-1.32c-1.62-3.2-1.23-3.89-2.78-3.89h-.87v3.9h-1.13v-8.76zm1.13 3.81h1.57c1.08 0 1.78-.38 1.78-1.42 0-.87-.57-1.35-1.93-1.35h-1.44v2.77zm7.19.56c0-2.72 1.6-4.37 3.9-4.37 2.58 0 3.97 1.8 3.97 4.37 0 2.9-1.67 4.38-3.95 4.38-2.4 0-3.92-1.69-3.92-4.38m6.68 0c0-2.32-1.06-3.36-2.78-3.36-1.52 0-2.71 1.09-2.71 3.36 0 2.22 1.14 3.36 2.86 3.36 1.62 0 2.63-1.16 2.63-3.36m4.1 2.72c.4.27 1.12.62 2.01.62 1.18 0 1.74-.52 1.74-1.4 0-1-.49-1.26-1.69-1.7l-.3-.1c-1.28-.47-1.89-1.04-1.89-2.35 0-1.38 1.07-2.16 2.8-2.16 1.08 0 1.9.32 2.07.46l-.28.94a4.5 4.5 0 0 0-1.86-.37c-.97 0-1.53.4-1.53 1.16 0 .66.28 1.06 1.66 1.55l.33.12c1.53.57 1.91 1.29 1.91 2.4 0 1.6-1.15 2.48-2.83 2.48-.92 0-1.8-.24-2.42-.64zm12.55-.69h-3.8l-.86 2.34h-1.17l3.4-8.74h1.13l3.34 8.75h-1.19zm-3.42-1.01h3.08l-1.5-4.12h-.05zm9.94 3.36h-1.08v-7.71h-2.52v-1.05h6.13v1.05h-2.52zm4.28-4.38c0-2.72 1.59-4.37 3.9-4.37 2.58 0 3.97 1.8 3.97 4.37 0 2.9-1.67 4.38-3.95 4.38-2.4 0-3.92-1.69-3.92-4.38m6.68 0c0-2.32-1.06-3.36-2.78-3.36-1.53 0-2.72 1.09-2.72 3.36 0 2.22 1.14 3.36 2.87 3.36 1.64 0 2.63-1.16 2.63-3.36m12.57 4.38h-1.1l-.53-6.85-2.16 6.84h-1.18l-2.14-6.81-.55 6.82h-1.1l.73-8.76h1.37l2.3 7.53 2.26-7.52h1.37z"/></svg>