<svg xmlns="http://www.w3.org/2000/svg" fill="none" viewBox="0 0 150 46"><g fill-rule="evenodd" clip-path="url(#clip0_7564_62400)" clip-rule="evenodd"><path fill="#ABABAB" d="M5.92 5.89h15.47l-5.91-5.89h-15.48v15.4l5.92 5.89zm18.67 0h15.47v15.4l5.92-5.9v-15.39h-15.47zm15.47 18.58v15.4h-15.47l5.92 5.88h15.47v-15.4zm-18.67 15.4h-15.47v-15.4l-5.92 5.88v15.4h15.48z"/><path fill="#000" d="M83.63 34.87c1.98 0 3.58 1.79 3.58 4s-1.6 3.99-3.58 3.99c-1.97 0-3.58-1.8-3.58-4s1.6-4 3.58-4m0-3.05a7.1 7.1 0 0 1 7.13 7.04c0 3.89-3.2 7.04-7.13 7.04a7.1 7.1 0 0 1-7.12-7.04 7.1 7.1 0 0 1 7.12-7.04m16.67 3.05c1.22 0 2.37.54 3.01 1.58l2.34-2.23a7.15 7.15 0 0 0-12.48 4.64c0 3.89 3.2 7.04 7.13 7.04 2.18 0 4.13-.97 5.44-2.5l-2.43-2.07a3.5 3.5 0 0 1-3.01 1.53c-1.98 0-3.58-1.8-3.58-4s1.6-4 3.58-4m23.55 4.92h10.24q.05-.46.05-.93a6.96 6.96 0 0 0-6.87-7.04 6.96 6.96 0 0 0-6.87 7.04 6.96 6.96 0 0 0 6.87 7.04c2.17 0 4.65-.37 5.91-1.97l-1.56-2.25c-.79 1.12-2.86 1.43-4.19 1.43-1.75 0-3.22-1.42-3.58-3.32m.08-2.2c.46-1.72 1.86-2.98 3.5-2.98 1.65 0 3.04 1.26 3.5 2.99zm-16.12-5.44h11.01v3.02h-3.8v10.4h-3.4v-10.4h-3.81zm31.96 6.5-4.63-6.5h4.1l2.77 4.15 2.77-4.15h4.1l-4.64 6.5 4.85 6.93h-3.96l-3.12-4.5-3.12 4.5h-3.96zm2.24-1.72-.02.03h.03zm-73.78-6.55c1.48 0 2.68 1.2 2.68 2.66s-1.2 2.66-2.68 2.66h-4.5v-5.32zm-8.24-3.16h9.01c3.23 0 5.85 2.6 5.85 5.82a5.84 5.84 0 0 1-5.85 5.83h-5.28v6.7h-3.73z"/><path fill="#ABABAB" d="M83.63 34.87c1.98 0 3.58 1.79 3.58 4s-1.6 3.99-3.58 3.99c-1.97 0-3.58-1.8-3.58-4s1.6-4 3.58-4m0-3.05a7.1 7.1 0 0 1 7.13 7.04c0 3.89-3.2 7.04-7.13 7.04a7.1 7.1 0 0 1-7.12-7.04 7.1 7.1 0 0 1 7.12-7.04m16.67 3.05c1.22 0 2.37.54 3.01 1.58l2.34-2.23a7.15 7.15 0 0 0-12.48 4.64c0 3.89 3.2 7.04 7.13 7.04 2.18 0 4.13-.97 5.44-2.5l-2.43-2.07a3.5 3.5 0 0 1-3.01 1.53c-1.98 0-3.58-1.8-3.58-4s1.6-4 3.58-4m23.55 4.92h10.24q.05-.46.05-.93a6.96 6.96 0 0 0-6.87-7.04 6.96 6.96 0 0 0-6.87 7.04 6.96 6.96 0 0 0 6.87 7.04c2.17 0 4.65-.37 5.91-1.97l-1.56-2.25c-.79 1.12-2.86 1.43-4.19 1.43-1.75 0-3.22-1.42-3.58-3.32m.08-2.2c.46-1.72 1.86-2.98 3.5-2.98 1.65 0 3.04 1.26 3.5 2.99zm-16.12-5.44h11.01v3.02h-3.8v10.4h-3.4v-10.4h-3.81zm31.96 6.5-4.63-6.5h4.1l2.77 4.15 2.77-4.15h4.1l-4.64 6.5 4.85 6.93h-3.96l-3.12-4.5-3.12 4.5h-3.96zm2.24-1.72-.02.03h.03zm-73.78-6.55c1.48 0 2.68 1.2 2.68 2.66s-1.2 2.66-2.68 2.66h-4.5v-5.32zm-8.24-3.16h9.01c3.23 0 5.85 2.6 5.85 5.82a5.84 5.84 0 0 1-5.85 5.83h-5.28v6.7h-3.73z"/></g><defs><clipPath id="clip0_7564_62400"><path fill="#fff" d="M0 0h149.4v45.9h-149.4z"/></clipPath></defs></svg>