<svg xmlns="http://www.w3.org/2000/svg" fill="none" viewBox="0 0 23 29"><path fill="#141414" fill-rule="evenodd" d="m7.95 0 .26.03c.15.02.75.06 1.32.08.95.04 1.1.07 2.25.57l-.1.66.55.27c.55.25.55.26.55.58 0 .18-.05.76-.11 1.29l-.41 3.49c-.02.15.03.18.62.23.5.04.77.1 1.17.3.52.27.53.27.48.93l1.2.05a4.3 4.3 0 0 1 2.32.6l-.05.67.62.04c.5.03.73.1 1.74.6l-.09.64.55.26c.55.27.55.27.55.61 0 .36 0 .36 1.09.88l-.05.55-.16 1.53-.24 2.04-.51 4.2h-.61c-.43 0-.6.03-.6.1l-.17 1.44c-.09.75-.17 1.46-.2 1.84l-1.17-.06-.11.69-.23 1.77-.25 2.12h-.36c-.19 0-.97-.03-1.75-.08l-3.8-.2c-1.33-.07-3.1-.17-3.93-.2-.82-.06-1.73-.1-2.02-.13a3 3 0 0 1-1.04-.3l-.55-.26s.05-.67.14-1.48l.15-1.47-.53-.27c-.3-.14-.54-.28-.55-.32s0-.42.07-.87c.05-.45.08-.84.06-.88a3 3 0 0 0-.54-.31l-.54-.27c-.01 0 .02-.4.08-.9.1-.85.1-.88-.06-.98l-.57-.3c-.4-.2-.41-.2-.36-.52.02-.18.07-.58.15-1.46l-.55-.27c-.54-.26-.55-.27-.57-.61s-.04-.35-1.09-.92l.05-.44.18-1.6c.07-.62.15-1.26.23-1.7l.84.06 1.52.1 1.17.09c.27.02.64.11.81.2.17.08.33.15.35.13.03 0 .13-.62.21-1.36l.3-2.4.41-3.59.38-3.3.12-.94c.03-.14.1-.16 1.25-.1zm1.13 2.88c-.03.27-.12 1.11-.22 1.87l-.36 3.18-.39 3.22-.25 2.16-.2 1.83-.46 3.98c0 .13-.06.13-.77.07a3 3 0 0 1-1.17-.27l-.44-.2a1 1 0 0 0-.06.36l-.02.37 1.14.54q-.11.75-.15 1.22l-.06.57 1.15.54-.17 1.46-.05.36c1.15.52 1.18.55 1.14.76-.03.12-.08.52-.11.89l-.06.68a51 51 0 0 0 2.46.16l2.67.13 2.99.16.14-1.02c.06-.57.15-1.28.17-1.6.03-.3.09-.62.13-.69.05-.09.2-.11.61-.1.46.02.56 0 .59-.12.02-.08.07-.54.12-1.04l.18-1.48.07-.68c0-.05.25-.07.62-.06l.62.02.5-4.53.3-2.66-1.12-.55.08-.7c-1.09 0-1.23-.03-1.75-.3-.56-.3-.58-.31-.58-.6 0-.26-.03-.32-.18-.36-.1-.01-.3-.04-.45-.04h-.25l-.35 3.1-.06.35c-1.42-.07-1.56-.11-2.06-.37-.43-.23-.56-.34-.53-.44l.09-.68.21-1.83c.1-.72.16-1.33.16-1.36s-.2-.06-.47-.05l-.49.02-.53 4.5c0 .01-.34 0-.74-.03-.6-.04-.83-.1-1.29-.32-.3-.16-.57-.3-.57-.32l.47-4.09.62-5.4c.12-1.02.13-1.36.06-1.4a1 1 0 0 0-.45-.07c-.3 0-.36.03-.4.19zm-6.28 12.24c-.05.4-.06.72-.03.74l.55.28c.5.26.5.27.48.59 0 .32 0 .33.44.55l.45.22.15-1.3.06-.64c-1.1-.53-1.12-.55-1.12-.84v-.31h-.9z" clip-rule="evenodd"/></svg>