<svg xmlns="http://www.w3.org/2000/svg" fill="none" viewBox="0 0 157 37"><path fill="#ABABAB" d="M1.38 27.46v-26.1h34.8l-12.65 14.33h-11.6zm34.8-16.86v25.56h-34.8l12.65-14h11.6zm111.04 15.36v-12.04h9.64v2.87h-6.96l.78-.77v9.94zm-8.45.18q-1.52 0-2.67-.67a4.5 4.5 0 0 1-1.79-2.03 8.5 8.5 0 0 1-.62-3.5q0-2.12.6-3.49a4.3 4.3 0 0 1 1.75-2.04 5.3 5.3 0 0 1 2.73-.67 5.9 5.9 0 0 1 5.2 2.93q.8 1.4.8 3.27 0 1.9-.8 3.3a5.5 5.5 0 0 1-2.16 2.14q-1.34.76-3.04.76m-7.12 4.17v-16.39h3.33v2.46l-.06 3.59.22 3.56v6.78zm6.51-7.03a3 3 0 0 0 2.64-1.55q.43-.75.43-1.79 0-1.05-.43-1.79a2.9 2.9 0 0 0-2.64-1.54q-.87 0-1.56.4t-1.1 1.14-.4 1.8q0 1.02.4 1.78a2.9 2.9 0 0 0 2.66 1.55m-15.49 2.86a7 7 0 0 1-3.43-.8 6 6 0 0 1-2.35-2.2q-.85-1.4-.85-3.2a6 6 0 0 1 .85-3.2 6 6 0 0 1 2.35-2.2q1.5-.8 3.43-.8 1.9 0 3.4.8a6 6 0 0 1 2.35 2.18q.85 1.39.85 3.22 0 1.8-.85 3.2a6 6 0 0 1-2.35 2.2q-1.5.8-3.4.8m0-2.86q.87 0 1.56-.4t1.1-1.15.4-1.79q0-1.05-.4-1.79a2.9 2.9 0 0 0-2.66-1.54q-.87 0-1.57.4t-1.12 1.14q-.4.75-.4 1.8 0 1.02.4 1.78.42.75 1.12 1.15.69.4 1.57.4m-15.02 2.68v-13.55l.83.83h-5.82v-2.95h13.59v2.95h-5.83l.81-.83v13.55zm-11.98-4.9v-2.8h6.34v2.8zm-5.07 4.9-4.87-7.55 2.93-1.77 6.07 9.32zm-10.18 0v-15.67h3.6v15.67zm2.55-6.32v-3.02h5.47v3.02zm6.03-1.11-3.34-.4 5.08-7.84h3.83zm-21.55.9v-2.78h7.74v2.78zm2.06-9.4q1.76 0 3.24.6a7.5 7.5 0 0 1 4.28 4.25q.6 1.48.6 3.25a9 9 0 0 1-.6 3.24 7.75 7.75 0 0 1-7.52 4.86 10 10 0 0 1-3.77-.71 7 7 0 0 1-2.77-2.09l2.3-2.15q.84.94 1.84 1.42a5.4 5.4 0 0 0 4.07.08 4.4 4.4 0 0 0 2.42-2.61q.34-.93.34-2.04a6 6 0 0 0-.34-2.04 4 4 0 0 0-.94-1.57 4.5 4.5 0 0 0-3.34-1.41 5.2 5.2 0 0 0-4.05 1.86l-2.3-2.15a7 7 0 0 1 2.77-2.08 10 10 0 0 1 3.77-.72m-16.78 15.94v-13.55l.82.83h-5.82v-2.95h13.6v2.95h-5.83l.8-.83v13.55z"/></svg>