<svg xmlns="http://www.w3.org/2000/svg" fill="none" viewBox="0 0 186 24"><g fill="#B5B5B5" clip-path="url(#clip0_7564_62405)"><path d="M97.08 3.95v10.64c-.1 1.5-.54 2.98-2.49 2.98v3.9c6.63 0 6.84-2.53 6.84-6.88v-6.74h8.08v13.62h4.5v-17.52zm-24.68 5.59c0-5.52-4.91-5.52-9-5.59h-9.4v17.52h4.5v-6.33h4.9c4.08-.07 9-.08 9-5.6m-9.17 2.23h-4.73v-4.45h4.73c3.3 0 4.63 0 4.63 2.23s-1.34 2.23-4.63 2.23zm-21.05.43-4.96-8.25h-5.66l7.99 12.72-2.73 4.8h5.4l10.2-17.52h-5.4zm36.66-8.25-8.04 17.52h4.89l1.48-3.36h9.29l1.54 3.36h5.2l-8.38-17.52zm-.18 10.8 3.06-6.94 3.2 6.93zm99.45-10.8-5.4 13.94-5.38-13.94h-7.15v17.52h4.5v-12.69l5.13 12.7h5.72l5.2-12.91v12.9h4.52v-17.52zm-35.32 12.12v-12.12h-4.5v17.52h4.95l9.32-11.93v11.93h4.5v-17.52h-5.02zm-11.84-12.12-4.6 5.4-4.42-5.4h-5.87l7.36 8.87-7.36 8.65h5.05l4.8-5.52 4.53 5.52h5.86l-7.42-8.95 7.42-8.57zm-111.15 13.55a3.35 3.35 0 1 0 0 6.7 3.35 3.35 0 0 0 0-6.7"/><path fill-opacity="0.8" d="M14.66 5.65a3.34 3.34 0 1 0-6.18-2.56 3.34 3.34 0 0 0 6.18 2.56m-8.24 8.23a3.34 3.34 0 1 0-6.18-2.56 3.34 3.34 0 0 0 6.18 2.56m13.38-4.62a3.35 3.35 0 1 0 0 6.7 3.35 3.35 0 0 0 0-6.7m-8.23 8.24a3.35 3.35 0 1 0 0 6.7 3.35 3.35 0 0 0 0-6.7"/><path d="M6.69 20.7c.1-.98.23-2.1 1.43-3.3 1.04-1.04 2.13-1.2 3.2-1.37.94-.14 1.84-.28 2.61-1.06.78-.78.92-1.68 1.06-2.62.16-1.06.33-2.15 1.37-3.19a4.8 4.8 0 0 1 3.3-1.44c.88-.1 1.7-.18 2.51-.99a3.33 3.33 0 1 0-4.73-4.72c-.8.8-.9 1.63-.99 2.5a4.9 4.9 0 0 1-8.33 3.3c-1.2-1.2-1.32-2.31-1.43-3.3-.1-.87-.2-1.7-1-2.5a3.3 3.3 0 0 0-2.8-.96 3.33 3.33 0 0 0-1.92 5.67c.8.81 1.63.9 2.5 1a4.87 4.87 0 0 1 3.3 8.33c-1.2 1.2-2.31 1.32-3.3 1.43-.87.1-1.7.19-2.5 1a3.36 3.36 0 0 0 1.92 5.68 3.3 3.3 0 0 0 2.8-.95c.8-.8.9-1.63.99-2.5"/></g><defs><clipPath id="clip0_7564_62405"><path fill="#fff" d="M0 0h185.14v23.4h-185.14z"/></clipPath></defs></svg>