<svg width="121" height="20" viewBox="0 0 121 20" fill="none" xmlns="http://www.w3.org/2000/svg">
<g clip-path="url(#clip0_3320_26906)">
<path d="M5.54963 9.16724C5.54963 9.81274 5.6211 10.3696 5.77328 10.8294C5.92199 11.2928 6.18483 11.7224 6.56641 12.1276C6.9503 12.5267 7.51057 12.8325 8.24723 13.0411C8.98616 13.2523 9.90261 13.3566 10.999 13.3566H19.1667V18.3333H10.9724C7.24196 18.3333 4.47752 17.4853 2.68605 15.7916C0.894583 14.0991 0 11.8898 0 9.16606C0 6.44353 0.894583 4.23422 2.68605 2.53932C4.47752 0.846842 7.24196 0 10.9724 0H19.1667V4.97672H10.999C8.90662 4.97672 7.47598 5.34312 6.70705 6.07592C5.93582 6.80872 5.54963 7.84 5.54963 9.16724Z" fill="#ABABAB"/>
<path d="M36.8593 19.1667H34.8099C32.8028 19.1667 31.0534 18.9151 29.5521 18.4194C28.0532 17.9199 26.8564 17.2306 25.9641 16.3453C25.0683 15.4562 24.4078 14.4524 23.9781 13.3216C23.5471 12.1958 23.334 10.949 23.334 9.5827C23.334 8.21764 23.5471 6.97093 23.9781 5.84507C24.4078 4.71429 25.0683 3.70805 25.9641 2.82142C26.8564 1.9348 28.0532 1.24177 29.5521 0.746048C31.0534 0.249093 32.8028 0 34.8099 0H36.8593C38.8628 0 40.6147 0.249093 42.1171 0.746048C43.6148 1.24177 44.8139 1.9348 45.7062 2.82142C46.5974 3.70805 47.2625 4.71429 47.6888 5.84507C48.1197 6.97093 48.334 8.21764 48.334 9.5827C48.334 10.9478 48.1208 12.1958 47.6888 13.3216C47.2625 14.4524 46.5986 15.4562 45.7062 16.3453C44.8139 17.2319 43.6148 17.9212 42.1171 18.4194C40.6147 18.9139 38.8628 19.1667 36.8593 19.1667ZM34.8358 14.1083H36.8323C39.0584 14.1083 40.5866 13.7125 41.4204 12.9233C42.2565 12.1341 42.6733 11.0218 42.6733 9.58397C42.6733 8.14607 42.2506 7.03382 41.411 6.24214C40.5666 5.45417 39.0408 5.05833 36.8323 5.05833H34.8568C33.6998 5.05833 32.715 5.16808 31.9152 5.39251C31.1166 5.61324 30.5042 5.94373 30.0838 6.37656C29.6633 6.81309 29.3671 7.28661 29.1997 7.79959C29.0299 8.31632 28.9456 8.91062 28.9456 9.58516C28.9456 11.0243 29.3729 12.1353 30.2219 12.9245C31.0732 13.7125 32.612 14.1083 34.8358 14.1083Z" fill="#ABABAB"/>
<path d="M56.9027 0V13.3563H69.166V18.3333H51.666V0H56.9027Z" fill="#ABABAB"/>
<path d="M104.886 18.3333V12.8054L94.166 0H101.856L107.518 8.36834L113.137 0H120.833L110.106 12.8054V18.3333H104.886Z" fill="#ABABAB"/>
<path d="M90.6765 2.53949C88.9073 0.8469 86.1775 0 82.4917 0H74.166V4.95644H76.621V4.97706H82.4656C84.5152 4.97706 85.9193 5.34349 86.6835 6.07633C87.4454 6.80676 87.8263 7.83929 87.8263 9.16669C87.8263 9.81216 87.7534 10.3691 87.6053 10.829C87.4588 11.2924 87.1959 11.722 86.8173 12.1272C86.4404 12.5264 85.8876 12.8321 85.1574 13.0409C84.4312 13.2519 83.5339 13.3563 82.4656 13.3563H76.621H81.3593H74.166V18.3333H82.4917C86.1775 18.3333 88.9073 17.4852 90.6765 15.7914C92.4457 14.0989 93.3327 11.8894 93.3327 9.16544C93.3327 6.44397 92.4457 4.23572 90.6765 2.53949Z" fill="#ABABAB"/>
</g>
<defs>
<clipPath id="clip0_3320_26906">
<rect width="120.833" height="20" fill="white"/>
</clipPath>
</defs>
</svg>
