<svg width="194" height="24" viewBox="0 0 194 24" fill="none" xmlns="http://www.w3.org/2000/svg">
<g clip-path="url(#clip0_3320_26893)">
<path d="M12.8878 23.9378H0.00975967V18.9018L12.8878 9.88717V23.9378ZM14.6341 4.40229L23.6098 10.6911V0.337891H0V14.6384L14.6341 4.40229ZM16.3785 9.88717V23.9358H23.6156V14.9603L16.3785 9.88717Z" fill="#ABABAB"/>
<path d="M188.885 0H182.65V2.49366H188.885V0Z" fill="#ABABAB"/>
<path d="M41.2229 8.21839V21.1804H37.4863V4.83301H50.0971V8.21839H41.2229Z" fill="#ABABAB"/>
<path d="M51.6719 20.6653C52.6065 18.9852 53.0748 16.3725 53.0748 12.7959V4.83301H66.8524V21.1804H63.1119V8.21839H56.8094V12.4467C56.8094 16.6262 56.3665 19.5219 55.4787 21.1804H51.6719V20.6653Z" fill="#ABABAB"/>
<path d="M75.7008 4.83301H81.0627L87.5017 21.1804H83.4042L82.1437 17.793H74.6237L73.3632 21.1804H69.2773L75.7008 4.83301ZM80.8832 14.4076L78.3856 7.72864L75.8861 14.4076H80.8832Z" fill="#ABABAB"/>
<path d="M89.9316 4.83301H98.3375C101.514 4.83301 103.592 6.49154 103.592 9.03593C103.592 10.8115 102.706 12.0486 100.907 12.7725C102.962 13.3579 104.176 14.6886 104.176 16.6262C104.176 19.5219 102.004 21.1804 98.4546 21.1804H89.9316V4.83301ZM98.2224 11.1374C99.3658 11.1374 99.9785 10.5774 99.9785 9.6213C99.9785 8.78033 99.3482 8.21839 98.2224 8.21839H93.6682V11.1452L98.2224 11.1374ZM98.6887 17.793C99.8321 17.793 100.556 17.1628 100.556 16.1598C100.556 15.1569 99.8321 14.5247 98.6887 14.5247H93.6682V17.793H98.6887Z" fill="#ABABAB"/>
<path d="M115.069 18.0276C117.848 18.0276 119.504 16.252 120.043 13.5203L123.475 14.8978C122.517 18.9154 119.528 21.413 115.046 21.413C109.838 21.413 106.474 17.8168 106.474 13.0071C106.383 8.31245 110.258 4.50757 115.046 4.59928C119.366 4.59928 122.098 6.98172 122.798 10.0412L119.366 11.5788C118.898 9.31343 117.241 7.98269 114.976 7.98269C112.359 7.98269 110.211 9.96708 110.211 13.0032C110.211 16.09 112.453 18.0276 115.069 18.0276Z" fill="#ABABAB"/>
<path d="M139.487 8.21839H133.883V21.1804H130.147V8.21839H124.543V4.83301H139.487V8.21839Z" fill="#ABABAB"/>
<path d="M145.832 21.1804H142.096V4.83301H149.918C153.561 4.83301 155.407 7.19205 155.407 9.94717C155.407 12.6086 153.514 15.1082 149.918 15.1082H145.832V21.1804ZM149.686 11.7228C150.9 11.7228 151.67 11.0925 151.67 9.96667C151.67 8.84081 150.9 8.21057 149.686 8.21057H145.832V11.7228H149.686Z" fill="#ABABAB"/>
<path d="M175.02 13.007C175.114 17.5612 171.073 21.5301 166.38 21.413C161.685 21.5301 157.646 17.5612 157.74 13.007C157.646 8.45288 161.685 4.50752 166.38 4.59922C171.073 4.50752 175.112 8.45678 175.02 13.007ZM171.283 13.007C171.283 10.0178 169.112 8.10361 166.38 8.10361C163.648 8.10361 161.476 10.0178 161.476 13.007C161.476 15.9963 163.648 17.9104 166.38 17.9104C169.112 17.9104 171.283 15.9963 171.283 13.007Z" fill="#ABABAB"/>
<path d="M184.203 21.1804H177.805V4.83301H181.551V18.6867L187.53 4.83301H193.928V21.1804H190.191V7.32669L184.203 21.1804Z" fill="#ABABAB"/>
</g>
<defs>
<clipPath id="clip0_3320_26893">
<rect width="193.951" height="24" fill="white"/>
</clipPath>
</defs>
</svg>
