<svg width="147" height="32" viewBox="0 0 147 32" fill="none" xmlns="http://www.w3.org/2000/svg">
<path d="M53.0288 32L46.2845 19.8159H42.0528C44.5654 19.5481 46.6812 18.6109 48.4004 17.1381C50.6485 15.2636 51.8386 12.8536 51.8386 10.0418C51.8386 7.23013 50.6485 4.82008 48.4004 2.94561C46.1523 0.937239 43.243 0 39.9369 0H25.1259L16.3979 23.0293L7.40552 0H0V32H1.85138V3.48117L12.9597 32H15.0755L25.6548 3.61506V32H32.5314V19.9498H38.7467L45.3588 32H53.0288ZM32.5314 1.60669H37.6888C41.3916 1.60669 43.9042 4.95397 43.9042 10.0418C43.9042 15.1297 41.3916 18.477 37.6888 18.477H32.5314V1.60669Z" fill="#ABABAB"/>
<path d="M91.9078 24.1004L88.6018 17.9414H86.4859C87.6761 17.8075 88.734 17.272 89.6597 16.6025C90.8499 15.6653 91.3788 14.4603 91.3788 12.9874C91.3788 11.5146 90.8499 10.4435 89.6597 9.50628C88.4695 8.56904 87.1471 8.03347 85.428 8.03347H78.2869V24.1004H81.7252V18.0753H84.899L88.205 24.1004H91.9078ZM81.7252 17.272V8.83682H84.2378C86.0892 8.83682 87.2794 10.4435 87.2794 12.9874C87.2794 15.5314 86.0892 17.1381 84.2378 17.1381H81.7252V17.272Z" fill="#ABABAB"/>
<path d="M102.223 24.1004C99.8423 24.1004 97.8587 23.2971 96.2718 21.8243C94.6849 20.2176 93.8914 18.3431 93.8914 16.0669C93.8914 13.7908 94.6849 11.7824 96.2718 10.3096C97.8587 8.70293 99.8423 8.03347 102.223 8.03347C104.603 8.03347 106.587 8.83682 108.174 10.3096C109.76 11.9163 110.554 13.7908 110.554 16.0669C110.554 18.3431 109.76 20.3515 108.174 21.8243C106.587 23.431 104.603 24.1004 102.223 24.1004ZM102.223 23.5649C103.677 23.5649 104.735 22.8954 105.661 21.5565C106.587 20.2176 106.983 18.3431 106.983 16.0669C106.983 13.7908 106.587 12.0502 105.661 10.5774C104.867 9.23849 103.677 8.56904 102.223 8.56904C100.768 8.56904 99.71 9.23849 98.7844 10.5774C97.9909 11.9163 97.4619 13.7908 97.4619 16.0669C97.4619 18.3431 97.8587 20.0837 98.7844 21.5565C99.5778 22.8954 100.768 23.5649 102.223 23.5649Z" fill="#ABABAB"/>
<path d="M125.365 8.03347C125.365 8.03347 125.365 19.1464 125.365 21.1548C124.571 22.3598 123.249 23.0293 121.53 23.0293C118.621 23.0293 116.769 21.1548 116.769 17.9414V8.03347H113.331V17.5397C113.331 19.4142 113.992 21.0209 115.315 22.2259C116.637 23.431 118.356 23.9665 120.472 23.9665C122.456 23.9665 123.91 23.431 125.1 22.3598C125.365 22.0921 125.629 21.8243 125.762 21.5565L128.274 24.1004H128.803V8.03347H125.365Z" fill="#ABABAB"/>
<path d="M139.382 8.03347C141.102 8.03347 142.424 8.56904 143.614 9.50628C144.804 10.4435 145.333 11.6485 145.333 12.9874C145.333 14.4603 144.804 15.5314 143.614 16.6025C142.424 17.5397 141.102 18.0753 139.382 18.0753H135.68V24.1004H132.241V8.03347H139.382ZM138.325 17.272C140.176 17.272 141.366 15.6653 141.366 13.1213C141.366 10.5774 140.176 8.97071 138.325 8.97071H135.812V17.272H138.325Z" fill="#ABABAB"/>
<path d="M71.4104 17.2718C71.4104 17.2718 71.4104 19.548 71.4104 21.2886C71.0137 22.7614 69.6912 23.6986 67.8399 23.6986C66.253 23.6986 65.195 23.0292 64.2693 21.6902C63.3436 20.3513 62.9469 18.6107 62.9469 16.3346C62.9469 11.5145 65.195 8.7028 68.8978 8.7028C70.2202 8.7028 71.2781 8.97058 72.0716 9.64003C72.9973 10.3095 73.394 11.1128 73.394 12.184H74.0552C74.0552 10.9789 73.394 9.77392 72.3361 8.97058C71.2781 8.16723 69.8235 7.89945 68.1043 7.89945C65.5918 7.89945 63.6081 8.7028 61.889 10.1756C60.3021 11.7823 59.5086 13.7907 59.5086 16.0668C59.5086 18.343 60.3021 20.3513 61.889 21.958C63.4759 23.5647 65.5918 24.2342 67.8399 24.2342C69.9557 24.2342 71.6749 23.5647 72.4683 22.3597L74.3197 24.1003H74.8487V17.2718H71.4104Z" fill="#ABABAB"/>
</svg>
