<svg width="108" height="60" viewBox="0 0 108 60" fill="none" xmlns="http://www.w3.org/2000/svg">
<g opacity="0.34">
<path d="M15.4037 20H21.0051V27.1429H26.6064V20H32.2078V39.2857H26.6064V31.4286H21.0051V39.2857H15.4037V20ZM51.1124 20V39.2857H46.2112V24.2857H42.7103V30C42.7103 32.4218 42.0519 35.4645 40.6098 37.1429C39.1661 39.0058 36.6726 39.8446 33.6081 39.2857V34.2857C36.4923 34.8463 37.109 33.7259 37.109 30V20H51.1124ZM56.0135 20H60.9147L64.4156 31.4286L67.2163 20H72.8176L74.9181 39.2857H70.0169L68.6166 28.5714L65.8159 39.2857H62.3151L59.5144 28.5714L58.1141 39.2857H53.2129L56.0135 20ZM77.0186 20H82.62V27.8571L87.5212 20H93.8227L86.821 29.2857L93.8227 39.2857H87.5212L82.62 31.4286V39.2857H77.0186V20ZM53.913 0C21.4561 0 0 12.1108 0 30C0 47.7012 21.4561 60 53.913 60C86.5486 60 107.826 47.6944 107.826 30C107.826 12.1108 86.5453 0 53.913 0ZM53.913 57.1429C23.4423 57.1429 2.80068 46.2109 2.80068 30C2.79737 13.6028 23.4389 2.85714 53.913 2.85714C84.5641 2.85714 105.025 13.6028 105.025 30C105.025 46.2109 84.5641 57.1429 53.913 57.1429ZM53.913 5.71429C25.2432 5.71429 6.30152 15.2794 6.30152 30C6.30152 44.7206 25.2432 54.2857 53.913 54.2857C82.5829 54.2857 101.525 44.7206 101.525 30C101.525 15.2794 82.5779 5.71429 53.913 5.71429ZM53.913 54.2857C25.6054 54.2857 7.00169 44.348 7.00169 30C7.00169 15.652 25.6021 5.71429 53.913 5.71429C82.224 5.71429 100.824 15.652 100.824 30C100.824 44.348 82.2174 54.2857 53.913 54.2857Z" fill="#0E0E0E"/>
</g>
</svg>
