<svg width="185" height="36" viewBox="0 0 185 36" fill="none" xmlns="http://www.w3.org/2000/svg">
<g clip-path="url(#clip0_3320_26849)">
<path d="M18.45 0C8.24724 0 0 8.04608 0 18C0 27.9539 8.24724 36 18.45 36C28.6528 36 36.9 27.9539 36.9 18C36.9 8.04608 28.5677 0 18.45 0ZM15.8143 25.6313L14.4539 29.53C9.35253 27.871 5.95161 23.1429 5.95161 17.8341C5.95161 12.5253 9.35253 7.88018 14.5389 6.13825L15.8993 10.0369C12.4984 11.1152 10.2878 14.2673 10.2878 17.7512C10.2028 21.4009 12.4134 24.553 15.8143 25.6313ZM22.191 29.6129L20.9157 25.6313C24.4016 24.553 26.6972 21.4009 26.6972 17.8341C26.6972 14.2673 24.4016 11.1982 21.0007 10.1198L22.3611 6.13825C27.5475 7.79723 31.0334 12.5253 31.0334 17.8341C30.9484 23.3088 27.3774 28.0369 22.191 29.6129Z" fill="#ABABAB"/>
<path d="M181.905 21.2319L183.882 23.596C181.822 25.7156 179.269 26.2863 177.209 26.2863C175.232 26.2863 173.832 25.9602 172.596 25.3895C169.96 24.0852 168.642 21.4765 168.642 18.2971C168.642 13.4873 171.937 9.90039 176.797 9.90039C182.234 9.90039 184.87 13.895 184.458 19.1123H172.102C172.185 20.4167 172.926 21.6395 173.997 22.2917C174.903 22.8623 175.974 23.1069 177.374 23.1069C178.939 23.1884 180.504 22.6178 181.905 21.2319ZM172.267 16.3406H180.999C180.751 14.4656 179.186 12.8352 176.715 12.8352C174.079 12.8352 172.514 14.6287 172.267 16.3406ZM89.2345 25.8787H93.6827L86.6809 17.808L93.6003 10.2265H89.2345L83.9626 16.2591H82.3975V10.2265H79.0202V25.7971H82.3975V19.6015H83.9626L89.2345 25.8787ZM103.815 13.0797C100.932 13.0797 99.037 15.2808 99.037 18.0526C99.037 20.8243 100.932 23.0254 103.815 23.0254C106.698 23.0254 108.51 20.9058 108.51 18.0526C108.51 15.3623 106.78 13.0797 103.815 13.0797ZM104.391 9.90039C108.839 9.90039 112.134 13.3243 112.134 18.0526C112.134 22.6993 108.922 26.2863 104.391 26.2863C102.25 26.2863 100.52 25.5526 99.2841 24.2482V32.4004H95.8244V10.308H99.2017V12.183C100.52 10.6341 102.167 9.90039 104.391 9.90039ZM149.202 10.308H135.117V13.4058H140.471V25.8787H143.93V13.4058H149.285V10.308H149.202ZM76.6314 10.308H62.5455V13.4058H67.8998V25.8787H71.2771V13.4058H76.6314V10.308ZM58.3445 18.1341C58.3445 15.1993 56.2852 13.0797 53.4021 13.0797C50.6014 13.0797 48.4597 15.1993 48.4597 18.1341C48.4597 21.0689 50.519 23.1884 53.4021 23.1884C56.2028 23.1884 58.3445 21.0689 58.3445 18.1341ZM45 18.1341C45 13.4873 48.6244 9.98191 53.4845 9.98191C58.3445 9.98191 61.9689 13.4873 61.9689 18.1341C61.9689 22.7808 58.3445 26.3678 53.4845 26.3678C48.6244 26.3678 45 22.7808 45 18.1341ZM165.924 10.308V25.8787H162.547V15.8515L154.31 25.8787H151.591V10.308H154.969V20.3352L163.206 10.308H165.924ZM132.81 25.8787H129.433V10.308H132.81V25.8787ZM123.996 20.5797C123.996 19.1939 123.008 18.2156 121.69 18.2156H118.23V23.0254H121.69C123.008 23.0254 123.996 21.9656 123.996 20.5797ZM127.456 20.5797C127.456 23.6776 125.149 25.8787 121.854 25.8787H114.935V10.308H118.312V15.3623H122.184C125.396 15.3623 127.456 17.4004 127.456 20.5797Z" fill="#ABABAB"/>
</g>
<defs>
<clipPath id="clip0_3320_26849">
<rect width="184.5" height="36" fill="white"/>
</clipPath>
</defs>
</svg>
