<svg width="161" height="37" viewBox="0 0 161 37" fill="none" xmlns="http://www.w3.org/2000/svg">
<path d="M3.29141 7.92566C1.21998 10.9036 0 14.5212 0 18.4184C0 22.9043 1.61394 27.0175 4.28689 30.2115C4.28689 30.0167 4.28689 29.8218 4.28689 29.6227V14.0086C4.28689 12.8776 4.28689 11.8525 4.07508 10.929C3.97342 10.0522 3.68113 9.07786 3.29141 7.92566ZM14.2077 11.3399C13.2588 11.3399 12.2041 11.4458 10.9375 11.8525C10.5181 12.06 9.98861 12.2634 9.45911 12.5684V24.2768C10.6198 25.5095 11.9923 26.1237 13.6825 26.1237C15.792 26.1237 17.478 25.5053 18.537 24.2768C19.6934 22.9382 20.3331 21.1972 20.3331 18.8335C20.3331 16.4698 19.6976 14.6229 18.6429 13.2885C17.5881 11.9541 16.0038 11.3357 14.2077 11.3357M142.264 35.8497H68.8613V35.8285C60.5247 34.7399 54.0732 27.403 54.0732 18.5031C54.0732 9.60313 60.5205 2.26629 68.8613 1.17762V1.15644H142.264C151.536 1.15644 159.077 8.93807 159.077 18.5031C159.077 28.0681 151.536 35.8497 142.264 35.8497ZM9.45911 11.4458L12.9411 8.05697L13.5723 7.74774C14.3094 7.43851 15.2625 7.33684 16.4232 7.33684C18.0117 7.33684 19.4138 7.68844 20.6253 8.37468V5.99825C20.6253 4.56223 20.5194 3.4312 20.3076 2.50774C20.2102 1.67324 19.9391 0.834503 19.5748 0H18.4141C12.2337 0 6.76074 3.06267 3.41849 7.74774H9.45911V11.4458ZM141.743 0H26.3017C26.1534 0.559159 26.0178 1.16068 25.9077 1.78761C25.8018 2.91864 25.6959 4.55799 25.6959 6.61672V11.4458L29.6015 7.74774C30.8681 7.43851 31.9229 7.33684 32.8718 7.33684C35.1931 7.33684 36.8833 7.84941 38.1499 9.0821C39.3106 10.3148 39.946 12.0643 39.946 14.4238V22.845C39.946 23.2009 39.9502 23.5355 39.9587 23.8575C40.8144 24.7301 41.6785 25.3612 42.6316 25.823C43.5805 26.2339 44.6353 26.5389 45.5884 26.5389C46.6474 26.5389 47.4904 26.2296 48.1216 25.7171C48.7527 25.3062 49.0704 24.6877 49.0704 23.8702C49.0704 23.3576 48.8586 22.7391 48.3334 22.1249C47.8039 21.6123 46.7491 20.8922 45.2707 19.9645C43.4789 18.7318 42.1064 17.6008 41.3651 16.5757C40.628 15.6522 40.2044 14.6229 40.2044 13.3902C40.2044 11.6449 41.0474 10.2089 42.7375 8.9762C44.4277 7.84517 46.4314 7.33261 48.9645 7.33261C49.9134 7.33261 50.7606 7.33261 51.3918 7.43427C52.0272 7.64184 52.8702 7.84517 53.7132 8.1544V12.2634C52.9718 11.6449 52.2348 11.1323 51.4977 10.7215C50.7606 10.4165 49.9134 10.3106 48.9645 10.3106C48.0157 10.3106 47.1685 10.5139 46.4314 10.9248C45.796 11.3357 45.4825 11.9541 45.4825 12.5684C45.4825 13.2885 45.6943 13.8011 46.1179 14.3179C46.5415 14.9321 47.3803 15.559 48.6511 16.3723C50.7564 17.7194 52.2432 18.8377 53.0862 19.8629C53.8275 20.8922 54.2469 22.019 54.2469 23.15C54.2469 25.0012 53.5098 26.5389 52.0314 27.7716C50.4472 28.9026 48.5494 29.5168 46.228 29.5168C44.9615 29.5168 43.9025 29.5168 42.9536 29.3135C42.3648 29.2415 41.615 29.1186 40.789 28.9111C40.8271 28.9788 40.8567 29.0466 40.8991 29.1102H33.7232C34.1426 28.39 34.4603 27.6741 34.5662 26.7464C34.778 25.823 34.8797 24.4886 34.8797 22.845V14.9363C34.8797 13.7036 34.4603 12.7802 33.8249 12.1617C33.0878 11.5475 32.0288 11.3399 30.6563 11.3399C29.7074 11.3399 28.4409 11.5432 26.8566 12.1617L25.6959 12.6743V22.8408C25.6959 24.4844 25.8018 25.8187 25.9077 26.6405C26.1195 27.564 26.4372 28.3858 26.7507 29.1059H19.4689C19.4689 29.1059 19.4731 29.0975 19.4774 29.0932C18.5243 29.3728 17.4737 29.5168 16.3258 29.5168C13.6867 29.5168 11.3653 28.8009 9.46334 27.3607V29.6227C9.46334 30.7537 9.46334 31.7789 9.67515 32.7023C9.75139 33.3674 9.93778 34.0833 10.1919 34.8881C12.6743 36.1335 15.4658 36.8367 18.4226 36.8367H141.747C151.901 36.8367 160.165 28.5764 160.165 18.4184C160.165 8.2603 151.901 0 141.743 0Z" fill="#ABABAB"/>
<path d="M106.94 16.9195C107.423 17.0254 108.007 17.2076 108.689 17.4702L108.943 16.5891L109.193 15.7038H103.191L102.873 16.6399L102.56 17.5676C103.114 17.2753 103.813 17.0635 104.656 16.9449L105.105 16.8941V21.3631C105.105 21.9689 105.08 22.4391 105.025 22.7822C104.97 23.1253 104.872 23.4303 104.733 23.7014H107.084C106.94 23.4218 106.846 23.1126 106.787 22.7695C106.732 22.4306 106.707 21.9604 106.707 21.3631V16.8771L106.948 16.9237L106.94 16.9195ZM121.948 21.3589V18.0463C121.948 17.4236 121.969 16.9364 122.02 16.5976C122.067 16.2544 122.156 15.9579 122.287 15.708H120.008C120.135 15.9664 120.224 16.2629 120.275 16.606C120.326 16.9492 120.355 17.4278 120.355 18.0463V18.9952H117.551V18.0463C117.551 17.6185 117.576 17.2372 117.627 16.8941C117.674 16.551 117.767 16.157 117.894 15.708H115.611C115.742 16.1485 115.831 16.5383 115.882 16.8856C115.933 17.2287 115.954 17.6185 115.954 18.0463V21.3589C115.954 21.9858 115.933 22.473 115.882 22.8161C115.835 23.1592 115.746 23.4515 115.611 23.6972H117.894C117.767 23.4388 117.678 23.1465 117.627 22.8034C117.576 22.4645 117.551 21.9816 117.551 21.3589V20.1008H120.355V21.3589C120.355 21.9858 120.33 22.473 120.283 22.8161C120.232 23.1592 120.148 23.4515 120.021 23.6972H122.3C122.173 23.4388 122.079 23.1465 122.028 22.8034C121.982 22.4645 121.952 21.9816 121.952 21.3589M127.908 22.5873H125.193C125.307 22.1892 125.413 21.7105 125.506 21.1428C125.718 19.8763 125.841 18.4318 125.875 16.8094H127.912V22.5831L127.908 22.5873ZM130.488 22.5873H129.501V18.0421C129.501 17.6142 129.526 17.233 129.577 16.8898C129.632 16.5467 129.717 16.1528 129.844 15.7038H124.036C124.168 16.157 124.252 16.551 124.295 16.8941C124.333 17.2372 124.333 17.6185 124.303 18.0421C124.223 19.1477 124.1 20.1686 123.918 21.1005C123.803 21.6978 123.672 22.1934 123.537 22.5831H122.613C122.651 22.6975 122.681 22.8839 122.715 23.1465C122.766 23.532 122.782 23.9429 122.761 24.3877C122.744 24.8325 122.689 25.1883 122.613 25.4509H124.591C124.511 25.1883 124.46 24.8325 124.439 24.3834V23.693H128.654C128.671 23.909 128.666 24.142 128.654 24.3834C128.632 24.8282 128.59 25.1883 128.51 25.4509H130.488C130.407 25.1883 130.357 24.8325 130.34 24.3834C130.318 23.9386 130.34 23.5235 130.386 23.1423C130.416 22.8796 130.446 22.6975 130.488 22.5831M145.352 15.6995L145.039 16.6357L144.721 17.5634C145.28 17.2711 145.975 17.0593 146.818 16.9407L147.267 16.8898V21.3589C147.267 21.9646 147.241 22.4348 147.186 22.778C147.131 23.1168 147.03 23.4261 146.89 23.6972H149.245C149.105 23.4176 149.008 23.1084 148.953 22.7653C148.898 22.4264 148.868 21.9562 148.868 21.3589V16.8729L149.114 16.9195C149.592 17.0254 150.177 17.2076 150.859 17.4702L151.113 16.5891L151.367 15.7038H145.361L145.352 15.6995ZM76.2113 22.6H75.1565C74.4322 22.6 73.8434 22.0112 73.8434 21.2826C73.8434 20.554 74.4322 19.9695 75.1565 19.9695H76.2113V22.6ZM77.8083 21.3504V18.22C77.8083 17.3262 77.5923 16.6484 77.1602 16.1994C76.7239 15.7461 76.0758 15.5216 75.2159 15.5216C74.9109 15.5216 74.6101 15.5513 74.3178 15.6106C74.0255 15.6699 73.7205 15.7673 73.4071 15.9028L72.9665 17.4363C73.2969 17.2076 73.5977 17.0423 73.873 16.9407C74.1484 16.8433 74.4322 16.7924 74.7245 16.7924C75.182 16.7924 75.542 16.9195 75.8131 17.1779C76.08 17.4321 76.2156 17.7794 76.2156 18.2157V18.9443L73.8646 19.9144C73.3605 20.122 72.958 20.4142 72.6615 20.7743C72.365 21.1386 72.2167 21.5241 72.2167 21.935C72.2167 22.5535 72.4243 23.0279 72.8479 23.3625C73.2715 23.693 73.8688 23.8624 74.6525 23.8624L74.9786 23.8497L76.2198 22.922V23.6887H78.1006C77.9905 23.4769 77.9185 23.2016 77.8761 22.8627C77.8337 22.5238 77.8126 22.0197 77.8126 21.3504M83.5778 21.8799C83.2178 22.3586 82.7137 22.6 82.0528 22.6C81.5191 22.6 81.0743 22.3586 80.71 21.8884V17.4871C80.8752 17.3939 81.0362 17.3135 81.1929 17.2499C81.5657 17.0974 81.9003 17.0212 82.1926 17.0212C82.7814 17.0212 83.2516 17.2753 83.5948 17.7837C83.9379 18.292 84.1116 18.9782 84.1116 19.8466C84.1116 20.715 83.9337 21.4097 83.5778 21.8842M82.9085 15.5258C82.5569 15.5258 82.2519 15.5809 82.002 15.6995L81.8029 15.8012L80.7142 17.0889V15.6995H78.7784C78.9055 16.1401 78.9944 16.534 79.0452 16.8771C79.0961 17.2203 79.1173 17.61 79.1173 18.0378V23.8878C79.1173 24.3241 79.0961 24.7138 79.0452 25.057C78.9944 25.4001 78.9055 25.7898 78.7784 26.2261H81.0574C80.9303 25.7813 80.8413 25.3874 80.7863 25.0443C80.7354 24.7011 80.71 24.3157 80.71 23.892V23.0703C81.3285 23.5998 82.0486 23.8751 82.8746 23.8709C83.7981 23.8709 84.5098 23.5193 85.0054 22.8076C85.5052 22.1002 85.7509 21.0963 85.7509 19.7915C85.7509 18.4868 85.4883 17.4998 84.963 16.7119C84.4377 15.9198 83.7515 15.5301 82.9043 15.5301M95.3286 16.6399C95.4049 16.2968 95.5362 15.9833 95.7268 15.7038H93.6342C93.63 15.8478 93.558 16.0384 93.4309 16.2841C93.2996 16.5298 93.1217 16.7797 92.9099 17.0339L91.0121 19.3595L91.0036 19.3637H91.0121L88.8644 16.767C88.7204 16.6018 88.606 16.4196 88.5128 16.2248C88.4196 16.0299 88.373 15.8563 88.3688 15.7038H86.2296L86.7803 16.3519V21.3589C86.7803 21.7952 86.7591 22.1849 86.7083 22.528C86.6617 22.8712 86.5727 23.2609 86.4414 23.6972H88.7204C88.5933 23.2524 88.5001 22.8542 88.4493 22.5153C88.4027 22.1722 88.373 21.7867 88.373 21.3589V18.2708L90.9952 21.4521L93.6173 18.2708V21.3589C93.6173 21.7994 93.5961 22.1934 93.5453 22.5365C93.4987 22.8796 93.4055 23.2693 93.2784 23.6972H95.5574C95.4303 23.2524 95.3414 22.8542 95.2905 22.5153C95.2397 22.1722 95.2143 21.7867 95.2143 21.3589V18.0463C95.2143 17.4532 95.2481 16.983 95.3244 16.6399M100.293 22.6255C99.5477 22.6255 98.9547 22.3544 98.5184 21.8079C98.0778 21.2615 97.8618 20.5286 97.8618 19.6009C97.8618 18.6732 98.0694 17.9743 98.4803 17.4405C98.8954 16.911 99.4546 16.6442 100.158 16.6442C100.509 16.6442 100.827 16.7162 101.119 16.856C101.412 17 101.704 17.2287 101.996 17.5464L102.077 15.7038C101.662 15.6317 101.344 15.5851 101.111 15.5597C100.878 15.5385 100.603 15.5258 100.289 15.5258C99.1157 15.5258 98.1414 15.9452 97.3619 16.7839C96.5825 17.6227 96.1928 18.6775 96.1928 19.944C96.1928 21.0708 96.5444 22.007 97.2476 22.7525C97.9508 23.4981 98.8319 23.8709 99.8909 23.8709C100.196 23.8709 100.458 23.8539 100.683 23.8243C100.908 23.7946 101.196 23.7353 101.56 23.6421L102.191 22.1129C101.725 22.3035 101.357 22.4348 101.077 22.5111C100.806 22.5831 100.543 22.6212 100.285 22.6212M112.802 22.6043H111.752C111.027 22.6043 110.434 22.0155 110.434 21.2869C110.434 20.5583 111.023 19.9737 111.752 19.9737H112.802V22.6043ZM114.399 21.3547V18.2242C114.399 17.3304 114.183 16.6526 113.747 16.2036C113.315 15.7504 112.663 15.5258 111.803 15.5258C111.498 15.5258 111.197 15.5555 110.905 15.6148C110.612 15.6741 110.307 15.7715 109.994 15.9071L109.553 17.4405C109.884 17.2118 110.18 17.0466 110.456 16.9449C110.731 16.8475 111.015 16.7967 111.307 16.7967C111.765 16.7967 112.125 16.9237 112.396 17.1821C112.663 17.4363 112.798 17.7837 112.798 18.22V18.9486L110.447 19.9186C109.943 20.1262 109.541 20.4185 109.248 20.7785C108.952 21.1428 108.804 21.5283 108.804 21.9392C108.804 22.5577 109.015 23.0321 109.435 23.3668C109.858 23.7014 110.456 23.8666 111.239 23.8666L111.561 23.8539L112.802 22.9262V23.693H114.687C114.581 23.4811 114.505 23.2058 114.467 22.8669C114.425 22.528 114.404 22.0239 114.404 21.3547M134.872 22.6043H133.822C133.093 22.6043 132.504 22.0155 132.504 21.2869C132.504 20.5583 133.093 19.9737 133.822 19.9737H134.872V22.6043ZM136.469 21.3547V18.2242C136.469 17.3304 136.253 16.6526 135.821 16.2036C135.385 15.7504 134.737 15.5258 133.872 15.5258C133.567 15.5258 133.271 15.5555 132.974 15.6148C132.682 15.6741 132.377 15.7715 132.064 15.9071L131.623 17.4405C131.954 17.2118 132.254 17.0466 132.525 16.9449C132.801 16.8475 133.085 16.7967 133.377 16.7967C133.834 16.7967 134.194 16.9237 134.466 17.1821C134.737 17.4363 134.872 17.7837 134.872 18.22V18.9486L132.517 19.9186C132.013 20.1262 131.615 20.4185 131.318 20.7785C131.022 21.1428 130.869 21.5283 130.869 21.9392C130.869 22.5577 131.081 23.0321 131.505 23.3668C131.928 23.6972 132.525 23.8666 133.309 23.8666L133.631 23.8539L134.872 22.9262V23.693H136.753C136.647 23.4811 136.575 23.2058 136.528 22.8669C136.49 22.528 136.465 22.0239 136.465 21.3547M142.256 21.8842C141.896 22.3628 141.391 22.6043 140.731 22.6043C140.197 22.6043 139.752 22.3628 139.384 21.8926V17.4914C139.549 17.3982 139.714 17.3177 139.871 17.2542C140.244 17.1017 140.578 17.0254 140.87 17.0254C141.459 17.0254 141.925 17.2796 142.273 17.7879C142.62 18.2962 142.794 18.9825 142.794 19.8509C142.794 20.7192 142.616 21.414 142.26 21.8884M141.586 15.5301C141.235 15.5301 140.93 15.5851 140.68 15.7038L140.481 15.8054L139.388 17.0932V15.7038H137.456C137.583 16.1443 137.672 16.534 137.723 16.8814C137.77 17.2245 137.795 17.6142 137.795 18.0421V23.892C137.795 24.3284 137.77 24.7181 137.723 25.0612C137.672 25.4043 137.583 25.794 137.456 26.2304H139.735C139.608 25.7856 139.515 25.3916 139.468 25.0485C139.417 24.7054 139.388 24.3199 139.388 23.8963V23.0745C140.006 23.604 140.731 23.8793 141.557 23.8751C142.48 23.8751 143.192 23.5235 143.692 22.8119C144.187 22.1044 144.437 21.1005 144.437 19.7958C144.437 18.4911 144.17 17.5041 143.649 16.7162C143.124 15.9283 142.442 15.5343 141.591 15.5343M69.1922 20.4058C68.5991 20.9268 67.8028 21.2191 66.8073 21.2826L66.7903 20.3677V15.5216L66.8158 14.6024C67.8028 14.6702 68.5864 14.9624 69.1795 15.4792C69.8615 16.0723 70.2046 16.8941 70.2046 17.9489C70.2046 19.0036 69.8615 19.817 69.188 20.41M65.0409 20.3677L65.0154 21.2826C64.0284 21.2149 63.2448 20.9226 62.656 20.4058C61.974 19.8127 61.6351 18.9952 61.6351 17.9446C61.6351 16.8941 61.9739 16.0638 62.6517 15.475C63.2448 14.9624 64.0411 14.6702 65.0197 14.5939L65.0409 15.5216V20.3677ZM70.5859 14.5558C69.6793 13.8272 68.4593 13.4205 66.9301 13.3443C66.981 12.963 67.0699 12.5733 67.1885 12.1836H64.6384C64.7486 12.586 64.8375 12.9757 64.9011 13.3443C63.3761 13.4248 62.1603 13.8229 61.2581 14.5473C60.2329 15.3691 59.7246 16.5001 59.7246 17.9446C59.7246 19.3891 60.2329 20.5201 61.2454 21.3335C62.1476 22.0536 63.3676 22.456 64.9011 22.5365C64.8375 22.9135 64.7486 23.3032 64.6384 23.6972H67.1885C67.0699 23.3075 66.981 22.9178 66.9259 22.5365C68.4551 22.456 69.6751 22.0578 70.5816 21.3335C71.594 20.5201 72.1024 19.3891 72.1024 17.9446C72.1024 16.5001 71.5898 15.3691 70.5816 14.5558" fill="#ABABAB"/>
</svg>
