<svg width="126" height="56" viewBox="0 0 126 56" fill="none" xmlns="http://www.w3.org/2000/svg">
<path d="M33.25 27.572C33.25 30.7264 30.6925 33.269 27.5625 33.2499C24.4325 33.2499 21.875 30.6882 21.875 27.5529C21.875 24.3986 24.4325 21.856 27.5625 21.8751C30.7116 21.8942 33.25 24.4368 33.25 27.572Z" fill="#ABABAB"/>
<path d="M27.8569 0C23.5258 0 19.4163 0.981674 15.75 2.72008C20.6451 2.20879 25.7216 4.35625 29.4685 8.18074C31.3419 10.0623 32.9938 12.4961 34.3838 15.4412C42.3409 16.8932 47.7397 12.8847 49.875 10.4918C44.6374 4.09036 36.7206 0 27.8569 0Z" fill="#ABABAB"/>
<path d="M11.5072 5.33345C7.64106 8.23083 4.56798 12.094 2.625 16.5485C4.9645 17.1201 11.9632 19.3867 15.175 28C16.1465 27.6846 18.2283 26.4823 19.6756 21.8307C21.4401 16.1345 24.6718 10.6355 28.875 8.19141C24.2357 3.73694 17.237 1.78564 11.5072 5.33345Z" fill="#ABABAB"/>
<path d="M52.3939 42.2876C54.4796 38.5858 55.6686 34.6054 56 30.625C54.0508 35.0432 49.8404 38.3469 44.8309 39.6804C42.3749 40.3769 39.5485 40.576 36.4492 40.3571C31.4007 46.4471 32.1025 53.0147 33.0381 56C40.913 54.6268 48.1056 49.8503 52.3939 42.2876Z" fill="#ABABAB"/>
<path d="M55.9933 24.8175C55.393 19.9766 53.5522 15.3357 50.6109 11.375C48.9301 13.1153 43.4076 18.0763 34.2034 16.516C33.9833 17.5161 34.0033 19.9366 37.3649 23.5573C41.4867 27.9981 44.7082 33.5991 44.7282 38.5C50.971 36.7397 56.2134 31.5987 55.9933 24.8175Z" fill="#ABABAB"/>
<path d="M3.89833 42.5239C6.09078 46.2608 9.04137 49.3146 12.4223 51.625C9.49216 47.6671 8.77499 42.2226 10.1888 37.0995C10.865 34.568 12.1559 31.9362 14 29.3043C11.2133 21.7301 4.98429 19.038 1.82879 18.375C-1.08082 26.0496 -0.609523 34.8694 3.89833 42.5239Z" fill="#ABABAB"/>
<path d="M17.1832 53.8112C21.6128 55.6638 26.4755 56.3658 31.3185 55.8198C30.6491 53.5381 29.1332 46.4786 35 39.4776C34.2519 38.8146 32.1651 37.6445 27.4205 38.6976C21.6128 40.0042 15.2342 39.9847 11.0408 37.625C9.46583 43.7679 11.2771 50.691 17.1832 53.8112Z" fill="#ABABAB"/>
<path d="M63.4316 23.625H66.0824C68.0897 23.625 69.1706 24.4644 69.1706 25.9142C69.1706 27.2624 68.3471 28 67.2919 28.2289C68.1155 28.5341 68.553 30.4673 69.5566 32.375H68.2441C66.6228 29.1701 67.0089 28.4833 65.4648 28.4833H64.5897V32.375H63.4574V23.625H63.4316ZM64.564 27.4404H66.1338C67.2147 27.4404 67.9096 27.0589 67.9096 26.016C67.9096 25.1512 67.3434 24.6679 65.9795 24.6679H64.5383V27.4404H64.564Z" fill="#ABABAB"/>
<path d="M71.75 28C71.75 25.2811 73.3452 23.625 75.6495 23.625C78.2323 23.625 79.625 25.4294 79.625 28C79.625 30.8919 77.9538 32.375 75.6749 32.375C73.2693 32.375 71.75 30.6942 71.75 28ZM78.4349 28C78.4349 25.6765 77.3714 24.6384 75.6495 24.6384C74.1302 24.6384 72.9401 25.726 72.9401 28C72.9401 30.2246 74.0796 31.3616 75.8015 31.3616C77.4221 31.3616 78.4349 30.1998 78.4349 28Z" fill="#ABABAB"/>
<path d="M82.5304 30.7236C82.9381 30.9947 83.6517 31.3398 84.5437 31.3398C85.716 31.3398 86.2767 30.8222 86.2767 29.9349C86.2767 28.949 85.7925 28.6778 84.5947 28.2342L84.2888 28.1356C83.0146 27.6672 82.4029 27.1003 82.4029 25.794C82.4029 24.4137 83.4733 23.625 85.2063 23.625C86.2767 23.625 87.0923 23.9454 87.2707 24.0933L86.9903 25.0299C86.3532 24.7341 85.665 24.6602 85.1299 24.6602C84.1614 24.6602 83.6007 25.0546 83.6007 25.8187C83.6007 26.4842 83.8811 26.8785 85.2573 27.3715L85.5886 27.4947C87.1177 28.0616 87.5 28.7764 87.5 29.8856C87.5 31.4877 86.3531 32.375 84.6711 32.375C83.7536 32.375 82.8616 32.1286 82.25 31.7342L82.5304 30.7236Z" fill="#ABABAB"/>
<path d="M95.0786 30.0349H91.2706L90.4157 32.375H89.25L92.6435 23.625H93.7833L97.125 32.375H95.9334L95.0786 30.0349ZM91.6591 29.0175H94.7418L93.2393 24.8968H93.1875L91.6591 29.0175Z" fill="#ABABAB"/>
<path d="M101.606 32.375H100.519V24.6679H98V23.625H104.125V24.6679H101.606V32.375Z" fill="#ABABAB"/>
<path d="M105.875 28C105.875 25.2811 107.47 23.625 109.775 23.625C112.357 23.625 113.75 25.4294 113.75 28C113.75 30.8919 112.079 32.375 109.8 32.375C107.394 32.375 105.875 30.6942 105.875 28ZM112.56 28C112.56 25.6765 111.496 24.6384 109.775 24.6384C108.255 24.6384 107.065 25.726 107.065 28C107.065 30.2246 108.205 31.3616 109.926 31.3616C111.572 31.3616 112.56 30.1998 112.56 28Z" fill="#ABABAB"/>
<path d="M125.125 32.375H124.028L123.505 25.5327L121.336 32.375H120.164L118.02 25.5581L117.472 32.375H116.375L117.098 23.625H118.469L120.762 31.1541L123.031 23.625H124.402L125.125 32.375Z" fill="#ABABAB"/>
</svg>
