<svg width="150" height="46" viewBox="0 0 150 46" fill="none" xmlns="http://www.w3.org/2000/svg">
<g clip-path="url(#clip0_7564_62400)">
<path fill-rule="evenodd" clip-rule="evenodd" d="M5.91992 5.88947H21.3935L15.4755 0.000976562H0.00195312V15.3975L5.91992 21.286V5.88947ZM24.5885 5.88947H40.062V21.286L45.98 15.3975V0.000976562H30.5064L24.5885 5.88947ZM40.062 24.465V39.8615H24.5885L30.5064 45.75H45.98V30.3535L40.062 24.465ZM21.3935 39.8615H5.91992V24.465L0.00195312 30.3535V45.75H15.4755L21.3935 39.8615Z" fill="#ABABAB"/>
<path fill-rule="evenodd" clip-rule="evenodd" d="M83.6311 34.867C85.6061 34.867 87.2086 36.6568 87.2086 38.8617C87.2086 41.0666 85.6061 42.8565 83.6311 42.8565C81.6563 42.8565 80.0538 41.0666 80.0538 38.8617C80.0538 36.6568 81.6563 34.867 83.6311 34.867ZM83.6311 31.8235C87.5659 31.8235 90.7569 34.9754 90.7569 38.8618C90.7569 42.7481 87.5659 45.9 83.6311 45.9C79.6965 45.9 76.5055 42.7481 76.5055 38.8618C76.5055 34.9754 79.6965 31.8235 83.6311 31.8235ZM100.296 34.867C101.517 34.867 102.665 35.4112 103.311 36.4547L105.652 34.221C104.346 32.7516 102.43 31.8235 100.296 31.8235C96.361 31.8235 93.17 34.9754 93.17 38.8618C93.17 42.7481 96.361 45.9 100.296 45.9C102.48 45.9 104.434 44.9283 105.741 43.3994L103.309 41.3272C102.66 42.3376 101.494 42.8565 100.296 42.8565C98.3208 42.8565 96.7184 41.0666 96.7184 38.8617C96.7184 36.6568 98.3208 34.867 100.296 34.867ZM123.85 39.7855H134.085C134.123 39.4832 134.143 39.1748 134.143 38.8618C134.143 34.9754 131.066 31.8235 127.27 31.8235C123.475 31.8235 120.398 34.9754 120.398 38.8618C120.398 42.7481 123.475 45.9 127.27 45.9C129.435 45.9 131.923 45.5344 133.183 43.9326L131.618 41.6791C130.833 42.802 128.757 43.1147 127.432 43.1147C125.68 43.1147 124.214 41.6893 123.85 39.7855ZM123.928 37.5975C124.392 35.8667 125.786 34.6087 127.431 34.6087C129.077 34.6087 130.471 35.8667 130.935 37.5975H123.928ZM107.808 32.1451H118.823V35.165H115.016V45.5783H111.615V35.165H107.808V32.1451ZM139.773 38.6531L135.137 32.1451H139.233L142.008 36.3035L144.783 32.1451H148.879L144.242 38.6531L149.089 45.5783H145.131L142.008 41.082L138.885 45.5783H134.927L139.773 38.6531ZM142.008 36.9327L141.992 36.9592L142.008 36.9595L142.024 36.9592L142.008 36.9327ZM68.2315 30.3807C69.7087 30.3807 70.9067 31.5727 70.9067 33.0426C70.9067 34.5125 69.7087 35.7045 68.2315 35.7045H63.7224V30.3807H68.2315ZM59.9863 27.2197H69.0005C72.232 27.2197 74.8526 29.8273 74.8526 33.0425C74.8526 36.2581 72.2319 38.8655 69.0005 38.8655H63.7224V45.5783H59.9863V27.2197Z" fill="black"/>
<path fill-rule="evenodd" clip-rule="evenodd" d="M83.6311 34.867C85.6061 34.867 87.2086 36.6568 87.2086 38.8617C87.2086 41.0666 85.6061 42.8565 83.6311 42.8565C81.6563 42.8565 80.0538 41.0666 80.0538 38.8617C80.0538 36.6568 81.6563 34.867 83.6311 34.867ZM83.6311 31.8235C87.5659 31.8235 90.7569 34.9754 90.7569 38.8618C90.7569 42.7481 87.5659 45.9 83.6311 45.9C79.6965 45.9 76.5055 42.7481 76.5055 38.8618C76.5055 34.9754 79.6965 31.8235 83.6311 31.8235ZM100.296 34.867C101.517 34.867 102.665 35.4112 103.311 36.4547L105.652 34.221C104.346 32.7516 102.43 31.8235 100.296 31.8235C96.361 31.8235 93.17 34.9754 93.17 38.8618C93.17 42.7481 96.361 45.9 100.296 45.9C102.48 45.9 104.434 44.9283 105.741 43.3994L103.309 41.3272C102.66 42.3376 101.494 42.8565 100.296 42.8565C98.3208 42.8565 96.7184 41.0666 96.7184 38.8617C96.7184 36.6568 98.3208 34.867 100.296 34.867ZM123.85 39.7855H134.085C134.123 39.4832 134.143 39.1748 134.143 38.8618C134.143 34.9754 131.066 31.8235 127.27 31.8235C123.475 31.8235 120.398 34.9754 120.398 38.8618C120.398 42.7481 123.475 45.9 127.27 45.9C129.435 45.9 131.923 45.5344 133.183 43.9326L131.618 41.6791C130.833 42.802 128.757 43.1147 127.432 43.1147C125.68 43.1147 124.214 41.6893 123.85 39.7855ZM123.928 37.5975C124.392 35.8667 125.786 34.6087 127.431 34.6087C129.077 34.6087 130.471 35.8667 130.935 37.5975H123.928ZM107.808 32.1451H118.823V35.165H115.016V45.5783H111.615V35.165H107.808V32.1451ZM139.773 38.6531L135.137 32.1451H139.233L142.008 36.3035L144.783 32.1451H148.879L144.242 38.6531L149.089 45.5783H145.131L142.008 41.082L138.885 45.5783H134.927L139.773 38.6531ZM142.008 36.9327L141.992 36.9592L142.008 36.9595L142.024 36.9592L142.008 36.9327ZM68.2315 30.3807C69.7087 30.3807 70.9067 31.5727 70.9067 33.0426C70.9067 34.5125 69.7087 35.7045 68.2315 35.7045H63.7224V30.3807H68.2315ZM59.9863 27.2197H69.0005C72.232 27.2197 74.8526 29.8273 74.8526 33.0425C74.8526 36.2581 72.2319 38.8655 69.0005 38.8655H63.7224V45.5783H59.9863V27.2197Z" fill="#ABABAB"/>
</g>
<defs>
<clipPath id="clip0_7564_62400">
<rect width="149.4" height="45.9" fill="white"/>
</clipPath>
</defs>
</svg>
