<svg width="135" height="37" viewBox="0 0 135 37" fill="none" xmlns="http://www.w3.org/2000/svg">
<path d="M106.299 10.81L111.137 7.2041H94.9375V28.8041H111.137V25.1982H99.5661V19.6833H109.454V16.0774H99.5661V10.81H106.299Z" fill="#ABABAB"/>
<path d="M82.9295 15.6178H77.1805V10.81H86.3789L91.3375 7.2041H72.4375V28.8041H82.3187C87.8521 28.8041 91.0501 26.3295 91.0501 22.0165C91.0501 17.8804 88.1755 15.6178 82.9295 15.6178ZM82.139 25.1982H77.1805V19.2237H82.139C85.1573 19.2237 86.5586 20.2136 86.5586 22.2287C86.5586 24.2437 85.0495 25.1982 82.139 25.1982Z" fill="#ABABAB"/>
<path d="M125.361 7.2041H116.537V28.8041H121.178V22.6882H125.396C131.021 22.6882 134.537 19.7187 134.537 14.9462C134.537 10.1737 131.021 7.2041 125.361 7.2041ZM125.256 19.0823H121.143V10.81H125.256C128.244 10.81 129.861 12.2948 129.861 14.9462C129.861 17.5976 128.244 19.0823 125.256 19.0823Z" fill="#ABABAB"/>
<path d="M63.8679 24.6778C62.6284 25.3595 61.2472 25.7183 59.8306 25.7183C55.6162 25.7183 52.5705 22.6685 52.5705 18.4705C52.5705 14.2725 55.6162 11.2227 59.8306 11.2227C61.3534 11.1868 62.8409 11.6891 64.0804 12.5861L67.4448 10.0745L67.2323 9.85924C65.2845 8.10111 62.6638 7.2041 59.6889 7.2041C56.4661 7.2041 53.5267 8.31639 51.4018 10.3257C49.2769 12.4067 48.0728 15.313 48.1436 18.327C48.1082 21.3768 49.2769 24.319 51.4018 26.4718C53.6329 28.5887 56.6078 29.7728 59.6535 29.701C63.0179 29.701 65.9574 28.517 67.9406 26.3642L64.9303 24.1037L63.8679 24.6778Z" fill="#ABABAB"/>
<path d="M33.3647 7.2041C34.2208 8.27718 34.9342 9.4541 35.5406 10.7003L19.0607 22.5041L12.1406 18.281V13.2272L19.0251 17.4156L33.3647 7.2041Z" fill="#ABABAB"/>
<path fill-rule="evenodd" clip-rule="evenodd" d="M32.4 18.45C32.4 26.1544 26.1544 32.4 18.45 32.4C10.7456 32.4 4.5 26.1544 4.5 18.45C4.5 10.7456 10.7456 4.5 18.45 4.5C21.1858 4.5 23.7377 5.28755 25.8913 6.6483L29.7933 3.89796C26.6643 1.45539 22.7271 0 18.45 0C8.26035 0 0 8.26035 0 18.45C0 28.6397 8.26035 36.9 18.45 36.9C28.6397 36.9 36.9 28.6397 36.9 18.45C36.9 17.1131 36.7578 15.8093 36.4877 14.5531L32.3653 17.4587C32.3883 17.7862 32.4 18.1167 32.4 18.45Z" fill="#ABABAB"/>
</svg>
