<svg width="155" height="36" viewBox="0 0 155 36" fill="none" xmlns="http://www.w3.org/2000/svg">
<path d="M44.7427 0H39.8652V28.8296H44.7427V0Z" fill="#B5B5B5"/>
<path d="M11.7084 15.8057C9.7381 13.5848 8.33274 12.3541 6.39693 10.5114C5.78381 9.87199 5.50136 9.43195 5.50136 8.39372C5.50136 7.05985 5.50136 6.75732 5.50825 6.0835V5.19654C5.50825 4.72212 5.89403 4.33709 6.36937 4.33709C6.42448 4.33709 6.47271 4.33709 6.52093 4.35084C6.5416 4.35084 6.56226 4.35771 6.57604 4.36459C6.57604 4.36459 6.58293 4.36459 6.58982 4.36459C6.95494 4.46772 7.22361 4.79775 7.22361 5.19654V10.4014H12.6453V5.25842C12.6453 1.43556 9.60721 0.0810547 6.29359 0.0810547C2.97997 0.0810547 -0.00297086 1.49744 0.00391816 5.28593V9.30819C0.00391816 10.6489 0.300146 11.3571 0.7686 12.196C2.22218 14.4856 5.15691 16.5483 6.44515 18.0678C7.15472 18.8722 7.21672 19.5185 7.21672 20.1786V23.3552C7.21672 23.3552 7.21672 23.6371 7.21672 23.8708V24.2559C7.21672 24.3521 7.19605 24.4415 7.1685 24.5309C7.1685 24.5309 7.1685 24.5309 7.1685 24.5378C7.11339 24.7097 7.01694 24.854 6.87916 24.9641C6.7896 25.0328 6.70693 25.0741 6.6036 25.1016C6.52093 25.1291 6.43137 25.1428 6.34182 25.1428C5.92159 25.1428 5.57025 24.8403 5.49447 24.4484C5.48069 24.3934 5.48069 24.3384 5.48069 24.2834V24.2696L5.46691 23.6852C5.46691 23.5064 5.46691 23.4308 5.46691 23.2864V18.0678H0.0521437V24.1596C0.0521437 27.9756 3.08331 29.3851 6.40382 29.3851C9.72432 29.3851 12.7624 27.9756 12.7624 23.9671V19.2985C12.7624 17.4146 12.411 16.5964 11.7084 15.8126" fill="#B5B5B5"/>
<path d="M25.5647 13.8417V10.7545C25.5647 7.30294 22.878 5.57715 19.8261 5.57715C16.7743 5.57715 14.1289 7.30294 14.1289 10.7545V23.9214C14.1289 27.3799 16.7398 29.1056 19.8261 29.1056C22.9124 29.1056 25.5647 27.3799 25.5647 23.9214V19.7273H20.6873V24.1277C20.6873 24.1758 20.6873 24.2239 20.6873 24.2652V24.499C20.6873 24.9253 20.3704 25.269 19.957 25.3172C19.957 25.3172 19.957 25.3172 19.9501 25.3172C19.9157 25.3172 19.8812 25.324 19.8399 25.324C19.6263 25.324 19.4679 25.2484 19.3439 25.1315C19.1579 24.9803 19.0408 24.7534 19.0408 24.4921V24.4096C19.027 24.3133 19.0201 24.2102 19.0201 24.1208V10.5551C19.0201 10.5001 19.0201 10.4451 19.027 10.3901V10.1632C19.027 9.70942 19.399 9.33813 19.8537 9.33813C20.3084 9.33813 20.6804 9.70942 20.6804 10.1632V10.287C20.6941 10.3764 20.701 10.4657 20.701 10.5551V13.8348H25.5785L25.5647 13.8417Z" fill="#B5B5B5"/>
<path d="M35.0867 5.58304C33.7778 5.58304 32.1313 6.47 31.9384 7.87951H31.7524V0H26.875V28.8296H31.7524V10.9804C31.7524 10.9254 31.7524 10.8773 31.7524 10.8223V10.6023C31.7524 10.2516 31.9729 9.94908 32.2829 9.83219C32.2967 9.83219 32.3104 9.82532 32.3242 9.81844C32.3311 9.81844 32.338 9.81844 32.3449 9.81844C32.3587 9.81844 32.3724 9.81844 32.3862 9.81157C32.4482 9.79781 32.5171 9.78406 32.586 9.78406C33.0407 9.78406 33.4127 10.1553 33.4127 10.616V10.8017C33.4127 10.8635 33.4196 10.9254 33.4196 10.9942V28.8434H38.297V10.6298C38.297 7.97577 38.1799 5.59679 35.0729 5.59679" fill="#B5B5B5"/>
<path d="M52.862 5.85742V23.7066C52.862 23.7548 52.862 23.8029 52.862 23.851V24.0848C52.862 24.5455 52.49 24.9167 52.0284 24.9167C51.9664 24.9167 51.9044 24.9099 51.8424 24.8961C51.7804 24.8824 51.7184 24.8617 51.6633 24.8342C51.3809 24.7036 51.188 24.4148 51.188 24.0848V23.8441C51.188 23.796 51.188 23.7548 51.188 23.7066V5.85742H46.3105V24.9924C46.3105 27.4126 47.1923 29.104 49.7275 29.104C51.188 29.104 52.8413 27.8114 52.8413 26.2438H52.9171L52.8689 28.8221H57.7463V5.85742H52.8689H52.862Z" fill="#B5B5B5"/>
<path d="M74.0677 5.58496C72.1044 5.58496 71.5601 6.43067 70.7059 7.96394C70.1272 6.10751 69.2868 5.58496 67.5576 5.58496C65.5943 5.58496 65.05 6.38941 64.2716 7.92268H64.1958V5.86686H59.3184V28.8316H64.1958V10.9824C64.1958 10.9205 64.1958 10.8586 64.2027 10.7898V10.6317C64.2027 10.1504 64.5885 9.76536 65.0707 9.76536C65.5529 9.76536 65.9387 10.1504 65.9387 10.6317V10.8792C65.9387 10.8792 65.9387 10.948 65.9387 10.9824V28.8316H70.8161V10.9824C70.8161 10.9205 70.8161 10.8517 70.823 10.783V10.6317C70.823 10.1504 71.2088 9.76536 71.691 9.76536C72.1733 9.76536 72.5591 10.1504 72.5591 10.6317V10.8861C72.5591 10.8861 72.5591 10.948 72.5591 10.9824V28.8316H77.4365V9.85474C77.4365 8.12208 77.1265 5.58496 74.054 5.58496" fill="#B5B5B5"/>
<path d="M86.9466 5.58304C85.4861 5.58304 84.2943 6.5525 83.8809 7.87951H83.8052V0H78.9277V28.8228H83.8052V26.4025H83.8809C84.2943 28.0183 85.4861 29.1047 86.9466 29.1047C89.9777 29.1047 90.3635 26.5263 90.3635 23.9548V10.616C90.3635 8.04452 89.9777 5.58304 86.9466 5.58304ZM85.4861 12.6031V24.0786C85.4861 24.5392 85.1141 24.9174 84.6456 24.9174C84.6387 24.9174 84.6318 24.9174 84.6181 24.9174C84.4596 24.9174 84.3218 24.8693 84.2185 24.8005C83.9705 24.6561 83.8052 24.388 83.8052 24.0786V22.0777V10.9804C83.8052 10.946 83.8052 10.9117 83.8052 10.8773V10.6023C83.8052 10.1416 84.1772 9.76343 84.6387 9.76343C85.1003 9.76343 85.4792 10.1347 85.4792 10.6023V12.6031H85.4861Z" fill="#B5B5B5"/>
<path d="M103.268 10.7614C103.268 7.30982 100.581 5.57715 97.5361 5.57715C94.4912 5.57715 91.832 7.30294 91.832 10.7614V23.9214C91.832 27.3799 94.443 29.1125 97.5361 29.1125C100.629 29.1125 103.268 27.3867 103.268 23.9214V19.7273H98.3904V24.1208C98.3904 24.1208 98.3904 24.1827 98.3904 24.2102V24.5058C98.3904 24.9665 98.0184 25.3378 97.5499 25.3378C97.0815 25.3378 96.7163 24.9665 96.7163 24.5058V24.1414C96.7163 24.1414 96.7163 24.1277 96.7163 24.1208V18.1115H103.275V10.7545L103.268 10.7614ZM98.3904 14.6874H96.7095V10.562C96.7095 10.5207 96.7095 10.4795 96.7095 10.4382V10.1907C96.7095 9.73005 97.0815 9.35189 97.543 9.35189C98.0046 9.35189 98.3766 9.73005 98.3766 10.1907V14.6874H98.3904Z" fill="#B5B5B5"/>
<path d="M113.181 5.58403C111.493 5.58403 110.439 6.42973 109.736 7.83924H109.661V5.86593H104.783V28.8306H109.661V10.9814C109.661 10.9814 109.661 10.9264 109.661 10.8989V10.6033C109.661 10.2595 109.874 9.95694 110.177 9.83318C110.219 9.81256 110.267 9.7988 110.322 9.78505H110.356C110.356 9.78505 110.356 9.77818 110.363 9.77818C110.405 9.77818 110.446 9.76442 110.494 9.76442C110.956 9.76442 111.328 10.1357 111.328 10.5964V10.837C111.328 10.8852 111.328 10.9264 111.328 10.9745V18.2352H116.205V9.60628C116.205 7.11042 115.592 5.57715 113.167 5.57715" fill="#B5B5B5"/>
<path d="M141.688 10.7623C141.688 7.31075 139.001 5.58496 135.956 5.58496C132.911 5.58496 130.252 7.31763 130.252 10.7623V23.9223C130.252 27.3808 132.863 29.1135 135.956 29.1135C139.049 29.1135 141.688 27.3877 141.688 23.9223V19.7282H136.81V22.4853V24.4999C136.81 24.9606 136.431 25.3387 135.963 25.3387C135.494 25.3387 135.122 24.9606 135.122 24.4999V22.4853V18.1193H141.681V10.7623H141.688ZM136.81 12.1925V14.6883H135.129V12.1925V10.1917C135.129 9.73098 135.508 9.35282 135.97 9.35282C136.431 9.35282 136.81 9.72411 136.81 10.1917V12.1925Z" fill="#B5B5B5"/>
<path d="M151.418 5.58496C149.73 5.58496 148.676 6.43067 147.967 7.84018H147.891V5.86686H143.014V28.8316H147.891V10.5973C147.891 10.1366 148.263 9.76536 148.725 9.76536C149.186 9.76536 149.565 10.1435 149.565 10.5973V10.893C149.565 10.893 149.565 10.9548 149.565 10.9824V18.243H154.443V9.6141C154.443 7.11823 153.829 5.58496 151.411 5.58496" fill="#B5B5B5"/>
<path d="M124.052 5.86686V8.00519H123.866C123.308 6.71257 122.027 5.58496 120.567 5.58496C118.341 5.58496 117.494 7.47577 117.494 9.6966V23.5373C117.494 25.7375 118.341 27.4152 120.567 27.4152C122.027 27.4152 123.308 26.4938 123.866 25.215H124.052V30.3373C124.052 30.3786 124.052 30.413 124.052 30.4542V30.7292C124.052 31.1899 123.68 31.5612 123.219 31.5612C122.757 31.5612 122.385 31.1899 122.385 30.7292V30.4955C122.385 30.4473 122.385 30.3992 122.385 30.3442V28.6459H117.508V29.911C117.508 33.6927 119.85 35.1022 123.246 35.1022C126.643 35.1022 128.944 33.6927 128.944 29.911V5.86686H124.066H124.052ZM124.052 22.5885C124.052 23.0491 123.674 23.4273 123.212 23.4273C122.75 23.4273 122.372 23.0491 122.372 22.5885V20.5808V10.5973C122.372 10.1366 122.75 9.76536 123.205 9.76536C123.66 9.76536 124.046 10.1366 124.046 10.5973V20.5808V22.5885H124.052Z" fill="#B5B5B5"/>
</svg>
