<svg width="163" height="52" viewBox="0 0 163 52" fill="none" xmlns="http://www.w3.org/2000/svg">
<path d="M10.6234 44.3524C3.73917 44.3524 0 39.2338 0 32.8203C0 26.3414 4.40129 21.0264 11.6279 21.0264C13.5463 21.0264 15.2107 21.2858 16.6573 22.0642V26.2432C14.739 25.0769 13.2016 24.8479 11.7867 24.8479C6.88425 24.8479 5.07475 28.5758 5.07475 32.4954C5.07475 36.8685 7.35363 40.3347 11.3445 40.3347C13.1064 40.3347 14.5236 39.8321 16.2197 38.8925L17.4419 42.2793C14.9 43.9317 12.7277 44.3524 10.6234 44.3524ZM88.0349 44.3524C82.942 44.3524 80.3344 40.4983 80.3344 35.8985C80.3344 30.7471 83.7924 27.3441 88.4113 27.3441C90.4544 27.3441 91.5224 27.7648 92.3705 28.2836V31.9789C91.2389 31.1351 90.3274 30.843 89.0712 30.843C86.4635 30.843 84.7833 32.8203 84.7833 35.6718C84.7833 38.2311 86.0848 40.725 89.0077 40.725C89.824 40.725 90.9056 40.3604 92.0666 39.7457L93.155 42.7981C91.8376 43.705 89.6381 44.3524 88.0349 44.3524ZM102.2 31.3618V44.0299H97.6742V31.3618H93.2752V27.6689H107.168L106.187 31.3618H102.2ZM124.087 29.5808C124.087 35.2815 123.867 38.2638 122.862 39.6241C122.359 40.3043 121.574 40.76 120.755 40.8862L122.012 44.3524C123.048 44.3197 124.653 43.8663 125.753 42.7327C127.2 41.2742 127.669 39.4278 127.889 37.4832C128.077 35.8307 128.204 33.8884 128.204 32.1705V31.3595H131.744V44.0275H136.27V27.6666H124.087V29.5808ZM72.7676 27.3441C71.008 27.3441 69.6565 28.2205 68.4933 29.1601L67.9899 27.6689H64.1872V52L68.7132 50.5743V43.6723C69.5318 44.1257 70.5998 44.3524 71.7631 44.3524C76.4455 44.3524 79.2731 40.2388 79.2731 35.3796C79.2731 30.1955 76.4138 27.3441 72.7676 27.3441ZM70.6633 40.9844C69.8447 40.9844 69.2166 40.6922 68.7132 40.337V32.5936C69.2484 31.7522 70.6633 30.7471 71.856 30.7471C73.6791 30.7471 74.7471 31.9462 74.7471 35.3165C74.7471 38.1026 73.7426 40.9844 70.6633 40.9844ZM113.672 27.3441C111.533 27.3441 109.463 27.6853 107.291 29.1344L108.663 31.9578C109.728 31.3385 111.1 30.857 112.706 30.857C114.275 30.857 115.678 31.5722 115.678 33.2924V33.5706L112.935 33.6781C108.93 33.816 106.225 35.6063 106.225 39.0491C106.225 42.2886 108.493 44.3524 111.499 44.3524C113.54 44.3524 114.942 43.5624 115.976 42.5971L116.678 44.0299H120.22V33.4046C120.22 29.0994 117.883 27.3441 113.672 27.3441ZM115.678 39.9794C115.245 40.323 114.341 40.7367 113.139 40.7367C111.599 40.7367 110.733 39.9443 110.733 38.7079C110.733 37.4668 111.667 36.7797 113.606 36.7095L115.678 36.6418V39.9794ZM145.061 32.9816H142.735V26.9561L138.209 28.2065V44.0299H143.993C148.204 44.0299 152.134 42.8612 152.134 38.3596C152.134 34.5382 148.959 32.9816 145.061 32.9816ZM144.306 40.8021H142.735V36.2351H144.245C145.846 36.2351 147.608 36.4945 147.608 38.4368C147.608 40.3487 146.098 40.8021 144.306 40.8021ZM43.8542 35.1202V34.9893C45.3304 34.6668 46.5571 33.6617 46.5571 31.5231C46.5571 28.9708 44.4778 28.0406 42.4347 27.7578C41.8089 27.6713 40.437 27.6689 39.6729 27.6689H33.2036V44.0299H38.6366C39.2375 44.0299 40.1332 44.0275 40.8316 44.0065C43.6887 43.8663 47.217 42.8145 47.217 39.0071C47.217 36.6745 45.9902 35.5082 43.8542 35.1202ZM37.818 30.7845H39.6729C41.5254 30.7845 42.2193 31.3689 42.2193 32.3739C42.2193 33.636 41.0878 34.024 39.2012 34.024H37.818V30.7845ZM39.5776 40.926H37.7228V36.9082H39.3577C41.5254 36.9082 42.6887 37.4271 42.6887 38.8855C42.6887 40.4398 41.149 40.926 39.5776 40.926ZM31.7138 35.7045C31.7138 30.649 28.6957 27.3441 24.3579 27.3441C19.6119 27.3441 16.9408 31.2964 16.9408 35.8985C16.9408 40.2061 19.2673 44.3524 24.9248 44.3524C26.8409 44.3524 28.9769 43.9013 31.1787 42.4733L30.1719 39.5259C28.3805 40.4024 27.2173 40.6923 25.6776 40.6923C23.5711 40.6923 21.5598 39.332 21.4645 37.1279H31.7138V35.7045ZM21.3716 33.9235C21.3716 32.4323 22.4101 30.7471 24.2309 30.7471C26.1515 30.7471 26.9973 32.3669 27.0926 33.9235H21.3716ZM62.8924 35.7045C62.8924 30.649 59.8744 27.3441 55.5366 27.3441C50.7906 27.3441 48.1194 31.2964 48.1194 35.8985C48.1194 40.2061 50.4459 44.3524 56.1034 44.3524C58.0195 44.3524 60.1578 43.9013 62.3573 42.4733L61.3505 39.5259C59.5614 40.4024 58.3959 40.6923 56.8563 40.6923C54.752 40.6923 52.7407 39.332 52.6454 37.1279H62.8924V35.7045ZM52.5502 33.9235C52.5502 32.4323 53.5887 30.7471 55.4096 30.7471C57.3279 30.7471 58.176 32.3669 58.2712 33.9235H52.5502Z" fill="#AEAFB0"/>
<path d="M160.19 16.1111C159.932 16.2958 159.666 16.4407 159.397 16.5295C158.501 16.8216 157.397 16.5529 156.406 16.1322C155.698 15.8306 154.957 15.4403 154.179 14.9471C154.585 13.9258 154.966 12.7595 155.29 11.4693C155.794 9.46624 156.034 7.70159 156.084 6.15198C156.116 5.19369 156.07 4.31721 155.968 3.5202C155.828 2.42402 155.501 1.30914 154.807 0.652366C154.587 0.449023 154.32 0.278401 154.02 0.138164C155.438 -0.0207709 156.696 -0.0324561 157.807 0.0516859C158.975 0.154526 160.163 0.45136 160.857 1.15254C161.551 1.85373 161.857 3.07612 161.979 4.27515C162.093 5.42041 162.102 6.7176 161.97 8.18541C161.837 9.63218 161.564 11.2402 161.118 13.0236H161.12C160.839 14.1268 160.517 15.1809 160.19 16.1111ZM143.077 15.2043C143.05 14.8817 143.061 14.5708 143.122 14.2857C143.324 13.3391 144.102 12.4907 144.952 11.8129C145.56 11.3337 146.256 10.8663 147.061 10.4175C147.717 11.2917 148.506 12.2125 149.429 13.1474C150.859 14.5989 152.222 15.6951 153.499 16.5131C154.288 17.0203 155.045 17.4177 155.766 17.7262C156.757 18.1469 157.857 18.4157 158.757 18.1235C159.038 18.0277 159.315 17.8758 159.583 17.6794C159.007 19.0234 158.388 20.1546 157.762 21.1035C157.091 22.0945 156.249 23.0084 155.313 23.2749C154.376 23.5437 153.197 23.2071 152.129 22.7163C151.111 22.2465 150.016 21.6037 148.848 20.7529C147.701 19.9115 146.483 18.8644 145.209 17.5719C144.422 16.7749 143.694 15.9615 143.077 15.2043ZM152.372 0.378905C152.658 0.516804 152.911 0.682751 153.12 0.879082C153.814 1.53352 154.138 2.65307 154.283 3.74926C154.383 4.52991 154.426 5.38769 154.401 6.32961C153.338 6.47686 152.17 6.71994 150.923 7.07754C148.989 7.62914 147.385 8.2976 146.059 9.02917C145.238 9.48026 144.524 9.95706 143.907 10.4479C143.057 11.121 142.281 11.9695 142.077 12.9184C142.016 13.2176 142.005 13.5401 142.039 13.8767C141.197 12.6917 140.556 11.5721 140.073 10.539C139.574 9.4452 139.229 8.23683 139.472 7.26686C139.714 6.29689 140.587 5.41106 141.533 4.7052C142.438 4.02973 143.524 3.37296 144.823 2.75825C146.104 2.15524 147.594 1.59195 149.315 1.10112C150.381 0.792602 151.428 0.551863 152.372 0.378905Z" fill="#AEAFB0"/>
</svg>
