<svg width="124" height="24" viewBox="0 0 124 24" fill="none" xmlns="http://www.w3.org/2000/svg">
<path d="M27.5186 24H35.5907C38.2017 24 38.6577 22.4057 38.8043 20.9729C38.94 19.646 40.7857 0 40.7857 0H32.757C30.4663 0 29.6683 1.22094 29.5 3.21884C29.386 4.21778 27.5186 24 27.5186 24Z" fill="#AEAFB0"/>
<path d="M83.3093 18.3696H80.4974L82.2291 0H71.2203C71.2203 0 69.342 20.3221 69.228 21.3311C69.2323 22.0364 69.5357 22.7116 70.0723 23.2103C70.6088 23.709 71.3354 23.991 72.0942 23.995H91.1643C91.8762 23.9933 92.5623 23.7463 93.0897 23.3018C93.6171 22.8573 93.9484 22.2468 94.0196 21.5884C94.1336 20.4078 96.0444 0 96.0444 0H85.0356L83.3093 18.3696Z" fill="#AEAFB0"/>
<path d="M5.01409 0C3.04901 0 1.97418 0.948497 1.75704 3.17847C1.67019 4.29346 0.980779 11.503 0.893925 12.5424C0.80707 13.5817 1.21963 14.4949 2.61473 14.4949H14.5572L14.1338 19.0053H11.2893L11.4848 16.9266H0.475937C0.475937 16.9266 0.166517 20.5188 0.0253783 21.7599C-0.115761 23.0011 0.302228 24 2.02846 24H21.5708C24.6704 24 24.8278 21.8861 25.0069 20.2867C25.1752 18.8034 25.8049 11.8209 25.8918 10.938C25.9163 10.7504 25.8959 10.5602 25.832 10.3808C25.7681 10.2014 25.6624 10.0374 25.5223 9.9005C25.3822 9.76357 25.2113 9.65712 25.0218 9.58878C24.8323 9.52043 24.6289 9.49187 24.4261 9.50515H12.185L12.6084 4.9897H15.4584L15.2629 7.06328H26.2718C26.2718 7.06328 26.5975 3.02712 26.744 1.91717C26.8906 0.807231 26.2392 0 24.9689 0H5.01409Z" fill="#AEAFB0"/>
<path d="M43.5841 0L41.3259 23.995H63.349C65.2055 23.995 66.2532 22.9254 66.4214 21.0738C66.492 20.3221 66.7363 17.7793 66.9317 15.6855C66.9962 15.3318 66.9542 14.9684 66.8105 14.6355C66.6668 14.3025 66.427 14.0129 66.1175 13.7986L63.5118 12.0177C63.5118 12.0177 66.0035 10.5041 66.6549 10.1156C67.3063 9.72714 67.5343 9.23775 67.6157 8.31448C67.7948 6.22073 68.0337 3.83435 68.088 3.17343C68.2345 1.44293 67.1869 0 64.9449 0H43.5841ZM56.9326 4.9897L56.5092 9.53038H53.6972L54.1207 5.01493L56.9326 4.9897ZM53.225 14.4949H56.0369L55.6135 19.0355H52.8016L53.225 14.4949Z" fill="#AEAFB0"/>
<path d="M120.606 0H98.8597L96.6287 24H107.637L108.338 16.5735H111.133L110.433 23.995H121.442C121.442 23.995 121.925 18.7177 122.012 17.9407C122.089 17.5435 122.048 17.1343 121.893 16.7573C121.738 16.3803 121.475 16.0498 121.133 15.8016L118.619 14.0811C118.619 14.0811 120.856 12.7391 121.561 12.2951C122.267 11.8512 122.647 11.3719 122.761 10.0097C122.875 8.64747 123.353 3.77885 123.423 2.86567C123.447 2.50431 123.392 2.14226 123.262 1.80098C123.132 1.4597 122.93 1.14614 122.667 0.87889C122.404 0.611639 122.086 0.39614 121.732 0.245168C121.378 0.0941968 120.995 0.0108263 120.606 0ZM108.777 11.604L109.32 5.65062H112.121L111.579 11.604H108.777Z" fill="#AEAFB0"/>
</svg>
