<svg width="157" height="37" viewBox="0 0 157 37" fill="none" xmlns="http://www.w3.org/2000/svg">
<path d="M1.37695 27.4599V1.35645H36.1816L23.531 15.6853H11.9294L1.37695 27.4599Z" fill="#ABABAB"/>
<path d="M36.1816 10.5986V36.1583H1.37695L14.0276 22.1555H25.6291L36.1816 10.5986Z" fill="#ABABAB"/>
<path d="M147.215 25.9638V13.9199H156.863V16.7854H149.901L150.685 16.0242V25.9638H147.215Z" fill="#ABABAB"/>
<path d="M138.767 26.1443C137.752 26.1443 136.864 25.9204 136.103 25.4727C135.342 25.025 134.745 24.3459 134.312 23.4355C133.895 22.5102 133.686 21.3461 133.686 19.9432C133.686 18.5254 133.887 17.3613 134.29 16.4509C134.693 15.5406 135.275 14.8615 136.036 14.4138C136.797 13.9661 137.708 13.7422 138.767 13.7422C139.902 13.7422 140.916 14.0034 141.812 14.5257C142.722 15.0331 143.439 15.7495 143.961 16.6748C144.498 17.6001 144.767 18.6896 144.767 19.9432C144.767 21.2118 144.498 22.3087 143.961 23.234C143.439 24.1594 142.722 24.8757 141.812 25.3831C140.916 25.8906 139.902 26.1443 138.767 26.1443ZM131.648 30.3082V13.9213H134.984V16.3838L134.917 19.9656L135.141 23.5251V30.3082H131.648ZM138.163 23.2788C138.745 23.2788 139.26 23.1445 139.708 22.8759C140.17 22.6072 140.536 22.2267 140.804 21.7342C141.088 21.2267 141.23 20.6298 141.23 19.9432C141.23 19.2418 141.088 18.6448 140.804 18.1523C140.536 17.6598 140.17 17.2792 139.708 17.0106C139.26 16.742 138.745 16.6077 138.163 16.6077C137.581 16.6077 137.058 16.742 136.596 17.0106C136.133 17.2792 135.768 17.6598 135.499 18.1523C135.23 18.6448 135.096 19.2418 135.096 19.9432C135.096 20.6298 135.23 21.2267 135.499 21.7342C135.768 22.2267 136.133 22.6072 136.596 22.8759C137.058 23.1445 137.581 23.2788 138.163 23.2788Z" fill="#ABABAB"/>
<path d="M122.665 26.1443C121.382 26.1443 120.24 25.8756 119.24 25.3384C118.255 24.8011 117.472 24.0698 116.89 23.1445C116.323 22.2043 116.039 21.1372 116.039 19.9432C116.039 18.7344 116.323 17.6673 116.89 16.742C117.472 15.8017 118.255 15.0705 119.24 14.5481C120.24 14.0108 121.382 13.7422 122.665 13.7422C123.934 13.7422 125.068 14.0108 126.068 14.5481C127.068 15.0705 127.852 15.7943 128.419 16.7196C128.986 17.6449 129.269 18.7194 129.269 19.9432C129.269 21.1372 128.986 22.2043 128.419 23.1445C127.852 24.0698 127.068 24.8011 126.068 25.3384C125.068 25.8756 123.934 26.1443 122.665 26.1443ZM122.665 23.2788C123.247 23.2788 123.77 23.1445 124.233 22.8759C124.695 22.6072 125.061 22.2267 125.329 21.7342C125.598 21.2267 125.732 20.6298 125.732 19.9432C125.732 19.2418 125.598 18.6448 125.329 18.1523C125.061 17.6598 124.695 17.2792 124.233 17.0106C123.77 16.742 123.247 16.6077 122.665 16.6077C122.083 16.6077 121.561 16.742 121.098 17.0106C120.636 17.2792 120.263 17.6598 119.979 18.1523C119.71 18.6448 119.576 19.2418 119.576 19.9432C119.576 20.6298 119.71 21.2267 119.979 21.7342C120.263 22.2267 120.636 22.6072 121.098 22.8759C121.561 23.1445 122.083 23.2788 122.665 23.2788Z" fill="#ABABAB"/>
<path d="M107.648 25.9576V12.4138L108.477 13.2421H102.656V10.2871H116.245V13.2421H110.424L111.23 12.4138V25.9576H107.648Z" fill="#ABABAB"/>
<path d="M95.6719 21.0561V18.2578H102.007V21.0561H95.6719Z" fill="#ABABAB"/>
<path d="M90.6077 25.9576L85.7275 18.4134L88.6601 16.6449L94.7268 25.9576H90.6077ZM80.4219 25.9576V10.2871H84.0261V25.9576H80.4219ZM82.9739 19.6446V16.6225H88.4362V19.6446H82.9739ZM88.9959 18.5253L85.6603 18.1224L90.742 10.2871H94.5701L88.9959 18.5253Z" fill="#ABABAB"/>
<path d="M67.446 19.4267V16.6508H75.1918V19.4267H67.446ZM69.5056 10.0244C70.6846 10.0244 71.7666 10.2259 72.7516 10.6288C73.7366 11.0169 74.5948 11.5765 75.3261 12.3078C76.0574 13.0391 76.6245 13.8973 77.0274 14.8823C77.4304 15.8673 77.6319 16.9493 77.6319 18.1283C77.6319 19.3073 77.4304 20.3893 77.0274 21.3743C76.6245 22.3593 76.0574 23.2175 75.3261 23.9488C74.5948 24.6801 73.7366 25.2472 72.7516 25.6502C71.7666 26.0382 70.6846 26.2322 69.5056 26.2322C68.1176 26.2322 66.864 25.9934 65.7447 25.5158C64.6403 25.0383 63.715 24.3443 62.9688 23.4339L65.2746 21.2848C65.8268 21.9116 66.4387 22.3817 67.1102 22.6951C67.7818 22.9936 68.5206 23.1429 69.3265 23.1429C69.9981 23.1429 70.6175 23.0235 71.1846 22.7847C71.7666 22.531 72.2591 22.1877 72.6621 21.7549C73.08 21.3072 73.3934 20.7774 73.6023 20.1655C73.8262 19.5536 73.9381 18.8745 73.9381 18.1283C73.9381 17.3821 73.8262 16.703 73.6023 16.0911C73.3934 15.4792 73.08 14.9569 72.6621 14.5241C72.2591 14.0764 71.7666 13.7331 71.1846 13.4943C70.6175 13.2406 69.9981 13.1137 69.3265 13.1137C68.5206 13.1137 67.7818 13.2704 67.1102 13.5839C66.4387 13.8823 65.8268 14.345 65.2746 14.9718L62.9688 12.8227C63.715 11.9123 64.6403 11.2184 65.7447 10.7408C66.864 10.2632 68.1176 10.0244 69.5056 10.0244Z" fill="#ABABAB"/>
<path d="M52.7266 25.9576V12.4138L53.5549 13.2421H47.7344V10.2871H61.323V13.2421H55.5025L56.3084 12.4138V25.9576H52.7266Z" fill="#ABABAB"/>
</svg>
