<svg width="186" height="24" viewBox="0 0 186 24" fill="none" xmlns="http://www.w3.org/2000/svg">
<g clip-path="url(#clip0_7564_62405)">
<path d="M97.0783 3.95117V14.5913C96.975 16.0985 96.5415 17.5714 94.5938 17.5714V21.4736C101.215 21.4736 101.428 18.9409 101.428 14.5913V7.85347H109.508V21.4736H114.009V3.95117H97.0783Z" fill="#B5B5B5"/>
<path d="M72.3995 9.53964C72.3995 4.02 67.4855 4.02 63.3974 3.95117H53.9961V21.4736H58.4972V15.135H63.3905C67.4786 15.0662 72.3926 15.0593 72.3926 9.54653L72.3995 9.53964ZM63.2322 11.7695H58.504V7.31664H63.2322C66.522 7.31664 67.864 7.31664 67.864 9.54653C67.864 11.7764 66.522 11.7764 63.2322 11.7764V11.7695Z" fill="#B5B5B5"/>
<path d="M42.1849 12.1962L37.2159 3.95117H31.5586L39.549 16.6698L36.8167 21.4736H42.2125L52.4121 3.95117H47.0164L42.1849 12.1962Z" fill="#B5B5B5"/>
<path d="M78.8374 3.95117L70.7988 21.4736H75.6853L77.1719 18.1082H86.4562L88.0047 21.4736H93.194L84.8182 3.95117H78.8374ZM78.6585 14.7427L81.7211 7.80529L84.9145 14.7427H78.6585Z" fill="#B5B5B5"/>
<path d="M178.11 3.95117L172.714 17.8948L167.326 3.95117H160.182V21.4736H164.683V8.78258L169.81 21.4736H175.529L180.739 8.56923V21.4736H185.247V3.95117H178.11Z" fill="#B5B5B5"/>
<path d="M142.786 16.071V3.95117H138.285V21.4736H143.24L152.559 9.53964V21.4736H157.06V3.95117H152.043L142.786 16.071Z" fill="#B5B5B5"/>
<path d="M130.949 3.95117L126.359 9.35382L121.926 3.95117H116.062L123.42 12.8156L116.062 21.4736H121.114L125.904 15.9471L130.44 21.4736H136.303L128.877 12.5197L136.303 3.95117H130.949Z" fill="#B5B5B5"/>
<path d="M19.7999 17.5029C17.9554 17.5029 16.4551 19.0033 16.4551 20.8478C16.4551 22.6922 17.9554 24.1926 19.7999 24.1926C21.6444 24.1926 23.1447 22.6922 23.1447 20.8478C23.1447 19.0033 21.6444 17.5029 19.7999 17.5029Z" fill="#B5B5B5"/>
<path d="M14.6557 5.65144C15.3627 3.94477 14.5522 1.98815 12.8455 1.28122C11.1389 0.574293 9.18225 1.38475 8.47532 3.09143C7.76839 4.79811 8.57885 6.75472 10.2855 7.46165C11.9922 8.16858 13.9488 7.35812 14.6557 5.65144Z" fill="#B5B5B5" fill-opacity="0.8"/>
<path d="M6.41942 13.8809C7.12635 12.1743 6.31589 10.2176 4.60921 9.51071C2.90254 8.80379 0.945922 9.61424 0.238993 11.3209C-0.467936 13.0276 0.34252 14.9842 2.0492 15.6911C3.75588 16.3981 5.71249 15.5876 6.41942 13.8809Z" fill="#B5B5B5" fill-opacity="0.8"/>
<path d="M19.7999 9.26367C17.9554 9.26367 16.4551 10.764 16.4551 12.6085C16.4551 14.453 17.9554 15.9533 19.7999 15.9533C21.6444 15.9533 23.1447 14.453 23.1447 12.6085C23.1447 10.764 21.6444 9.26367 19.7999 9.26367Z" fill="#B5B5B5" fill-opacity="0.8"/>
<path d="M11.5714 17.5029C9.72691 17.5029 8.22656 19.0033 8.22656 20.8478C8.22656 22.6922 9.72691 24.1926 11.5714 24.1926C13.4159 24.1926 14.9093 22.6922 14.9093 20.8478C14.9093 19.0033 13.409 17.5029 11.5714 17.5029Z" fill="#B5B5B5" fill-opacity="0.8"/>
<path d="M6.68646 20.703C6.79658 19.7188 6.92046 18.597 8.12487 17.3995C9.16411 16.3602 10.2515 16.1951 11.3114 16.0299C12.2612 15.8854 13.1559 15.7477 13.9336 14.97C14.7113 14.1923 14.8489 13.2907 14.9935 12.3478C15.1518 11.2948 15.3238 10.2005 16.363 9.16131C17.5675 7.95689 18.6824 7.83301 19.6666 7.7229C20.5406 7.62654 21.3665 7.53707 22.1718 6.73184C22.9082 5.99543 23.2523 4.97684 23.1215 3.9376C23.032 3.21496 22.6948 2.5336 22.1718 2.01054C21.6487 1.48748 20.9605 1.15025 20.2447 1.06078C19.2055 0.930014 18.18 1.27413 17.4436 2.01054C16.6383 2.81578 16.5489 3.64166 16.4525 4.51572C16.3424 5.4999 16.2185 6.62172 15.0141 7.81925C13.9749 8.85848 12.5433 9.36778 11.0774 9.23013C9.96934 9.12001 8.92322 8.6176 8.12487 7.81925C6.92046 6.61484 6.79658 5.4999 6.68646 4.51572C6.59011 3.64166 6.49375 2.81578 5.6954 2.01054C5.06222 1.37048 4.21569 1.02637 3.32787 1.02637C3.18334 1.02637 3.03881 1.03325 2.89428 1.0539C2.17852 1.14337 1.49028 1.4806 0.967224 2.00366C0.444165 2.52672 0.10693 3.21495 0.0174596 3.93072C-0.113305 4.96995 0.230813 5.99542 0.967224 6.72495C1.77246 7.53019 2.59834 7.61966 3.4724 7.71601C4.45658 7.82613 5.57152 7.95001 6.77593 9.15442C7.57428 9.95278 8.07669 10.9989 8.18681 12.107C8.33134 13.5729 7.81517 15.0044 6.77593 16.0437C5.57152 17.2481 4.45658 17.372 3.4724 17.4821C2.59834 17.5784 1.77246 17.6679 0.967224 18.4731C0.230813 19.2164 -0.113305 20.235 0.0174596 21.2811C0.10693 22.0038 0.444165 22.6851 0.967224 23.2082C1.49028 23.7312 2.17164 24.0685 2.89428 24.158C3.9404 24.2887 4.95899 23.9446 5.68852 23.2082C6.49375 22.403 6.58322 21.5771 6.67958 20.703H6.68646Z" fill="#B5B5B5"/>
</g>
<defs>
<clipPath id="clip0_7564_62405">
<rect width="185.135" height="23.4" fill="white"/>
</clipPath>
</defs>
</svg>
