<svg width="63" height="63" viewBox="0 0 63 63" fill="none" xmlns="http://www.w3.org/2000/svg">
<path fill-rule="evenodd" clip-rule="evenodd" d="M4.43636 4.42854C0.0078125 8.85709 0.0078125 15.9847 0.0078125 30.24V32.76C0.0078125 47.0153 0.0078125 54.1429 4.43636 58.5714C8.8649 63 15.9925 63 30.2478 63H30.2478H32.7678H32.7678C47.0231 63 54.1507 63 58.5793 58.5714C63.0078 54.1429 63.0078 47.0153 63.0078 32.76V32.76V30.24V30.24C63.0078 15.9847 63.0078 8.85709 58.5793 4.42854C54.1507 0 47.0231 0 32.7678 0H30.2478C15.9925 0 8.8649 0 4.43636 4.42854ZM10.6396 19.1631C10.9808 35.5431 19.1708 45.3868 33.5295 45.3868H34.3434V36.0155C39.6197 36.5405 43.6094 40.3993 45.2106 45.3868H52.6659C50.6184 37.9318 45.2368 33.8105 41.8768 32.2355C45.2368 30.293 49.9619 25.5681 51.0906 19.1631H44.3179C42.8479 24.3606 38.4909 29.0855 34.3434 29.5318V19.1631H27.5707V37.328C23.3707 36.278 18.0683 31.1856 17.8321 19.1631H10.6396Z" fill="#B5B5B5"/>
</svg>
